<svg id="Layer_1" data-name="Layer 1" xmlns="http://www.w3.org/2000/svg" viewBox="0 0 1000 1000"><defs><style>.cls-1{fill:#e6e6e6;}.cls-2{fill:#d3d3d3;}.cls-3{fill:#001f40;}.cls-4{fill:#fbb72a;}</style></defs><title>daunKanan</title><path class="cls-1" d="M980,128.23c-189.84-3.15-263.34,44.61-225.54,192.92s96.6,195,27.3,315.52S839.74,858,942,874.75s38,10.49,38,10.49Z"/><path class="cls-2" d="M1001,45.28S825.86,179.67,865.76,307.77s-111.29,36.44-98.7,182,195.29,78.38,178.49,208.57S1001,981.83,1001,981.83Z"/><path class="cls-3" d="M901.76,263.21a115.35,115.35,0,0,1,12.41,7.09c3.08,1.94,4.89,3.3,4.89,3.3s-.34.55-1,1.45C912.53,271.23,907.18,267.17,901.76,263.21Z"/><path class="cls-3" d="M864.71,232.85s-.3.42-.86,1.12c-4.7-3.79-9.44-7.53-14-11.45,2.2,1.31,4.21,2.63,6,3.84s3.41,2.31,4.73,3.28C863.2,231.56,864.71,232.85,864.71,232.85Z"/><path class="cls-3" d="M754,133.36a99.74,99.74,0,0,1,9.57,8.88l-.49.53Z"/><path class="cls-3" d="M717.21,92.63s-.09.1-.27.25c-2.15-2.38-4.19-4.86-6.27-7.29,2,2,3.67,3.8,4.78,5.06S717.21,92.63,717.21,92.63Z"/><path class="cls-3" d="M731.37,108.37a96.77,96.77,0,0,1-6.87-8.3l7.24,8C731.51,108.26,731.37,108.37,731.37,108.37Z"/><path class="cls-3" d="M777.6,156a101.89,101.89,0,0,1-9.39-10.29l10,9.72Z"/><path class="cls-3" d="M877.76,243.08l-1.16-.86c-.74-.57-1.82-1.39-3.08-2.5a112.59,112.59,0,0,1-9.48-9.24l7.3,5.75c2.43,1.92,4.86,3.84,7.35,5.68C878.11,242.66,877.76,243.08,877.76,243.08Z"/><path class="cls-3" d="M932.46,280.64c-.64,1-1.05,1.51-1.05,1.51A106.6,106.6,0,0,1,915.58,269Z"/><path class="cls-3" d="M717.21,92.63s-.09.1-.27.25c-2.15-2.38-4.19-4.86-6.27-7.29,2,2,3.67,3.8,4.78,5.06S717.21,92.63,717.21,92.63Z"/><path class="cls-3" d="M731.73,108.05c-.23.21-.36.31-.36.31a96.77,96.77,0,0,1-6.87-8.3Z"/><path class="cls-3" d="M778.19,155.45l-.59.57a101.89,101.89,0,0,1-9.39-10.29Z"/><path class="cls-3" d="M754,133.36l9.07,9.4c-2.84,2.82-17.06,16.32-37.09,13.1a43,43,0,0,1-8.28-2.22,63,63,0,0,1-7.84-3.64,93.26,93.26,0,0,1-13.67-9.28,113.6,113.6,0,0,1-12.79-12.5,47,47,0,0,1,10.88-7.55,42.38,42.38,0,0,1,27.32-4.38,56.61,56.61,0,0,1,18,6.93c2.76,1.59,5.35,3.33,7.76,5.06S752.05,131.73,754,133.36Z"/><path class="cls-3" d="M849.82,222.52c4.59,3.92,9.33,7.66,14,11.45a50.56,50.56,0,0,1-11.45,10.23,42.77,42.77,0,0,1-10.33,4.91,38.78,38.78,0,0,1-6.24,1.42,37.11,37.11,0,0,1-6.87.28c-11.26-.59-22.84-6-31.31-11.61a122,122,0,0,1-10.33-7.47c-1.26-1-2.21-1.86-2.87-2.45l-1-.93a46.87,46.87,0,0,1,9.91-8.75c6.33-4.23,15.55-8.35,26.68-7.61a55.41,55.41,0,0,1,15.81,3.73A87.48,87.48,0,0,1,849.82,222.52Z"/><path class="cls-3" d="M710.66,85.59c2.09,2.43,4.12,4.91,6.27,7.29a49.5,49.5,0,0,1-12.22,8.06A39.71,39.71,0,0,1,678.9,104a46.09,46.09,0,0,1-8.13-2.7c-1.32-.57-2.64-1.2-3.92-1.88s-2.51-1.43-3.72-2.19a94,94,0,0,1-13.06-10.11,95.91,95.91,0,0,1-8.82-9.21c-2.08-2.45-3.23-4-3.23-4A47,47,0,0,1,649.32,67a46.47,46.47,0,0,1,12.34-3.54,41.22,41.22,0,0,1,15.21.76,57.63,57.63,0,0,1,19.32,9.27A105.81,105.81,0,0,1,710.66,85.59Z"/><path class="cls-3" d="M901.76,263.21c5.42,4,10.77,8,16.3,11.83a50.37,50.37,0,0,1-11,10.88,42,42,0,0,1-9.91,5.34,37.77,37.77,0,0,1-12.71,2.33,53.6,53.6,0,0,1-16.94-2.9,93.86,93.86,0,0,1-15-6.84A97.72,97.72,0,0,1,841.73,277c-2.58-1.9-4.06-3.16-4.06-3.16a47,47,0,0,1,9.39-9.32,43.08,43.08,0,0,1,26.16-9.13,51.87,51.87,0,0,1,14.92,2.45c1.21.37,2.39.77,3.57,1.2s2.35.84,3.5,1.29C897.5,261.22,899.69,262.2,901.76,263.21Z"/><path class="cls-3" d="M791.78,118.88c2.31,19.08-10.61,33.59-13.59,36.56l-10-9.72A101.89,101.89,0,0,0,777.6,156l.59-.57q18,17.36,36.66,33.9a88.43,88.43,0,0,1-9.28-13.28,49.33,49.33,0,0,1-5.74-16c-1.7-10.88,1.73-20.14,5.62-26.76a49.43,49.43,0,0,1,8.09-10.48s1.31,1.21,3.34,3.35a103.6,103.6,0,0,1,7.73,8.83c1.44,1.85,2.91,3.87,4.32,6,.71,1.08,1.4,2.19,2.07,3.34s1.36,2.28,2,3.47a50.31,50.31,0,0,1,5.49,15.27,40.94,40.94,0,0,1,0,13.12,45.5,45.5,0,0,1-3.26,11,52.3,52.3,0,0,1-8.05,12.93l9.05,7.77c3,2.59,6.13,5.07,9.19,7.6l9.21,7.57c3.06,2.54,6.23,4.94,9.34,7.42-6.42-7-12.91-16.58-15.16-26.74a36.44,36.44,0,0,1-.12-15A45.82,45.82,0,0,1,853,176.63a49.29,49.29,0,0,1,7.47-10.91s1.39,1.12,3.54,3.14c1.08,1,2.34,2.24,3.72,3.67s2.91,3,4.46,4.75a82.63,82.63,0,0,1,9.11,12.32,71.35,71.35,0,0,1,3.77,7.2,43.87,43.87,0,0,1,2.61,7.71c4.15,18-5.73,33.16-9,37.4-2.49-1.84-4.92-3.76-7.35-5.68l-7.3-5.75a112.59,112.59,0,0,0,9.48,9.24c1.26,1.11,2.34,1.93,3.08,2.5l1.16.86s.35-.41.94-1.17c6.11,4.58,12.16,9.23,18.31,13.74L915.58,269a106.6,106.6,0,0,0,15.83,13.14s.41-.53,1.05-1.51c1.86,1.3,3.75,2.55,5.65,3.8l5.69,3.74,11.37,7.49L953,299l-17.57-11.83c-2.95-1.94-5.8-4-8.7-6l-8.66-6.1c.67-.9,1-1.45,1-1.45s-1.81-1.35-4.89-3.3a115.35,115.35,0,0,0-12.41-7.09c-3.21-2.38-6.44-4.71-9.62-7.12l-9.48-7.3-9.47-7.32-9.33-7.5c.56-.7.86-1.12.86-1.12s-1.51-1.29-4.14-3.21c-1.31-1-2.91-2.08-4.73-3.28s-3.82-2.54-6-3.84l-9.56-8c-1.59-1.34-3.2-2.66-4.77-4l-4.69-4.11c-6.23-5.5-12.58-10.88-18.66-16.55-3.14,3.45-16.37,17-36.07,15a52.92,52.92,0,0,1-16.4-4.94,81.8,81.8,0,0,1-14.16-8.49A113.7,113.7,0,0,1,732,179.77a47.15,47.15,0,0,1,10.43-8.17,42.66,42.66,0,0,1,27.06-6,48.93,48.93,0,0,1,8.58,2,63.81,63.81,0,0,1,8.25,3.23,94.56,94.56,0,0,1,14.21,8.43l-18.9-18c-6.15-6.15-12.38-12.22-18.47-18.42l.49-.53a99.74,99.74,0,0,0-9.57-8.88c-12.72-13.17-25-26.74-37.1-40.48.18-.16.27-.25.27-.25s-.62-.74-1.76-2-2.74-3-4.78-5.06L699.94,73,689.47,60.15l-5.23-6.42-5.1-6.52L669,34.15q26.55,34,55.53,65.92a96.77,96.77,0,0,0,6.87,8.3s.13-.1.36-.31c6,6.35,12,12.72,18,19l9.2,9.33,4.6,4.67,2.3,2.33,2.35,2.28a75,75,0,0,1-4.81-6.67,84.11,84.11,0,0,1-4.51-7.8,49,49,0,0,1-5.49-17.61c-1-11,2.94-20.07,7.15-26.42a49.16,49.16,0,0,1,8.66-10,102.35,102.35,0,0,1,18,26A51.46,51.46,0,0,1,791.78,118.88Z"/><path class="cls-3" d="M731.73,108.05l-7.24-8C723,98,721.28,95.61,719.62,93c-.83-1.32-1.65-2.69-2.45-4.12s-1.53-2.95-2.24-4.49c-2.84-6.16-5-13-5.32-19.71-.39-11,4.14-19.9,8.71-26a49.31,49.31,0,0,1,9.22-9.47s1.19,1.34,3,3.69a116.93,116.93,0,0,1,6.58,9.72A82.35,82.35,0,0,1,744,56.24,61.12,61.12,0,0,1,746.45,64a43.57,43.57,0,0,1,1.27,8C748.91,91.89,734.3,105.87,731.73,108.05Z"/><path class="cls-3" d="M932.46,280.64,915.58,269c-6.28-6.57-12.68-15.09-15.29-24.47-2.89-10.69-.51-20.31,2.57-27.29a49.21,49.21,0,0,1,6.83-11.32A96.37,96.37,0,0,1,922,216.82a84.52,84.52,0,0,1,9.84,11.72,54.3,54.3,0,0,1,7.18,14.56C944.21,260.35,935.62,275.9,932.46,280.64Z"/><path class="cls-3" d="M878.7,241.91c-.59.76-.94,1.17-.94,1.17l-1.16-.86c-.74-.57-1.82-1.39-3.08-2.5a112.59,112.59,0,0,1-9.48-9.24l7.3,5.75C873.77,238.14,876.21,240.06,878.7,241.91Z"/><path class="cls-3" d="M932.46,280.64c-.64,1-1.05,1.51-1.05,1.51A106.6,106.6,0,0,1,915.58,269Z"/><path class="cls-3" d="M763.6,142.24l-.49.53-9.07-9.4A99.74,99.74,0,0,1,763.6,142.24Z"/><path class="cls-3" d="M864.71,232.85s-.3.42-.86,1.12c-4.7-3.79-9.44-7.53-14-11.45,2.2,1.31,4.21,2.63,6,3.84s3.41,2.31,4.73,3.28C863.2,231.56,864.71,232.85,864.71,232.85Z"/><path class="cls-3" d="M919.06,273.6s-.34.55-1,1.45c-5.53-3.81-10.88-7.87-16.3-11.83a115.35,115.35,0,0,1,12.41,7.09C917.25,272.24,919.06,273.6,919.06,273.6Z"/><path class="cls-4" d="M903.64,447a63.92,63.92,0,0,1,2.82,11.13c.39,2.9.45,4.72.45,4.72s-.64.08-1.75.14c-.18-2.67-.35-5.34-.66-8S904,449.68,903.64,447Z"/><path class="cls-4" d="M898.22,409l-1.36.35-1.74-7c-.59-2.34-1.26-4.66-1.89-7,.93,1.84,1.72,3.61,2.38,5.24s1.12,3.12,1.52,4.36C897.9,407.49,898.22,409,898.22,409Z"/><path class="cls-4" d="M854,298.28a59.32,59.32,0,0,1,4,6.39c.89,1.63,1.34,2.62,1.34,2.62l-.63.34C857.18,304.5,855.64,301.37,854,298.28Z"/><path class="cls-4" d="M833,259.51l-.31.2c-1.29-2.23-2.63-4.43-3.94-6.64,1.39,1.86,2.46,3.47,3.18,4.61S833,259.51,833,259.51Z"/><path class="cls-4" d="M841.6,274.19a62.62,62.62,0,0,1-4-7.71L842,274Z"/><path class="cls-4" d="M866.36,321.44s-.54-1-1.33-2.87a73.46,73.46,0,0,1-2.87-7.53c1.65,3.36,3.37,6.68,5,10.07Z"/><path class="cls-4" d="M901.18,422l-.24-1.14c-.13-.74-.36-1.8-.59-3.13s-.46-2.92-.65-4.72c-.1-.9-.18-1.85-.25-2.84s-.17-2-.22-3.08c.66,2.41,1.22,4.85,1.78,7.29s1.18,4.87,1.65,7.33Z"/><path class="cls-4" d="M909.47,474.88c-1.17.06-1.84.05-1.84.05s-.16-1.86-.12-4.85c0-.75,0-1.57.08-2.45s0-1.82.1-2.82c.11-2,.31-4.17.65-6.49l.68,8.27C909.22,469.35,909.32,472.12,909.47,474.88Z"/><path class="cls-4" d="M833,259.51l-.31.2c-1.29-2.23-2.63-4.43-3.94-6.64,1.39,1.86,2.46,3.47,3.18,4.61S833,259.51,833,259.51Z"/><path class="cls-4" d="M842,274l-.42.23a62.62,62.62,0,0,1-4-7.71Z"/><path class="cls-4" d="M867.11,321.11l-.75.33s-.54-1-1.33-2.87a73.46,73.46,0,0,1-2.87-7.53C863.8,314.4,865.53,317.72,867.11,321.11Z"/><path class="cls-4" d="M854,298.28c1.63,3.09,3.17,6.23,4.74,9.35a64.86,64.86,0,0,1-14,5.12c-6.91,1.65-15.39,2.43-23.55,0-9.08-2.78-16.14-9.09-21-14.75a68.06,68.06,0,0,1-5.6-7.45c-1.29-2-2-3.21-2-3.21a61.31,61.31,0,0,1,11.92-5.67c7.13-2.53,16.58-4.41,25.91-1.72C841.12,283,849.26,291.51,854,298.28Z"/><path class="cls-4" d="M893.23,395.38c.63,2.33,1.3,4.65,1.89,7l1.74,7a67.71,67.71,0,0,1-15.18,1.7c-6.91,0-14.79-1.15-21.85-4.84-8.16-4.36-13.75-11.44-17.31-17.52a59.22,59.22,0,0,1-4-7.86c-.9-2-1.32-3.31-1.32-3.31a63.25,63.25,0,0,1,12.69-3.6,52.27,52.27,0,0,1,12.4-.78,35.33,35.33,0,0,1,13.31,3.41A35.81,35.81,0,0,1,886.25,385,50.24,50.24,0,0,1,893.23,395.38Z"/><path class="cls-4" d="M828.73,253.06c1.31,2.22,2.65,4.41,3.94,6.64-2.56,1.64-20.28,11.92-37.5,7.66-9.34-2.28-16.8-8.36-22.09-13.88a73.72,73.72,0,0,1-6.09-7.33c-1.4-1.94-2.14-3.19-2.14-3.19a60.69,60.69,0,0,1,11.65-6.2c7-2.83,16.39-5.15,25.85-2.91C814.54,236.72,823.77,246.43,828.73,253.06Z"/><path class="cls-4" d="M903.64,447c.37,2.65.57,5.33.86,8s.48,5.33.66,8a68.35,68.35,0,0,1-15.33-.88c-6.62-1.15-14.19-3.49-20.33-8a39.2,39.2,0,0,1-5-4.41,42.17,42.17,0,0,1-4-4.89,54.7,54.7,0,0,1-5.48-10c-.68-1.57-1.23-3.07-1.67-4.43s-.87-2.58-1.15-3.61c-.58-2.06-.81-3.34-.81-3.34a64.48,64.48,0,0,1,13-1.91,52.12,52.12,0,0,1,12.37.82,33.78,33.78,0,0,1,12.68,5.12,31.19,31.19,0,0,1,4.9,4.11,39.39,39.39,0,0,1,3.92,4.85A46.75,46.75,0,0,1,903.64,447Z"/><path class="cls-4" d="M893.22,293.39c-4.86,17.25-22.33,25.9-26.11,27.72-1.59-3.39-3.31-6.71-5-10.07a73.46,73.46,0,0,0,2.87,7.53c.8,1.82,1.33,2.87,1.33,2.87l.75-.33c5.82,12.08,11.23,24.36,16.12,36.86a69.34,69.34,0,0,1-1.36-13.23,43.49,43.49,0,0,1,2.25-14.51,39.67,39.67,0,0,1,7-12.22,53.72,53.72,0,0,1,9.07-8.64,56.8,56.8,0,0,1,11.34-6.77s.75,1.44,1.78,3.92a80,80,0,0,1,3.35,10.16,63.12,63.12,0,0,1,1.94,13.88,40.08,40.08,0,0,1-2.34,14.82c-3.08,8.25-9.11,14.1-14.86,18.06a59.87,59.87,0,0,1-13.51,6.91c4.33,12.07,8.15,24.34,11.33,36.79-.09-1.92-.11-4,0-6.08a62.06,62.06,0,0,1,.52-6.47,45.43,45.43,0,0,1,3.78-13.16A41.21,41.21,0,0,1,911.77,370a54.42,54.42,0,0,1,10-7.7,55.78,55.78,0,0,1,12-5.57s.16.38.4,1.11.58,1.77,1,3.1a73.09,73.09,0,0,1,2.29,10.73c.3,2.18.52,4.5.63,6.9a62,62,0,0,1-.22,7.44,40.29,40.29,0,0,1-4.06,14.69c-4,7.75-10.55,12.73-16.62,15.91a59.27,59.27,0,0,1-14.43,5.19c-.47-2.46-1.09-4.89-1.65-7.33s-1.13-4.88-1.78-7.29c.05,1.06.13,2.09.22,3.08s.15,1.94.25,2.84c.19,1.8.43,3.39.65,4.72s.46,2.39.59,3.13l.24,1.14,1.47-.28a330.19,330.19,0,0,1,5.68,36.57c-.34,2.31-.54,4.5-.65,6.49-.05,1-.09,1.93-.1,2.82s-.07,1.7-.08,2.45c0,3,.12,4.85.12,4.85s.67,0,1.84-.05c.11,1.84.15,3.67.17,5.51l.09,5.52c0,3.68-.1,7.35-.14,11l-4-.16a299,299,0,0,0-.44-33.75c1.12-.06,1.75-.14,1.75-.14s-.06-1.82-.45-4.72A63.92,63.92,0,0,0,903.64,447a340.92,340.92,0,0,0-6.78-37.62l1.36-.35s-.33-1.56-1.1-4.06c-.39-1.25-.86-2.74-1.52-4.36s-1.45-3.4-2.38-5.24c-3.56-12.82-7.78-25.46-12.52-37.91a65.94,65.94,0,0,1-14.66,3.69c-6.94.92-15.23.85-22.83-2.17-8.8-3.45-15.1-10.13-19.49-16a74.47,74.47,0,0,1-4.93-7.64c-1.1-2-1.65-3.27-1.65-3.27a62.23,62.23,0,0,1,12.27-4.82c7.24-2,16.84-3.28,25.89.1,9.55,3.51,16.45,11.51,20.76,18.31-5.29-12.9-11.11-25.58-17.32-38.08l.63-.34s-.45-1-1.34-2.62a59.32,59.32,0,0,0-4-6.39c-6.74-13.05-13.89-25.89-21.34-38.57l.31-.2s-.36-.69-1.08-1.83-1.79-2.75-3.18-4.61c-9.08-15.23-18.62-30.19-28.32-45,12.91,19.16,25.44,38.58,37.23,58.45a62.62,62.62,0,0,0,4,7.71L842,274c7.05,12.16,13.79,24.5,20.12,37.07-2.56-7.82-4.9-18.93-2.17-29.53,2.5-9.56,8.71-16.94,14.41-22a57.5,57.5,0,0,1,10.8-7.61s.83,1.36,2,3.7a72,72,0,0,1,4,9.65C894,273.16,895.89,283.7,893.22,293.39Z"/><path class="cls-4" d="M842,274l-4.38-7.48c-3.38-7.62-7.42-19.73-5-31.64,1.92-9.62,7.82-17.35,13.23-22.63a58.24,58.24,0,0,1,10.39-8.15s.9,1.27,2.18,3.5a77.05,77.05,0,0,1,4.48,9.23c3.05,7.64,5.61,17.78,3.5,27.56C862.55,262.25,844.95,272.32,842,274Z"/><path class="cls-4" d="M909.47,474.88c-.15-2.76-.25-5.53-.45-8.29l-.68-8.27a64.87,64.87,0,0,1,2.5-11.63A44.82,44.82,0,0,1,916.25,435a41.29,41.29,0,0,1,9.81-10.25,54.07,54.07,0,0,1,10.87-6.3,55,55,0,0,1,12.63-3.9s.4,1.67.82,4.45a80.83,80.83,0,0,1,.79,11.23,64,64,0,0,1-.41,7.1,52.86,52.86,0,0,1-1.28,7.47,40.25,40.25,0,0,1-6.3,14.15c-5,7-12.16,10.87-18.6,13A57.8,57.8,0,0,1,909.47,474.88Z"/><path class="cls-4" d="M902.65,421.76l-1.47.28-.24-1.14c-.13-.74-.36-1.8-.59-3.13s-.46-2.92-.65-4.72c-.1-.9-.18-1.85-.25-2.84s-.17-2-.22-3.08c.66,2.41,1.22,4.85,1.78,7.29S902.18,419.3,902.65,421.76Z"/><path class="cls-4" d="M909.47,474.88c-1.17.06-1.84.05-1.84.05s-.16-1.86-.12-4.85c0-.75,0-1.57.08-2.45s0-1.82.1-2.82c.11-2,.31-4.17.65-6.49l.68,8.27C909.22,469.35,909.32,472.12,909.47,474.88Z"/><path class="cls-4" d="M859.38,307.28l-.63.34c-1.56-3.12-3.11-6.26-4.74-9.35a59.32,59.32,0,0,1,4,6.39C858.93,306.29,859.38,307.28,859.38,307.28Z"/><path class="cls-4" d="M898.22,409l-1.36.35-1.74-7c-.59-2.34-1.26-4.66-1.89-7,.93,1.84,1.72,3.61,2.38,5.24s1.12,3.12,1.52,4.36C897.9,407.49,898.22,409,898.22,409Z"/><path class="cls-4" d="M906.91,462.88s-.64.08-1.75.14c-.18-2.67-.35-5.34-.66-8s-.49-5.34-.86-8a63.92,63.92,0,0,1,2.82,11.13C906.85,461.07,906.91,462.88,906.91,462.88Z"/><path class="cls-4" d="M874.71,84.65a82.89,82.89,0,0,1,8-9.07c2.14-2.21,3.6-3.44,3.6-3.44s.45.45,1.19,1.29C883.34,77.31,879,80.94,874.71,84.65Z"/><path class="cls-4" d="M842.52,109.07s.33.39.89,1.1c-4,3.11-8,6.27-12.17,9.23,1.47-1.59,2.94-3,4.27-4.27s2.54-2.39,3.58-3.28C841.16,110,842.52,109.07,842.52,109.07Z"/><path class="cls-4" d="M738.12,178.59a71,71,0,0,1,9.31-5.88l.37.62Z"/><path class="cls-4" d="M696.58,199.05s.07.11.17.33c-2.43,1.2-4.92,2.24-7.39,3.35,2.11-1.2,3.93-2.11,5.21-2.72S696.58,199.05,696.58,199.05Z"/><path class="cls-4" d="M712.63,191.23a68.85,68.85,0,0,1-8.35,3.58l8.15-4Z"/><path class="cls-4" d="M761.7,164.33a72.5,72.5,0,0,1-10.49,5.29l10.09-6Z"/><path class="cls-4" d="M853.44,100.35l-.93.79c-.61.5-1.49,1.23-2.65,2a80.45,80.45,0,0,1-9.56,5.8l6.13-4.87c2-1.62,4.1-3.23,6.08-4.93Z"/><path class="cls-4" d="M894.32,62.19c.82.84,1.25,1.35,1.25,1.35A76,76,0,0,1,881.71,74Z"/><path class="cls-4" d="M696.58,199.05s.07.11.17.33c-2.43,1.2-4.92,2.24-7.39,3.35,2.11-1.2,3.93-2.11,5.21-2.72S696.58,199.05,696.58,199.05Z"/><path class="cls-4" d="M712.42,190.8l.2.43a68.85,68.85,0,0,1-8.35,3.58Z"/><path class="cls-4" d="M761.3,163.62l.4.72a72.5,72.5,0,0,1-10.49,5.29Z"/><path class="cls-4" d="M738.12,178.59l9.68-5.27c2,3.49,11.37,20.69,5,38a35.86,35.86,0,0,1-3.42,6.89,49.43,49.43,0,0,1-4.61,6,70.36,70.36,0,0,1-10.63,9.61,84,84,0,0,1-13.3,7.75,54.8,54.8,0,0,1-4.44-12.45c-1.72-7.4-2.46-17.16,1.31-26.49a45.77,45.77,0,0,1,9.17-14.19,69,69,0,0,1,5.72-5.46C734.48,181.37,736.36,179.88,738.12,178.59Z"/><path class="cls-4" d="M831.23,119.39c4.14-3,8.14-6.12,12.17-9.23a58.64,58.64,0,0,1,7.6,13.27,45.82,45.82,0,0,1,3,10.74,38.13,38.13,0,0,1,.38,6.05,33.58,33.58,0,0,1-.76,6.29c-2.19,10-8.84,18.94-15.17,25a90.37,90.37,0,0,1-8.3,7.19c-1.09.85-2,1.46-2.65,1.88l-1,.64a54.61,54.61,0,0,1-6.23-11.64c-2.76-7-5-16.63-2.68-26.47a38.84,38.84,0,0,1,2.32-6.87,60.28,60.28,0,0,1,3.31-6.29A64.83,64.83,0,0,1,831.23,119.39Z"/><path class="cls-4" d="M689.36,202.73c2.46-1.11,5-2.16,7.39-3.35a57.75,57.75,0,0,1,4.62,13.85c1.41,7.16,1.66,16.08-2.32,24.74a38.59,38.59,0,0,1-3.93,6.62c-.76,1-1.56,2-2.4,3s-1.73,1.84-2.64,2.71A71,71,0,0,1,678.73,259a70,70,0,0,1-9.73,5.11c-2.53,1.11-4.12,1.65-4.12,1.65a54.77,54.77,0,0,1-3.49-12.74,51.85,51.85,0,0,1-.45-12.57,40.5,40.5,0,0,1,3.73-13.76A46.1,46.1,0,0,1,676.34,212,77,77,0,0,1,689.36,202.73Z"/><path class="cls-4" d="M874.71,84.65c4.27-3.72,8.63-7.34,12.77-11.21A58.32,58.32,0,0,1,896,86.27a44.8,44.8,0,0,1,3.6,10.34,35.49,35.49,0,0,1,.45,12,43.46,43.46,0,0,1-4.93,14.44,70.74,70.74,0,0,1-8.32,11.63,71.46,71.46,0,0,1-7.77,7.77c-2.1,1.79-3.45,2.77-3.45,2.77a54.75,54.75,0,0,1-7.07-11.15c-3.32-6.84-6.11-16.1-4.62-26.16a42.48,42.48,0,0,1,4.19-12.66c.49-1,1-1.92,1.54-2.85s1.06-1.87,1.62-2.76C872.37,87.9,873.54,86.21,874.71,84.65Z"/><path class="cls-4" d="M731.81,139.66c16.77,4,27.4,20.31,29.49,24l-10.09,6a72.5,72.5,0,0,0,10.49-5.29l-.4-.72q18-10.84,35.43-22.7a64.42,64.42,0,0,1-13.09,4.3,39.17,39.17,0,0,1-14.93.2c-9.76-1.86-17.26-7.9-22.39-13.53a59.08,59.08,0,0,1-7.82-10.65s1.24-.79,3.39-1.94a70.76,70.76,0,0,1,8.76-4.15c1.81-.71,3.77-1.39,5.85-2,1-.29,2.11-.57,3.2-.81s2.18-.5,3.3-.7a38,38,0,0,1,25.6,3.86,50.89,50.89,0,0,1,9.21,6.3A62,62,0,0,1,808.07,133l8.2-5.81c2.73-1.94,5.37-4,8.07-6l8-6c2.69-2,5.27-4.14,7.91-6.2-7.09,3.73-16.59,6.7-25.91,5.66a32.58,32.58,0,0,1-7-1.59,39.65,39.65,0,0,1-6.29-2.85,51.06,51.06,0,0,1-10-7.48,58.9,58.9,0,0,1-8.56-10s1.17-.9,3.23-2.2c1-.65,2.28-1.4,3.71-2.19s3-1.69,4.76-2.53a58.8,58.8,0,0,1,12.05-4.37,55.54,55.54,0,0,1,6.86-1.19,36.65,36.65,0,0,1,7.18,0c8.22.81,15.49,4.57,21.06,8.57a62.12,62.12,0,0,1,11.21,10.41c-2,1.7-4,3.32-6.08,4.93L840.3,109a80.45,80.45,0,0,0,9.56-5.8c1.16-.81,2-1.53,2.65-2l.93-.79-.93-1.18c4.91-4.15,9.89-8.21,14.75-12.42L881.71,74a76,76,0,0,0,13.87-10.43s-.43-.51-1.25-1.35c1.41-1.29,2.77-2.63,4.13-4l4.09-4,8.17-8L913.54,49,900.65,61.36c-2.12,2.09-4.37,4.05-6.56,6.07l-6.61,6c-.74-.84-1.19-1.29-1.19-1.29s-1.45,1.23-3.6,3.44a82.89,82.89,0,0,0-8,9.07c-2.56,2.19-5.08,4.42-7.67,6.57l-7.82,6.39L851.39,104l-8,6.18c-.55-.71-.89-1.1-.89-1.1s-1.36,1-3.44,2.77c-1,.9-2.26,2-3.58,3.28s-2.8,2.68-4.27,4.27l-8.49,6.21c-1.42,1-2.82,2.09-4.26,3.09l-4.33,3c-5.79,4-11.48,8.06-17.4,11.83,2.56,3.9,12.56,20,7.64,37.32a42.77,42.77,0,0,1-7.07,13.44,61.2,61.2,0,0,1-9.9,10.33,84.07,84.07,0,0,1-12.64,8.79,55,55,0,0,1-5.36-12.09c-2.27-7.26-3.75-17-.71-26.57a41.37,41.37,0,0,1,3.11-7.19,50,50,0,0,1,4.15-6.49,69.69,69.69,0,0,1,9.63-10.27q-9.34,5.82-18.74,11.54c-6.36,3.66-12.67,7.4-19.07,11l-.37-.62a71,71,0,0,0-9.31,5.88c-13.56,7.39-27.41,14.22-41.37,20.79-.1-.22-.17-.33-.17-.33s-.75.33-2,1-3.09,1.51-5.21,2.72L676.6,208.4l-12.9,5.35-6.45,2.66-6.52,2.5-13,5q34-13,66.58-29.07a68.85,68.85,0,0,0,8.35-3.58l-.2-.43c6.52-3.42,13.05-6.82,19.54-10.3l9.63-5.4,4.82-2.7,2.41-1.35,2.37-1.41a53,53,0,0,1-6.59,2.26,61.67,61.67,0,0,1-7.51,1.62,38.56,38.56,0,0,1-16.11-.66c-9.63-2.61-16.68-9.21-21.37-15.13a58.74,58.74,0,0,1-7-11.17,65.57,65.57,0,0,1,12.56-5.18,69.51,69.51,0,0,1,12.54-2.63A41.31,41.31,0,0,1,731.81,139.66Z"/><path class="cls-4" d="M712.42,190.8l-8.15,4c-2.05.74-4.4,1.49-7,2.14-1.28.33-2.6.63-4,.89s-2.8.43-4.24.57a42.35,42.35,0,0,1-17.72-1.66c-9.42-3.33-16-10.47-20.23-16.72A58.93,58.93,0,0,1,645,168.37s1.33-.63,3.61-1.46a80.62,80.62,0,0,1,9.31-2.72,58.48,58.48,0,0,1,12.68-1.72,47.12,47.12,0,0,1,7,.38,36.32,36.32,0,0,1,7,1.51C701.56,169.86,711,187.73,712.42,190.8Z"/><path class="cls-4" d="M894.32,62.19,881.71,74c-6.74,3.75-15.25,7-24,6.68-10-.5-18.31-5.43-24.17-10.21A58.81,58.81,0,0,1,824.24,61a65.61,65.61,0,0,1,11.18-7.72A60.12,60.12,0,0,1,847.07,48,43.74,43.74,0,0,1,861,45.87C877.18,46.21,890.38,58.07,894.32,62.19Z"/><path class="cls-4" d="M852.51,99.17l.93,1.18-.93.79c-.61.5-1.49,1.23-2.65,2a80.45,80.45,0,0,1-9.56,5.8l6.13-4.87C848.48,102.49,850.53,100.87,852.51,99.17Z"/><path class="cls-4" d="M894.32,62.19c.82.84,1.25,1.35,1.25,1.35A76,76,0,0,1,881.71,74Z"/><path class="cls-4" d="M747.42,172.71l.37.62-9.68,5.27A71,71,0,0,1,747.42,172.71Z"/><path class="cls-4" d="M842.52,109.07s.33.39.89,1.1c-4,3.11-8,6.27-12.17,9.23,1.47-1.59,2.94-3,4.27-4.27s2.54-2.39,3.58-3.28C841.16,110,842.52,109.07,842.52,109.07Z"/><path class="cls-4" d="M886.29,72.15s.45.45,1.19,1.29c-4.14,3.87-8.5,7.49-12.77,11.21a82.89,82.89,0,0,1,8-9.07C884.84,73.38,886.29,72.15,886.29,72.15Z"/><path class="cls-3" d="M717.63,513.49a113.49,113.49,0,0,1-1.41,14.23c-.56,3.61-1.08,5.81-1.08,5.81s-.63-.09-1.73-.34C714.74,526.61,716.21,520.06,717.63,513.49Z"/><path class="cls-3" d="M729.65,467.08s-.5-.09-1.38-.29c1.4-5.88,2.77-11.76,4.24-17.62-.43,5.11-1.14,9.58-1.74,12.79S729.65,467.08,729.65,467.08Z"/><path class="cls-3" d="M766.85,322.73a100,100,0,0,1-3,12.71l-.7-.17Z"/><path class="cls-3" d="M783.48,270.32l-.36-.1c1-3.06,2-6.11,3-9.16-.67,2.81-1.33,5.12-1.82,6.73S783.48,270.32,783.48,270.32Z"/><path class="cls-3" d="M777.2,290.57a97,97,0,0,1,3.61-10.16l-3.16,10.32Z"/><path class="cls-3" d="M758.51,354.37a102.2,102.2,0,0,1,4.5-13.21l-3.72,13.45Z"/><path class="cls-3" d="M726,483.27s.36-2,1.26-5.27a113,113,0,0,1,4.28-12.55c-1.35,6.06-2.77,12.1-4.07,18.17C726.5,483.41,726,483.27,726,483.27Z"/><path class="cls-3" d="M714,548.66c-1.15-.2-1.8-.37-1.8-.37A107,107,0,0,1,718,528.51Z"/><path class="cls-3" d="M783.48,270.32l-.36-.1c1-3.06,2-6.11,3-9.16-.67,2.81-1.33,5.12-1.82,6.73S783.48,270.32,783.48,270.32Z"/><path class="cls-3" d="M777.65,290.73l-.45-.15a97,97,0,0,1,3.61-10.16Z"/><path class="cls-3" d="M759.29,354.62l-.78-.25a102.2,102.2,0,0,1,4.5-13.21Z"/><path class="cls-3" d="M766.85,322.73l-3.73,12.54c-3.85-1.08-22.55-7-29.67-25.76-4-10.49-3.41-23-2-32.81a109.28,109.28,0,0,1,4.08-17,47.56,47.56,0,0,1,12.07,5.43c6.51,4,14,10.68,17.78,21.12a55.29,55.29,0,0,1,3,18.95,89.45,89.45,0,0,1-.49,9.26C767.7,317.39,767.3,320.19,766.85,322.73Z"/><path class="cls-3" d="M732.51,449.17c-1.47,5.86-2.84,11.74-4.24,17.62-5-1.23-22.65-6.55-30.32-24-4.46-10.25-4.69-22.77-3.63-32.66a117.41,117.41,0,0,1,1.94-12.33c.65-3.07,1.21-4.89,1.21-4.89a47.48,47.48,0,0,1,12.33,4.79c6.68,3.68,14.52,9.95,18.9,20.18a53.32,53.32,0,0,1,3.77,15.77A87,87,0,0,1,732.51,449.17Z"/><path class="cls-3" d="M786.1,261.06c-1,3.05-2,6.1-3,9.16-2.9-.85-22.52-7.06-29.32-26.61-3.72-10.59-2.85-23-1.09-32.85a104.76,104.76,0,0,1,2.93-12.14c.91-3,1.59-4.78,1.59-4.78a47.59,47.59,0,0,1,11.92,5.75,42.13,42.13,0,0,1,17.23,21.58c2.31,6.77,2.82,14.23,2.44,21.25A103.85,103.85,0,0,1,786.1,261.06Z"/><path class="cls-3" d="M717.63,513.49c-1.42,6.56-2.88,13.12-4.22,19.7-5.46-1.22-22.68-6.28-30.58-23.14a52.82,52.82,0,0,1-4.34-16.36,91.09,91.09,0,0,1-.15-16.19A105.68,105.68,0,0,1,680,465.11c.6-3.08,1.09-4.92,1.09-4.92a47.57,47.57,0,0,1,12.45,4.47,42.25,42.25,0,0,1,19.4,19.67C717.11,493.45,717.89,504.28,717.63,513.49Z"/><path class="cls-3" d="M797.94,348.71c-15.71,11.54-34.61,7.08-38.65,5.91L763,341.16a102.2,102.2,0,0,0-4.5,13.21l.78.25q-6.62,24.12-12.77,48.37a89.26,89.26,0,0,1,7.52-14.4,51.09,51.09,0,0,1,11.49-12.67c8.81-6.69,18.63-8.15,26.29-7.93A48.65,48.65,0,0,1,804.9,370s-.44,1.78-1.36,4.66A109.21,109.21,0,0,1,799.31,386c-3.91,8.78-9.86,19.27-18.59,26-15.1,11.64-33.47,8.16-38.17,7-1.91,7.73-3.82,15.47-5.62,23.23s-3.68,15.5-5.41,23.28c3.57-8.8,9.3-18.88,17.47-25.45,8.61-6.93,18.49-8.61,26.11-8.6a48.56,48.56,0,0,1,13.12,1.73s-.39,1.79-1.23,4.69-2.17,6.91-4,11.36a86.08,86.08,0,0,1-7.14,14,52.41,52.41,0,0,1-10.77,12.5c-14.47,11.73-32.47,9.13-37.67,8,1.3-6.07,2.72-12.11,4.07-18.17A113,113,0,0,0,727.23,478c-.89,3.24-1.26,5.27-1.26,5.27s.52.14,1.46.36L722.6,506,718,528.51a107,107,0,0,0-5.77,19.78s.65.17,1.8.37l-5.05,26.82-3.93-.74,4.12-20.79c1.38-6.93,2.86-13.84,4.28-20.76,1.09.25,1.73.34,1.73.34s.52-2.2,1.08-5.81a113.49,113.49,0,0,0,1.41-14.23l2.56-11.7,2.66-11.68,2.66-11.68,2.77-11.65c.88.2,1.38.29,1.38.29s.52-1.92,1.12-5.12,1.31-7.68,1.74-12.79q5.94-24.25,12.33-48.37c-4.52-1.19-22.59-6.81-30-24.9-4.17-10.35-4.07-22.87-2.77-32.74a109.36,109.36,0,0,1,3.6-17.14,47.64,47.64,0,0,1,12.21,5.12,42.07,42.07,0,0,1,18.36,20.65A55.29,55.29,0,0,1,749.67,369a92.55,92.55,0,0,1-.75,16.51l7-25.17,7.23-25.09.7.17a100,100,0,0,0,3-12.71c5.22-17.57,10.69-35.06,16.27-52.51l.36.1s.32-.91.8-2.53,1.16-3.92,1.82-6.73l5.17-15.75,5.31-15.7,2.66-7.85,2.73-7.83,5.46-15.65q-14,40.85-26.61,82.13a97,97,0,0,0-3.61,10.16l.45.15-7.45,25.17c-2.39,8.42-4.84,16.81-7.19,25.24a90.07,90.07,0,0,1,8.06-15.25,51.55,51.55,0,0,1,12.6-13.58c9-6.46,18.87-7.66,26.5-7.26a48.5,48.5,0,0,1,13,2.39,101.58,101.58,0,0,1-6,15.77C813.07,331.89,806.87,342.22,797.94,348.71Z"/><path class="cls-3" d="M777.65,290.73l3.16-10.32c3.91-9.58,11.38-23.54,22.63-31.25,9.17-6.22,19.09-7.17,26.7-6.57a48.6,48.6,0,0,1,12.95,2.72,104.69,104.69,0,0,1-6.42,15.61c-4.25,8.61-10.88,18.72-19.86,25C800.27,297.41,780.85,291.81,777.65,290.73Z"/><path class="cls-3" d="M714,548.66l4-20.15c3.45-8.42,8.62-17.76,16.12-24.08,8.5-7.13,18.25-9.08,25.89-9.26a48.52,48.52,0,0,1,13.15,1.4,101.59,101.59,0,0,1-4.8,16.18c-3.36,9-8.89,19.73-17.22,26.89C737.25,551.52,719.6,549.68,714,548.66Z"/><path class="cls-3" d="M727.43,483.62c-.94-.21-1.46-.36-1.46-.36s.36-2,1.26-5.27a113,113,0,0,1,4.28-12.55C730.15,471.51,728.73,477.55,727.43,483.62Z"/><path class="cls-3" d="M714,548.66c-1.15-.2-1.8-.37-1.8-.37A107,107,0,0,1,718,528.51Z"/><path class="cls-3" d="M763.82,335.44l-.7-.17,3.73-12.54A100,100,0,0,1,763.82,335.44Z"/><path class="cls-3" d="M729.65,467.08s-.5-.09-1.38-.29c1.4-5.88,2.77-11.76,4.24-17.62-.43,5.11-1.14,9.58-1.74,12.79S729.65,467.08,729.65,467.08Z"/><path class="cls-3" d="M715.13,533.53s-.63-.09-1.73-.34c1.34-6.58,2.8-13.14,4.22-19.7a113.49,113.49,0,0,1-1.41,14.23C715.66,531.33,715.13,533.53,715.13,533.53Z"/><path class="cls-4" d="M727.35,561.36a76.94,76.94,0,0,1,2.7,17s-.64.07-1.76.12Z"/><path class="cls-4" d="M726.38,520.51s-.51.06-1.41.12l-1-15.41A75.65,75.65,0,0,1,726.38,520.51Z"/><path class="cls-4" d="M716.24,393.87a72.7,72.7,0,0,1,1.56,11l-.72.08Z"/><path class="cls-4" d="M712.9,347.13l-.37,0-.68-8.18A67.59,67.59,0,0,1,712.9,347.13Z"/><path class="cls-4" d="M714.51,365.13a70.54,70.54,0,0,1-.38-9.19l.86,9.16Z"/><path class="cls-4" d="M719.18,421.6a74.41,74.41,0,0,1-.2-11.9l1,11.86Z"/><path class="cls-4" d="M727.36,534.63a78.45,78.45,0,0,1,.34-15.92l1.15,15.84Z"/><path class="cls-4" d="M732.7,591.08c-1.17.09-1.84.1-1.84.1a78.14,78.14,0,0,1,.69-17.58Z"/><path class="cls-4" d="M712.9,347.13l-.37,0-.68-8.18A67.59,67.59,0,0,1,712.9,347.13Z"/><path class="cls-4" d="M715,365.1l-.48,0a70.54,70.54,0,0,1-.38-9.19Z"/><path class="cls-4" d="M720,421.56l-.82,0a74.41,74.41,0,0,1-.2-11.9Z"/><path class="cls-4" d="M716.24,393.87l.84,11.11c-4,.36-23.57,1.42-36.72-10.91-7.34-6.9-11.31-16.66-13.43-24.71A75.94,75.94,0,0,1,664.5,355s22.72-3.15,37.48,10.63C710.42,373.51,714.42,385.27,716.24,393.87Z"/><path class="cls-4" d="M724,505.22l1,15.41c-5.19.31-23.51.45-35.87-11.46-7.25-7-11.06-16.82-13.09-24.9a76.62,76.62,0,0,1-2.23-14.41S696.57,467,711.11,481C718.16,487.79,722,497.25,724,505.22Z"/><path class="cls-4" d="M711.85,339l.68,8.18c-3,.34-23.46,2-37.14-10.61C668,329.72,664,320,661.78,311.95a77.49,77.49,0,0,1-2.54-14.36s22.71-3.3,37.55,10.36C706.31,316.72,710.26,330.34,711.85,339Z"/><path class="cls-4" d="M727.35,561.36l.95,17.13c-5.62.26-23.44,0-35.44-11.74-14.37-14.1-15-39.41-15-39.41a56.33,56.33,0,0,1,13.2.43c7.5,1.09,16.83,3.94,24,11C721.57,545.1,725.28,553.76,727.35,561.36Z"/><path class="cls-4" d="M754.37,404.82c-10.89,14.31-30.18,16.43-34.38,16.74l-1-11.86a74.41,74.41,0,0,0,.2,11.9l.82,0,3.51,42.51c.76-8.44,3.08-19.1,9.38-27.33,12.31-16,35.22-16.74,35.22-16.74a76.72,76.72,0,0,1,0,14.76c-.78,8.38-3.14,18.78-9.31,26.79-10.7,13.9-29.35,16.12-34.15,16.48l3.08,40.65c1-8.08,3.47-17.78,9.37-25.35,12.41-16,35.33-16.49,35.33-16.49s2.86,25.52-9.62,41.48c-10.55,13.49-28.62,15.82-33.92,16.22l-1.15-15.84a78.45,78.45,0,0,0-.34,15.92l1.5-.08,2.69,39a78.14,78.14,0,0,0-.69,17.58s.67,0,1.84-.1l1.47,23.24-4,.22-1.87-36c1.12,0,1.76-.12,1.76-.12a76.94,76.94,0,0,0-2.7-17L725,520.63c.9-.06,1.41-.12,1.41-.12A75.65,75.65,0,0,0,724,505.22l-2.79-42.43c-4.66.35-23.58.91-36.28-11.2-7.31-6.94-11.18-16.74-13.26-24.8a76,76,0,0,1-2.33-14.4s22.74-3,37.39,10.89c7.69,7.28,11.58,17.75,13.56,26.07L717.08,405l.72-.08a72.7,72.7,0,0,0-1.56-11l-3.71-46.7.37,0a67.59,67.59,0,0,0-1-8.14q-2.33-28.16-4.88-56.3,3.74,36.61,7.16,73.25a70.54,70.54,0,0,0,.38,9.19l.48,0,4,44.58c.5-8.71,2.56-20.53,9.35-29.5,12.18-16.13,35.1-17,35.1-17a77.72,77.72,0,0,1,.07,14.75C762.77,386.34,760.48,396.75,754.37,404.82Z"/><path class="cls-4" d="M715,365.1l-.86-9.16c.17-8.84,1.77-22.28,9.24-32.29,12.06-16.2,35-17.22,35-17.22a77.24,77.24,0,0,1,.18,14.75c-.69,8.39-2.86,18.82-8.94,26.92C738.47,362.94,718.35,364.87,715,365.1Z"/><path class="cls-4" d="M732.7,591.08l-1.15-17.48c1.17-7.72,3.75-16.6,9.31-23.63,12.5-15.88,35.44-16.25,35.44-16.25a77.69,77.69,0,0,1-.23,14.75c-.92,8.37-3.39,18.72-9.68,26.66C755.94,588.29,738.38,590.65,732.7,591.08Z"/><path class="cls-4" d="M728.85,534.55l-1.5.08a78.45,78.45,0,0,1,.34-15.92Z"/><path class="cls-4" d="M732.7,591.08c-1.17.09-1.84.1-1.84.1a78.14,78.14,0,0,1,.69-17.58Z"/><path class="cls-4" d="M717.8,404.9l-.72.08-.84-11.11A72.7,72.7,0,0,1,717.8,404.9Z"/><path class="cls-4" d="M726.38,520.51s-.51.06-1.41.12l-1-15.41A75.65,75.65,0,0,1,726.38,520.51Z"/><path class="cls-4" d="M730.06,578.37s-.64.07-1.76.12l-.95-17.13A76.94,76.94,0,0,1,730.06,578.37Z"/><path class="cls-3" d="M840.52,931.9a108.62,108.62,0,0,1,9.25,9c2.2,2.43,3.43,4,3.43,4s-.47.43-1.35,1.13l-5.7-7-2.85-3.52Z"/><path class="cls-3" d="M815.76,896.65s-.4.32-1.13.85l-2.39-3.3-2.34-3.34-4.67-6.67a91.87,91.87,0,0,1,7.69,8.69C814.75,895.18,815.76,896.65,815.76,896.65Z"/><path class="cls-3" d="M744,783.73c2,2.81,3.53,5.31,4.56,7.11l1.2,2.11.41.77-.62.37C747.61,790.66,745.82,787.18,744,783.73Z"/><path class="cls-3" d="M722.19,739.41l-.33.17-3.7-7.82A75.32,75.32,0,0,1,722.19,739.41Z"/><path class="cls-3" d="M730.6,756.49a78.23,78.23,0,0,1-3.92-8.86l4.36,8.65Z"/><path class="cls-3" d="M758.87,809.07s-.72-1.1-1.76-3.07-2.4-4.79-3.76-8.18c2.09,3.62,4.1,7.28,6.24,10.86Z"/><path class="cls-3" d="M824.64,908.62a48,48,0,0,1-2.85-3.94,91.21,91.21,0,0,1-5.94-10.33c3.34,4.46,6.63,9,10,13.39C825.09,908.31,824.64,908.62,824.64,908.62Z"/><path class="cls-3" d="M863.33,954c-.88.78-1.41,1.18-1.41,1.18s-1.41-1.54-3.44-4.2a77.33,77.33,0,0,1-7-11.06l5.88,7.09Z"/><path class="cls-3" d="M722.19,739.41l-.33.17-3.7-7.82A75.32,75.32,0,0,1,722.19,739.41Z"/><path class="cls-3" d="M731,756.29l-.43.2a78.23,78.23,0,0,1-3.92-8.86Z"/><path class="cls-3" d="M759.59,808.68l-.72.39s-.72-1.1-1.76-3.07-2.4-4.79-3.76-8.18C755.43,801.43,757.44,805.09,759.59,808.68Z"/><path class="cls-3" d="M744,783.73c1.85,3.45,3.65,6.93,5.55,10.35a55.35,55.35,0,0,1-14,5.4A40,40,0,0,1,711,798a44.41,44.41,0,0,1-13.23-8.74A70,70,0,0,1,687.94,778a100.22,100.22,0,0,1-6.11-9.81c-1.37-2.54-2.06-4.13-2.06-4.13a52.22,52.22,0,0,1,12.46-4.42c7.41-1.67,17.29-2.25,26.89,1.92a43.63,43.63,0,0,1,7.76,4.43,56.23,56.23,0,0,1,6.79,5.63,73.21,73.21,0,0,1,5.68,6.18C741.08,779.81,742.63,781.84,744,783.73Z"/><path class="cls-3" d="M805.24,884.2l4.67,6.67,2.34,3.34,2.39,3.3c-4.23,3-19.7,13-37.15,8.25a41.09,41.09,0,0,1-7.44-2.88,53.28,53.28,0,0,1-6.76-4.16,71.49,71.49,0,0,1-11.19-10,100.09,100.09,0,0,1-7.26-9c-1.7-2.35-2.58-3.88-2.58-3.88a51.74,51.74,0,0,1,11.82-5.9c7.18-2.56,16.9-4.35,26.92-1.39a49,49,0,0,1,13.47,6.6A81.6,81.6,0,0,1,805.24,884.2Z"/><path class="cls-3" d="M718.16,731.76l3.7,7.82A55.21,55.21,0,0,1,708,744.2c-7.17,1.42-16.22,1.58-24.91-2-9.39-3.88-16.46-10.86-21.22-16.09-2.37-2.69-4.18-5-5.4-6.63-.6-.86-1.08-1.48-1.39-1.95l-.47-.72s1.15-.86,3.15-2.11a66.43,66.43,0,0,1,8.3-4.43,45.07,45.07,0,0,1,11.9-3.55,31,31,0,0,1,14,1c6.18,1.95,11.61,6,16,10.49A73.24,73.24,0,0,1,718.16,731.76Z"/><path class="cls-3" d="M840.52,931.9l2.79,3.57,2.85,3.52,5.7,7c-4.39,3.49-18.93,13.87-36.32,10.32a46.67,46.67,0,0,1-14.61-6.16,72.88,72.88,0,0,1-11.77-9.33c-1.66-1.6-3.17-3.15-4.49-4.59s-2.4-2.79-3.31-3.93c-1.81-2.27-2.8-3.73-2.8-3.73A51.9,51.9,0,0,1,790,922a49.63,49.63,0,0,1,12.17-3.5,40.86,40.86,0,0,1,7.06-.43,37.87,37.87,0,0,1,7.53.91,45.43,45.43,0,0,1,12.92,5.26A69.91,69.91,0,0,1,840.52,931.9Z"/><path class="cls-3" d="M783.46,778.59c-1.92,8.81-7,15.84-12,20.9a57.68,57.68,0,0,1-11.86,9.19c-2.15-3.58-4.16-7.24-6.24-10.86,1.36,3.39,2.73,6.21,3.76,8.18s1.76,3.07,1.76,3.07l.72-.39c3.82,6.43,7.59,12.9,11.57,19.24,2,3.18,3.9,6.39,5.92,9.53l6.06,9.45A70.76,70.76,0,0,1,778.63,833a44.27,44.27,0,0,1-.42-15.67c1.77-10.17,7.89-17.86,13.46-23a54.86,54.86,0,0,1,10.69-7.75s.86,1.34,2.09,3.67a100.73,100.73,0,0,1,4.35,9.55A67.41,67.41,0,0,1,812.58,813a43.71,43.71,0,0,1,.38,14.89,39.52,39.52,0,0,1-4,11.86,48.6,48.6,0,0,1-6.38,9.31,58,58,0,0,1-11.37,10.1c3.91,6,8.06,11.81,12.1,17.71,2,2.95,4.15,5.82,6.22,8.74s4.13,5.83,6.28,8.69a66.07,66.07,0,0,1-4.68-13,47.43,47.43,0,0,1-1.2-7.15,38.79,38.79,0,0,1,.1-7.33c1.16-10.27,6.72-18.26,12-23.73a54.91,54.91,0,0,1,10.22-8.38s.92,1.3,2.28,3.55a82.82,82.82,0,0,1,4.95,9.24c.88,1.91,1.71,4,2.5,6.16a61.38,61.38,0,0,1,2.1,6.82,46.22,46.22,0,0,1,1.25,14.87c-.8,8.56-4.63,15.85-8.79,21.39a58.26,58.26,0,0,1-10.74,10.94c-3.37-4.43-6.66-8.93-10-13.39a91.21,91.21,0,0,0,5.94,10.33,48,48,0,0,0,2.85,3.94s.45-.31,1.21-.88c8.35,10.89,16.8,21.7,25.59,32.23a77.33,77.33,0,0,0,7,11.06c2,2.67,3.44,4.2,3.44,4.2s.53-.41,1.41-1.18c5.26,6.24,10.77,12.26,16.16,18.38l-3,2.67c-4.15-4.81-8.35-9.57-12.47-14.41l-6.12-7.3c-2-2.43-4.09-4.86-6.07-7.34.88-.7,1.35-1.13,1.35-1.13s-1.23-1.62-3.43-4a108.62,108.62,0,0,0-9.25-9l-6.62-8.49c-2.21-2.83-4.33-5.72-6.5-8.58-4.36-5.7-8.55-11.53-12.76-17.34.73-.53,1.13-.85,1.13-.85s-1-1.47-2.83-3.77a91.87,91.87,0,0,0-7.69-8.69L802,879.6l-3.14-4.65-6.27-9.3-6.11-9.41-3.06-4.7-3-4.75A55.29,55.29,0,0,1,766.65,853c-6.76,2-15.32,2.92-24.06-.08A46.71,46.71,0,0,1,728.84,845a76.34,76.34,0,0,1-10.53-10.71,83.78,83.78,0,0,1-6.68-9.42c-1.52-2.47-2.33-4-2.33-4a51.93,51.93,0,0,1,12.18-5.16c7.34-2.12,17.05-3.26,26.92.29a47.21,47.21,0,0,1,14,8.2A75.6,75.6,0,0,1,773,834.72c-4-6.7-8.1-13.39-12-20.19s-7.71-13.61-11.51-20.44l.62-.37-.41-.77-1.2-2.11c-1-1.8-2.57-4.3-4.56-7.11-3.93-7.23-7.58-14.61-11.34-21.93-3.6-7.4-7.28-14.77-10.76-22.22l.33-.17a75.32,75.32,0,0,0-4-7.65c-8.5-17.89-17.41-35.77-29.69-51.43a207.69,207.69,0,0,1,20.91,32.6c6.09,11.41,11.55,23.14,17.3,34.7a78.23,78.23,0,0,0,3.92,8.86l.43-.2,2.65,5.26,2.74,5.22,5.49,10.42c3.79,6.88,7.48,13.81,11.42,20.61-.85-2.13-1.7-4.48-2.46-7a69.45,69.45,0,0,1-1.78-8,42.93,42.93,0,0,1,.32-17c2.4-10.07,8.86-17.31,14.79-22.11a54.94,54.94,0,0,1,11.15-7.09l.52,1c.33.65.77,1.61,1.33,2.8a82.8,82.8,0,0,1,3.79,9.77,76,76,0,0,1,3,13.44A46.49,46.49,0,0,1,783.46,778.59Z"/><path class="cls-3" d="M731,756.29l-4.36-8.65c-3.27-8.74-6.56-22.45-3.69-35.14,2.32-10.29,8.35-18.17,13.89-23.45a53.49,53.49,0,0,1,7.42-5.9,33,33,0,0,1,3.27-1.93l.7,1.21c.44.78,1.08,1.94,1.78,3.37a87.75,87.75,0,0,1,4.74,11.49c3.09,9.24,4.91,20.45,2.16,30.27C752,745.5,734.11,754.86,731,756.29Z"/><path class="cls-3" d="M863.33,954l-6-7L851.45,940c-3.86-7.21-7-16.39-6.61-25.49.55-10.33,5.68-18.68,10.6-24.44a54.79,54.79,0,0,1,9.68-9s1,1.23,2.52,3.39a95.08,95.08,0,0,1,5.45,9,67.32,67.32,0,0,1,5.36,12.69,44.24,44.24,0,0,1,2.16,14.74,42.77,42.77,0,0,1-7.23,21.52A58,58,0,0,1,863.33,954Z"/><path class="cls-3" d="M825.86,907.74c-.77.58-1.21.88-1.21.88a48,48,0,0,1-2.85-3.94,91.21,91.21,0,0,1-5.94-10.33C819.2,898.81,822.49,903.3,825.86,907.74Z"/><path class="cls-3" d="M863.33,954c-.88.78-1.41,1.18-1.41,1.18s-1.41-1.54-3.44-4.2a77.33,77.33,0,0,1-7-11.06l5.88,7.09Z"/><path class="cls-3" d="M750.14,793.72l-.62.37c-1.91-3.42-3.7-6.91-5.55-10.35,2,2.81,3.53,5.31,4.56,7.11l1.2,2.11Z"/><path class="cls-3" d="M815.76,896.65s-.4.32-1.13.85l-2.39-3.3-2.34-3.34-4.67-6.67a91.87,91.87,0,0,1,7.69,8.69C814.75,895.18,815.76,896.65,815.76,896.65Z"/><path class="cls-3" d="M853.2,944.9s-.47.43-1.35,1.13l-5.7-7-2.85-3.52-2.79-3.57a108.62,108.62,0,0,1,9.25,9C852,943.28,853.2,944.9,853.2,944.9Z"/><path class="cls-4" d="M774.2,746.63a85.4,85.4,0,0,1-7.62,10.21c-2.19,2.39-3.68,3.75-3.68,3.75s-.48-.43-1.25-1.24C766,755.26,770,750.9,774.2,746.63Z"/><path class="cls-4" d="M803.9,716.1s-.4-.31-1.09-.89c3.49-4.07,7-8.1,10.35-12.31-1.1,2-2.2,3.86-3.27,5.47s-2.13,3-3,4.13C805.09,714.79,803.9,716.1,803.9,716.1Z"/><path class="cls-4" d="M879.62,607.51a79.14,79.14,0,0,1-5.29,10.35l-.63-.35Z"/><path class="cls-4" d="M903.28,564.73l-.34-.15c1.34-2.52,2.51-5.13,3.75-7.7-.89,2.41-1.72,4.38-2.34,5.75S903.28,564.73,903.28,564.73Z"/><path class="cls-4" d="M894.78,581.57a76.85,76.85,0,0,1,4.71-8.36l-4.29,8.6Z"/><path class="cls-4" d="M865.17,632.76a81.2,81.2,0,0,1,7.2-10.13l-6.52,10.59Z"/><path class="cls-4" d="M794.29,727.31l.85-1,2.4-2.59a90.19,90.19,0,0,1,8.62-8.09L800.81,722c-1.77,2.13-3.55,4.25-5.42,6.3C794.68,727.69,794.29,727.31,794.29,727.31Z"/><path class="cls-4" d="M754.66,771.35c-.83-.83-1.27-1.33-1.27-1.33a85.39,85.39,0,0,1,14.25-11.6Z"/><path class="cls-4" d="M903.28,564.73l-.34-.15c1.34-2.52,2.51-5.13,3.75-7.7-.89,2.41-1.72,4.38-2.34,5.75S903.28,564.73,903.28,564.73Z"/><path class="cls-4" d="M895.2,581.81l-.42-.23a76.85,76.85,0,0,1,4.71-8.36Z"/><path class="cls-4" d="M865.85,633.22l-.68-.46a81.2,81.2,0,0,1,7.2-10.13Z"/><path class="cls-4" d="M879.62,607.51l-5.92,10c-3.47-2-19.91-12.73-23.67-30.28a42.47,42.47,0,0,1-.85-7.37,48.43,48.43,0,0,1,.28-7.28,64.93,64.93,0,0,1,3-13.1,72.66,72.66,0,0,1,5.39-13.25,55.83,55.83,0,0,1,11.17,7c5.91,4.74,12.47,11.93,15,21.94a43.46,43.46,0,0,1,.2,17.27,64.42,64.42,0,0,1-1.91,8.07C881.44,603.06,880.53,605.4,879.62,607.51Z"/><path class="cls-4" d="M813.16,702.9c-3.32,4.21-6.86,8.24-10.35,12.31a59.25,59.25,0,0,1-10.11-11.48,49.11,49.11,0,0,1-5.14-9.82,40.06,40.06,0,0,1-1.71-5.71A38.2,38.2,0,0,1,785,682c-.59-10.1,3.22-19.66,6.82-27a78.27,78.27,0,0,1,5.21-8.78l1.72-2.48.65-.88a56.06,56.06,0,0,1,9.89,8.77c5.12,5.68,10.33,13.78,11.09,24a38.21,38.21,0,0,1-.2,7.41,39.85,39.85,0,0,1-1.51,7.18A68.49,68.49,0,0,1,813.16,702.9Z"/><path class="cls-4" d="M906.69,556.88c-1.25,2.57-2.41,5.18-3.75,7.7a57.26,57.26,0,0,1-12.19-8c-5.56-4.71-11.5-11.54-14.22-20.42a38.32,38.32,0,0,1-1.46-7.27c-.13-1.21-.2-2.43-.23-3.63s-.07-2.43,0-3.62a64.26,64.26,0,0,1,1.8-13.32c1-3.95,2-7.39,2.83-9.8s1.47-3.83,1.47-3.83a56,56,0,0,1,11.72,6.08,49.14,49.14,0,0,1,9.51,8.24,35,35,0,0,1,7.21,12.36,46.14,46.14,0,0,1,1.49,19.22A78,78,0,0,1,906.69,556.88Z"/><path class="cls-4" d="M774.2,746.63c-4.16,4.26-8.22,8.62-12.55,12.72a58.85,58.85,0,0,1-9.09-12.41,49.81,49.81,0,0,1-4.17-10.07,38.93,38.93,0,0,1-1.59-11.9,42.82,42.82,0,0,1,3.08-14.28,64.6,64.6,0,0,1,6-12.07c2.16-3.47,4.35-6.28,5.88-8.34s2.62-3.17,2.62-3.17a56,56,0,0,1,9.13,9.55c4.58,6,9.3,14.7,9.13,24.88A42.1,42.1,0,0,1,780,735c-.38,1.07-.79,2.13-1.23,3.16s-.94,2-1.44,3C776.37,743.06,775.3,744.9,774.2,746.63Z"/><path class="cls-4" d="M904,639.3c-18,6.16-34.58-3.86-38.16-6.08l6.52-10.59a81.2,81.2,0,0,0-7.2,10.13l.68.46q-11.77,18.92-24.72,37.09a74,74,0,0,1,11.15-9.46,67.79,67.79,0,0,1,6.73-4.07,41.35,41.35,0,0,1,7.39-3c10-2.9,19.79-1.12,26.93,1.37A51.75,51.75,0,0,1,905.18,661s-.88,1.54-2.54,3.95a101.16,101.16,0,0,1-7.34,9c-1.57,1.71-3.29,3.47-5.16,5.19-.93.86-1.9,1.71-2.9,2.54s-2.08,1.6-3.17,2.36a46.64,46.64,0,0,1-14.3,7A34.61,34.61,0,0,1,857,692a44.73,44.73,0,0,1-11.08-2.64,55.5,55.5,0,0,1-13.38-7.26l-6.36,8.55c-2.12,2.85-4.38,5.59-6.57,8.39L813,707.45c-1.09,1.41-2.23,2.76-3.38,4.12l-3.43,4.08c6.69-5.3,15.21-11.17,25-13.1a39.91,39.91,0,0,1,7.54-.75,41,41,0,0,1,7,.54A49.89,49.89,0,0,1,857.86,706a51.79,51.79,0,0,1,11.35,6.77s-1,1.45-2.86,3.72c-.92,1.13-2.06,2.46-3.37,3.91s-2.9,3-4.6,4.54a78.53,78.53,0,0,1-12,9.15,44.39,44.39,0,0,1-7.16,3.56,40.92,40.92,0,0,1-7.68,2.23,38.83,38.83,0,0,1-23.17-3.29,55.8,55.8,0,0,1-12.95-8.28c1.87-2,3.64-4.17,5.42-6.3l5.34-6.36a90.19,90.19,0,0,0-8.62,8.09l-2.4,2.59-.85,1s.39.37,1.11,1L788.59,736l-3.41,3.82c-1.13,1.28-2.26,2.55-3.45,3.78l-14.09,14.85A85.39,85.39,0,0,0,753.39,770s.44.51,1.27,1.33c-1.42,1.45-2.9,2.84-4.39,4.22l-4.44,4.17-8.89,8.33-2.68-3,13.86-12.7c2.34-2.08,4.54-4.32,6.79-6.49l6.74-6.55c.77.81,1.25,1.24,1.25,1.24s1.49-1.36,3.68-3.75a85.4,85.4,0,0,0,7.62-10.21c2.45-2.55,5-5.07,7.37-7.66l7.16-7.85c2.38-2.62,4.79-5.22,7.15-7.86l6.93-8.06c.69.58,1.09.89,1.09.89s1.2-1.31,3-3.6c.89-1.15,1.92-2.54,3-4.13s2.17-3.47,3.27-5.47l7-8.61c1.15-1.44,2.34-2.86,3.47-4.32l3.36-4.41c4.44-5.9,9.05-11.68,13.27-17.75-3.82-2.68-18.58-14.57-20.75-31.86a43.62,43.62,0,0,1,.59-14.68,79.39,79.39,0,0,1,4-12.84,72.68,72.68,0,0,1,6.55-12.73,55.79,55.79,0,0,1,10.55,7.92c5.49,5.2,11.42,12.9,13,23a36.31,36.31,0,0,1,.38,8,49.75,49.75,0,0,1-1.21,7.8,69.45,69.45,0,0,1-5,13.89q6.53-9.58,13-19.24l6.19-9.81,3.1-4.9c1-1.64,2.08-3.26,3-4.94l.63.35a79.14,79.14,0,0,0,5.29-10.35c8.3-14,15.95-28.4,23.32-42.93l.34.15s.42-.75,1.07-2.1,1.46-3.34,2.34-5.75L913,543.57c2-4.48,4-9,6-13.48l3-6.75,2.78-6.83,5.55-13.67a740.82,740.82,0,0,1-30.83,70.35,76.85,76.85,0,0,0-4.71,8.36l.42.23c-3.68,6.87-7.34,13.75-11.08,20.58l-5.83,10.13-2.92,5.07-1.46,2.53-1.53,2.49c1.47-1.75,3.06-3.65,4.83-5.56a70.42,70.42,0,0,1,5.86-5.64,55.52,55.52,0,0,1,6.88-5,46.83,46.83,0,0,1,7.7-3.91c9.72-3.73,19.55-2.76,26.93-.81a52,52,0,0,1,12.3,4.88,94.14,94.14,0,0,1-8.81,13.72,66.81,66.81,0,0,1-10.44,10.93A45.52,45.52,0,0,1,904,639.3Z"/><path class="cls-4" d="M895.2,581.81l4.29-8.6c1.24-1.94,2.73-4.09,4.44-6.31.85-1.11,1.77-2.23,2.73-3.36s1.92-2.28,3-3.4a49.41,49.41,0,0,1,15.1-11.4c9.36-4.5,19.19-4.36,26.7-3a51.9,51.9,0,0,1,12.65,3.86s-.65,1.65-1.92,4.29A88.64,88.64,0,0,1,956.46,564a78.83,78.83,0,0,1-9.55,11.73,51,51,0,0,1-6,5.19,41.13,41.13,0,0,1-7,4c-8.93,4-17.86,3.55-24.93,2A54.26,54.26,0,0,1,895.2,581.81Z"/><path class="cls-4" d="M754.66,771.35l13-12.94A71.65,71.65,0,0,1,779,752a47.65,47.65,0,0,1,13.21-3.72c10.3-1.34,19.6,1.93,26.3,5.58a51.89,51.89,0,0,1,10.78,7.67,94.08,94.08,0,0,1-11.77,11.28A76.36,76.36,0,0,1,804.7,781a42.86,42.86,0,0,1-15.21,4.62C771.83,787.23,758.7,775.36,754.66,771.35Z"/><path class="cls-4" d="M795.4,728.32c-.72-.64-1.11-1-1.11-1l.85-1,2.4-2.59a90.19,90.19,0,0,1,8.62-8.09L800.81,722C799,724.15,797.26,726.28,795.4,728.32Z"/><path class="cls-4" d="M754.66,771.35c-.83-.83-1.27-1.33-1.27-1.33a85.39,85.39,0,0,1,14.25-11.6Z"/><path class="cls-4" d="M874.34,617.86l-.63-.35,5.92-10A79.14,79.14,0,0,1,874.34,617.86Z"/><path class="cls-4" d="M803.9,716.1s-.4-.31-1.09-.89c3.49-4.07,7-8.1,10.35-12.31-1.1,2-2.2,3.86-3.27,5.47s-2.13,3-3,4.13C805.09,714.79,803.9,716.1,803.9,716.1Z"/><path class="cls-4" d="M762.9,760.59s-.48-.43-1.25-1.24c4.33-4.1,8.39-8.46,12.55-12.72a85.4,85.4,0,0,1-7.62,10.21C764.39,759.24,762.9,760.59,762.9,760.59Z"/><path class="cls-3" d="M768.72,543.43c-1.07-.85-2.1-1.7-3.07-2.53l-2.86-2.35c-1.8-1.52-3.37-2.93-4.65-4.15-2.57-2.43-4-4.07-4-4.07s.43-.48,1.24-1.25l6.76,7.11,3.38,3.55C766.6,540.94,767.64,542.2,768.72,543.43Z"/><path class="cls-3" d="M796.67,580.68s.4-.32,1.12-.85c3.55,4.68,6.75,9.61,10.09,14.45a113.89,113.89,0,0,1-8.12-9.54C797.77,582.27,796.67,580.68,796.67,580.68Z"/><path class="cls-3" d="M870.09,705.17c-2-3.13-3.55-5.9-4.62-7.87s-1.62-3.18-1.62-3.18l.63-.35Q867.33,699.45,870.09,705.17Z"/><path class="cls-3" d="M892.71,753.5l.33-.17,4,8.47C894.2,756.93,892.71,753.5,892.71,753.5Z"/><path class="cls-3" d="M883.81,734.94a91.38,91.38,0,0,1,4.13,9.62l-4.57-9.42Z"/><path class="cls-3" d="M855.12,677.16s.7,1.24,1.76,3.4a89.15,89.15,0,0,1,3.76,9l-3.09-6-3.17-6Z"/><path class="cls-3" d="M787,567.84l.89,1.08a37.76,37.76,0,0,1,2.27,3.11,105.94,105.94,0,0,1,6.55,11.06l-5.41-7.21c-1.82-2.39-3.56-4.84-5.5-7.14C786.51,568.16,787,567.84,787,567.84Z"/><path class="cls-3" d="M742.3,521.55c.78-.87,1.26-1.34,1.26-1.34s1.69,1.49,4.2,4.09c1.24,1.32,2.75,2.85,4.22,4.74s3,4,4.53,6.35c-2.32-2.35-4.57-4.79-7-7.08Z"/><path class="cls-3" d="M892.71,753.5l.33-.17,4,8.47C894.2,756.93,892.71,753.5,892.71,753.5Z"/><path class="cls-3" d="M883.37,735.14l.44-.2a91.38,91.38,0,0,1,4.13,9.62Z"/><path class="cls-3" d="M854.38,677.52l.74-.36s.7,1.24,1.76,3.4a89.15,89.15,0,0,1,3.76,9l-3.09-6Z"/><path class="cls-3" d="M870.09,705.17q-2.75-5.72-5.61-11.39a51.75,51.75,0,0,1,14.22-4.71,44.34,44.34,0,0,1,11.79-.53,37.82,37.82,0,0,1,13.07,3.65c9.94,4.84,17.81,14,23.24,22a100.72,100.72,0,0,1,8.28,14.61s-20.13,11-39.7,1.37C884.15,724.63,875.51,713.57,870.09,705.17Z"/><path class="cls-3" d="M807.88,594.28c-3.33-4.83-6.53-9.76-10.09-14.45a50.8,50.8,0,0,1,13.74-6.88,37.94,37.94,0,0,1,24.28,0,45.66,45.66,0,0,1,7.83,3.59,52.92,52.92,0,0,1,7.1,4.95,86.55,86.55,0,0,1,11.76,11.61,111.74,111.74,0,0,1,10.2,14.57A47.8,47.8,0,0,1,860.56,613c-7.37,2.15-17.32,3.28-27.57-.61a54.37,54.37,0,0,1-7.24-3.45,60,60,0,0,1-6.66-4.46,75.65,75.65,0,0,1-5.92-5.07C811.28,597.7,809.5,596,807.88,594.28Z"/><path class="cls-3" d="M897,761.79l-4-8.47a51.37,51.37,0,0,1,13.92-4.45c7.25-1.21,16.41-1.21,25.55,3.65a48.2,48.2,0,0,1,13.29,10.95,81,81,0,0,1,9.81,14.29,99.43,99.43,0,0,1,5.78,12.76c.63,1.68,1.09,3,1.39,4l.45,1.49a29.68,29.68,0,0,1-3.64,1.05,49,49,0,0,1-9.42,1.21A48,48,0,0,1,923,791.22a66.32,66.32,0,0,1-15.65-14.29A112.66,112.66,0,0,1,897,761.79Z"/><path class="cls-3" d="M768.72,543.43c-1.08-1.23-2.12-2.49-3.24-3.69l-3.38-3.55-6.76-7.11a49.27,49.27,0,0,1,12.7-8.75,38,38,0,0,1,23.88-3.16A53.85,53.85,0,0,1,808.06,524c1.27.77,2.53,1.58,3.74,2.42s2.31,1.74,3.42,2.64c2.21,1.79,4.29,3.63,6.19,5.43s3.63,3.55,5.15,5.16,2.72,3.15,3.76,4.42c2,2.56,3.18,4.19,3.18,4.19a47,47,0,0,1-11.5,6.55A47.62,47.62,0,0,1,809.58,558a45,45,0,0,1-7.29.22,41.35,41.35,0,0,1-7.89-1.14,53.4,53.4,0,0,1-13.75-5.73A82.12,82.12,0,0,1,768.72,543.43Z"/><path class="cls-3" d="M829.85,707.68a38.93,38.93,0,0,1,5-12.32,46.57,46.57,0,0,1,7.34-9,53.48,53.48,0,0,1,12.18-8.82l3.17,6,3.09,6a89.15,89.15,0,0,0-3.76-9c-1.05-2.16-1.76-3.4-1.76-3.4l-.74.36L848.7,666.8l-5.86-10.62c-3.84-7.12-8-14-12-21.06a83.58,83.58,0,0,1,4.47,15.1,47.9,47.9,0,0,1,.24,16.64,36.09,36.09,0,0,1-2.16,7.41,38.81,38.81,0,0,1-3.38,6.35,46.65,46.65,0,0,1-8.41,9.55,50.67,50.67,0,0,1-11,7.38s-.86-1.51-2.09-4.11c-.61-1.3-1.32-2.87-2.05-4.65s-1.54-3.72-2.3-5.86a84,84,0,0,1-3.71-14.33,48,48,0,0,1-.2-15.72c2.86-18,18.14-28.86,22.28-31.36-1-1.64-2-3.3-3-4.93l-3.16-4.85L810,602c-2.17-3.19-4.4-6.34-6.6-9.51s-4.35-6.37-6.72-9.42c.52,1,1,2.08,1.54,3.17s.93,2.26,1.36,3.42a71.67,71.67,0,0,1,2.28,7.25,53.93,53.93,0,0,1,1.39,7.56,38.53,38.53,0,0,1,0,7.7c-1.12,10.75-6.77,18.71-12.18,24.11a51.55,51.55,0,0,1-10.44,8.13l-.63-1-1.68-2.8a94.8,94.8,0,0,1-9.71-23.36,53.71,53.71,0,0,1-1.3-7.6,44.71,44.71,0,0,1-.2-7.72,44.05,44.05,0,0,1,8.25-22,55.45,55.45,0,0,1,10.42-11.23c1.94,2.3,3.68,4.75,5.5,7.14l5.41,7.21A105.94,105.94,0,0,0,790.12,572a37.76,37.76,0,0,0-2.27-3.11l-.89-1.08s-.44.31-1.2.9l-7-8.61c-1.18-1.43-2.31-2.89-3.53-4.28l-3.68-4.15-7.35-8.31c-2.5-2.73-5.13-5.32-7.68-8-1.52-2.32-3.06-4.45-4.53-6.35s-3-3.42-4.22-4.74c-2.51-2.61-4.2-4.09-4.2-4.09s-.48.46-1.26,1.34l-4.82-4.5c-1.61-1.49-3.35-2.84-5-4.27l-10.1-8.47,2.5-3.12,7.85,6.72,3.92,3.36c1.3,1.13,2.64,2.21,3.86,3.43l7.48,7.12c2.48,2.39,5,4.7,7.35,7.24-.81.77-1.24,1.25-1.24,1.25s1.46,1.64,4,4.07c1.29,1.22,2.85,2.63,4.65,4.15l2.86,2.35c1,.84,2,1.68,3.07,2.53l7.64,8.81,1.91,2.2,1.81,2.28,3.63,4.56,3.63,4.56c1.19,1.53,2.46,3,3.58,4.6l6.89,9.39c-.73.53-1.12.85-1.12.85s1.1,1.59,3.09,4.05a113.89,113.89,0,0,0,8.12,9.54l3.42,5c1.13,1.68,2.18,3.4,3.28,5.1l6.51,10.23c2.15,3.42,4.17,6.92,6.26,10.38s4.2,6.91,6.15,10.45c4.05-2.31,20.77-11.2,38.75-3.46,10.14,4.48,18.74,13.62,24.44,21.6A99.16,99.16,0,0,1,903.35,664c1.49,2.7,2.28,4.4,2.28,4.4A48.61,48.61,0,0,1,893.22,673a42.78,42.78,0,0,1-27.36-2.31,54.14,54.14,0,0,1-14.12-9.8,87.17,87.17,0,0,1-10.67-12c8.06,14.86,16,29.8,23.41,45l-.63.35s.55,1.2,1.62,3.18,2.62,4.74,4.62,7.87c7.83,16,15.36,32.08,22.95,48.16l-.33.17s1.5,3.44,4.28,8.3c9,19.43,17.58,39.25,22.73,60.11a267.06,267.06,0,0,0-14-39.43c-5.56-12.8-11.73-25.33-17.8-37.91a91.38,91.38,0,0,0-4.13-9.62l-.44.2c-3.75-7.62-7.42-15.27-11.23-22.86l-5.68-11.4-5.8-11.33c3.41,9.3,6.53,22.51,3.93,34.29-2.37,10.63-8.86,18.1-14.77,22.93a49.85,49.85,0,0,1-11.21,7,96.42,96.42,0,0,1-6.07-15.27C829.77,729.64,827.62,718.13,829.85,707.68Z"/><path class="cls-3" d="M883.37,735.14l4.57,9.42c3.45,9.4,7.53,24.35,4.07,37.18-2.78,10.38-9.9,17.21-16.14,21.49a56.6,56.6,0,0,1-8.21,4.65c-2.15,1-3.5,1.46-3.5,1.46l-.42-1c-.27-.66-.65-1.63-1.09-2.84-.89-2.45-2.05-5.94-3.15-10.14-2.14-8.36-4.14-19.8-1.75-30.46C862.19,745.52,880.29,736.52,883.37,735.14Z"/><path class="cls-3" d="M742.3,521.55l7.26,6.77c2.39,2.29,4.63,4.72,7,7.08,1.2,1.84,2.39,3.8,3.49,5.85.55,1,1.09,2.06,1.59,3.13s.91,2.21,1.33,3.34a45,45,0,0,1,2.89,13.94,30.76,30.76,0,0,1-.71,7.64,37.81,37.81,0,0,1-2.15,6.82,45.79,45.79,0,0,1-6.54,10.83,52.52,52.52,0,0,1-9.45,9.22s-1.07-1.22-2.65-3.38c-.79-1.08-1.71-2.39-2.7-3.9-.49-.76-1-1.56-1.51-2.41s-1.09-1.67-1.64-2.57a68.64,68.64,0,0,1-6.1-12.52,45.78,45.78,0,0,1-3.42-14.6,40.18,40.18,0,0,1,.16-6.29,41.13,41.13,0,0,1,.93-5.8,49.43,49.43,0,0,1,3.69-10.3A56.57,56.57,0,0,1,742.3,521.55Z"/><path class="cls-3" d="M785.76,568.75c.76-.59,1.2-.9,1.2-.9l.89,1.08a37.76,37.76,0,0,1,2.27,3.11,105.94,105.94,0,0,1,6.55,11.06l-5.41-7.21C789.44,573.49,787.7,571,785.76,568.75Z"/><path class="cls-3" d="M742.3,521.55c.78-.87,1.26-1.34,1.26-1.34s1.69,1.49,4.2,4.09c1.24,1.32,2.75,2.85,4.22,4.74s3,4,4.53,6.35c-2.32-2.35-4.57-4.79-7-7.08Z"/><path class="cls-3" d="M863.85,694.13l.63-.35q2.85,5.67,5.61,11.39c-2-3.13-3.55-5.9-4.62-7.87S863.85,694.13,863.85,694.13Z"/><path class="cls-3" d="M796.67,580.68s.4-.32,1.12-.85c3.55,4.68,6.75,9.61,10.09,14.45a113.89,113.89,0,0,1-8.12-9.54C797.77,582.27,796.67,580.68,796.67,580.68Z"/><path class="cls-3" d="M754.1,530.32s.43-.48,1.24-1.25l6.76,7.11,3.38,3.55c1.11,1.2,2.15,2.46,3.24,3.69-1.07-.85-2.1-1.7-3.07-2.53l-2.86-2.35c-1.8-1.52-3.37-2.93-4.65-4.15C755.56,532,754.1,530.32,754.1,530.32Z"/></svg>