<svg id="Layer_1" data-name="Layer 1" xmlns="http://www.w3.org/2000/svg" viewBox="0 0 1000 1000"><defs><style>.cls-1{fill:#d3d3d3;}.cls-2{fill:#e6e6e6;}.cls-3{fill:#fbb72a;}.cls-4{fill:#001f40;}</style></defs><title>daunKiri</title><path class="cls-1" d="M177.6,949c51.82-23.13,89.88-59.53,100.06-118.74a123.71,123.71,0,0,0,1.08-32.66s0,0,0,0c-2-21.27-8.51-41.56-14.32-61.62-10.65-36.72-18.92-72.67,7.37-112.45,19.34-29.27,3.13-83.9-23.05-138.58q-2.9-6.08-6-12.13c-19.8-39.3-43.8-77.66-62.4-105.62-17.52-26.31-30.27-43.41-30.27-43.41S127,379.87,97.1,459.5C81.53,501,64.15,548.82,47.26,598.43,30.21,648.49,13.66,700.35,0,749.27Z"/><path class="cls-2" d="M0,30.17S531.44,158.85,258,313.95s1.38,214.29-51,348.48S0,931,0,931Z"/><path class="cls-3" d="M38.37,918.45a115.46,115.46,0,0,1-1.53,14.15c-.49,3.6-1,5.8-1,5.8s-.64-.08-1.73-.32C35.27,931.48,36.93,925,38.37,918.45Z"/><path class="cls-3" d="M52,872.72s-.5-.12-1.36-.37l2.59-8.65c.83-2.89,1.86-5.72,2.78-8.58-.4,2.52-.87,4.87-1.35,7s-.85,4-1.25,5.59C52.62,870.84,52,872.72,52,872.72Z"/><path class="cls-3" d="M104,734a98.91,98.91,0,0,1-4.71,12.11l-.67-.27Z"/><path class="cls-3" d="M127.73,684.67l-.34-.15c1.38-2.88,2.81-5.73,4.22-8.6-1,2.67-2,4.86-2.73,6.37S127.73,684.67,127.73,684.67Z"/><path class="cls-3" d="M118.7,703.73a96,96,0,0,1,5-9.5l-4.56,9.71Z"/><path class="cls-3" d="M91.62,764.05a101.08,101.08,0,0,1,6.15-12.44l-5.4,12.79Z"/><path class="cls-3" d="M47.49,888.6l.34-1.4c.23-.9.58-2.2,1.14-3.78a111.57,111.57,0,0,1,5-12.21l-2.56,8.89c-.85,3-1.74,5.92-2.45,8.92C48,888.76,47.49,888.6,47.49,888.6Z"/><path class="cls-3" d="M35,953.44c-1.16-.17-1.81-.32-1.81-.32a105.55,105.55,0,0,1,5.38-19.75Z"/><path class="cls-3" d="M127.73,684.67l-.34-.15c1.38-2.88,2.81-5.73,4.22-8.6-1,2.67-2,4.86-2.73,6.37S127.73,684.67,127.73,684.67Z"/><path class="cls-3" d="M119.13,703.94l-.43-.22a96,96,0,0,1,5-9.5Z"/><path class="cls-3" d="M92.37,764.4l-.74-.34a101.08,101.08,0,0,1,6.15-12.44Z"/><path class="cls-3" d="M104,734l-5.38,11.85c-3.67-1.6-21.42-9.94-25.9-29.54a50.83,50.83,0,0,1-.67-16.9,90.12,90.12,0,0,1,3.32-15.85,108.13,108.13,0,0,1,6.41-16.19A47.8,47.8,0,0,1,93,674.4c5.88,4.9,12.33,12.52,14.65,23.35a55.21,55.21,0,0,1,.39,19.12,87,87,0,0,1-1.77,9.06C105.61,728.82,104.83,731.52,104,734Z"/><path class="cls-3" d="M56,855.12c-.92,2.86-1.95,5.69-2.78,8.58l-2.59,8.65a50.3,50.3,0,0,1-13.79-6.76,42.32,42.32,0,0,1-8.43-7.77,37.93,37.93,0,0,1-3.65-5.29,37.51,37.51,0,0,1-2.78-6.3,53.88,53.88,0,0,1-2.48-17.08c0-1.46,0-2.91.12-4.34s.25-2.83.42-4.21c.34-2.76.8-5.43,1.31-7.93a122.78,122.78,0,0,1,3.21-12.39c.48-1.54,1-2.73,1.26-3.56l.51-1.28a47,47,0,0,1,11.75,6.08,43.23,43.23,0,0,1,16.77,22.1,55.26,55.26,0,0,1,2.3,16A87.3,87.3,0,0,1,56,855.12Z"/><path class="cls-3" d="M131.61,675.92c-1.4,2.87-2.84,5.72-4.22,8.6-2.76-1.25-21.28-10.19-25.34-30.37-2.21-10.94.27-23,3.28-32.34a109.76,109.76,0,0,1,4.41-11.44c1.26-2.8,2.15-4.45,2.15-4.45s21.09,9,25.4,30.74c1.39,7,.89,14.39-.42,21.26A102.22,102.22,0,0,1,131.61,675.92Z"/><path class="cls-3" d="M38.37,918.45c-1.44,6.53-3.1,13-4.23,19.63a49.8,49.8,0,0,1-14.45-5.59,40.72,40.72,0,0,1-8.91-6.93,37.2,37.2,0,0,1-7.2-10.82,54,54,0,0,1-4-17A96.27,96.27,0,0,1,.13,881c.3-2.57.66-5,1-7.15s.87-4,1.25-5.63c.8-3.15,1.42-5,1.42-5A46.64,46.64,0,0,1,16,868.34a43.79,43.79,0,0,1,18.39,20.8,52.41,52.41,0,0,1,3.51,14.71q.19,1.88.28,3.74c.09,1.25.17,2.49.21,3.72C38.49,913.76,38.47,916.16,38.37,918.45Z"/><path class="cls-3" d="M131.37,763.77c-17,9.13-35.15,2.32-39,.63l5.4-12.79a101.08,101.08,0,0,0-6.15,12.44l.74.34c-3.29,7.61-6.28,15.34-9.39,23l-2.31,5.77c-.77,1.92-1.47,3.87-2.21,5.81l-4.38,11.63a87.66,87.66,0,0,1,9-13.38A49.64,49.64,0,0,1,96,786.17a37.44,37.44,0,0,1,14.21-4.72,45.83,45.83,0,0,1,12.77.31,49.38,49.38,0,0,1,12.7,3.74s-.65,1.67-1.92,4.35a105.11,105.11,0,0,1-5.44,10.38c-1.2,2-2.56,4.1-4.05,6.19s-3.16,4.19-4.88,6.21a49.88,49.88,0,0,1-12.22,10.55,42.6,42.6,0,0,1-23.61,5.63,52.7,52.7,0,0,1-15-2.82l-3.92,11.21c-.67,1.86-1.28,3.75-1.87,5.63l-1.81,5.65L57.32,859.8l-.9,2.83-.82,2.85-1.64,5.7c1-2.12,2.18-4.32,3.46-6.51a59.46,59.46,0,0,1,4.4-6.44,49.21,49.21,0,0,1,11.3-10.88A36.08,36.08,0,0,1,87,841.83a45.85,45.85,0,0,1,12.76-.41,49.73,49.73,0,0,1,12.88,3s-.53,1.68-1.61,4.38-2.75,6.41-4.79,10.51a80,80,0,0,1-8,12.76c-.81,1.05-1.68,2.08-2.55,3.09s-1.75,2-2.69,2.95a43.12,43.12,0,0,1-6.12,5.18,43,43,0,0,1-22.69,7.25A53.21,53.21,0,0,1,48.93,889c.72-3,1.6-6,2.45-8.92l2.56-8.89a111.57,111.57,0,0,0-5,12.21c-.55,1.58-.91,2.88-1.14,3.78l-.34,1.4s.51.17,1.44.42l-2.8,11-1.4,5.52c-.46,1.84-1,3.67-1.33,5.54-1.6,7.42-3.25,14.83-4.8,22.26a105.55,105.55,0,0,0-5.38,19.75s.65.15,1.81.32c-.19,1.11-.41,2.22-.58,3.34L34,960.13l-.92,6.71-1.84,13.41-4-.48,3.09-20.91c.45-3.49,1.21-6.94,1.84-10.4l2-10.38c1.1.24,1.73.32,1.73.32s.48-2.2,1-5.8a115.46,115.46,0,0,0,1.53-14.15c.91-3.87,1.72-7.77,2.7-11.62l3.05-11.53c1-3.84,2-7.7,3.09-11.52l3.42-11.43c.86.25,1.36.37,1.36.37s.62-1.88,1.41-5c.39-1.57.83-3.46,1.25-5.59s.95-4.46,1.35-7c2.64-7.85,5.1-15.77,8-23.52s5.54-15.61,8.62-23.3c-4.35-1.68-21.77-9.12-27.06-28.18a52.94,52.94,0,0,1-1.34-17,83.74,83.74,0,0,1,1-8.42c.46-2.73,1.1-5.3,1.74-7.74a111.3,111.3,0,0,1,5.87-16.68A47.52,47.52,0,0,1,64.27,737c6,4.72,12.76,12.15,15.49,22.91a46.68,46.68,0,0,1,1.3,8.66,63.33,63.33,0,0,1,0,8.82,91.59,91.59,0,0,1-2.72,16.23l9.94-24c3.47-7.93,6.86-15.9,10.4-23.81l.67.27A98.91,98.91,0,0,0,104,734c7.54-16.6,15.41-33,23.35-49.44l.34.15s.44-.85,1.14-2.38,1.69-3.7,2.73-6.37c9.66-19.75,19.58-39.37,29.45-59-12.63,25.69-25.21,51.41-37.38,77.32a96,96,0,0,0-5,9.5l.43.22-10.85,23.75c-3.5,8-7.06,15.91-10.5,23.9a87.57,87.57,0,0,1,10-13.93A50.3,50.3,0,0,1,122.11,726c9.8-5.09,19.72-4.86,27.21-3.37a48.88,48.88,0,0,1,12.53,4.22,99.42,99.42,0,0,1-8.07,14.62,92,92,0,0,1-9.53,12.18A51,51,0,0,1,131.37,763.77Z"/><path class="cls-3" d="M119.13,703.94l4.56-9.71c5.21-8.87,14.52-21.57,26.73-27.6,9.92-4.87,19.87-4.46,27.34-2.84a48.57,48.57,0,0,1,12.46,4.45,104.19,104.19,0,0,1-8.53,14.65c-5.41,7.91-13.41,17-23.16,21.92C140.57,713.76,122.14,705.46,119.13,703.94Z"/><path class="cls-3" d="M35,953.44l3.57-20.07a76.29,76.29,0,0,1,6.63-12.66,54.69,54.69,0,0,1,4.41-5.86,35.24,35.24,0,0,1,5.26-5c8.72-6.74,18.5-8.18,26.11-8a50.11,50.11,0,0,1,13.06,2,90.19,90.19,0,0,1-5.14,15.12,82,82,0,0,1-6.71,13.2,55.51,55.51,0,0,1-10.33,12C58.41,955.5,40.65,954.33,35,953.44Z"/><path class="cls-3" d="M48.93,889c-.93-.25-1.44-.42-1.44-.42l.34-1.4c.23-.9.58-2.2,1.14-3.78a111.57,111.57,0,0,1,5-12.21l-2.56,8.89C50.53,883.06,49.65,886,48.93,889Z"/><path class="cls-3" d="M35,953.44c-1.16-.17-1.81-.32-1.81-.32a105.55,105.55,0,0,1,5.38-19.75Z"/><path class="cls-3" d="M99.33,746.08l-.67-.27L104,734A98.91,98.91,0,0,1,99.33,746.08Z"/><path class="cls-3" d="M52,872.72s-.5-.12-1.36-.37l2.59-8.65c.83-2.89,1.86-5.72,2.78-8.58-.4,2.52-.87,4.87-1.35,7s-.85,4-1.25,5.59C52.62,870.84,52,872.72,52,872.72Z"/><path class="cls-3" d="M35.87,938.4s-.64-.08-1.73-.32c1.13-6.6,2.78-13.09,4.23-19.63a115.46,115.46,0,0,1-1.53,14.15C36.36,936.2,35.87,938.4,35.87,938.4Z"/><path class="cls-3" d="M122.47,580.49a96.08,96.08,0,0,1,5.34,11.83c1.23,3.07,1.82,5,1.82,5s-.6.24-1.66.57C125.94,592.17,124.27,586.31,122.47,580.49Z"/><path class="cls-3" d="M112.41,538.21s-.49.15-1.36.36c-1.29-5.32-2.64-10.63-3.72-16,.89,2.15,1.6,4.22,2.25,6.09s1.21,3.54,1.63,5C112,536.45,112.41,538.21,112.41,538.21Z"/><path class="cls-3" d="M90.81,405.07a82.1,82.1,0,0,1,1.5,11.74l-.72.08Z"/><path class="cls-3" d="M89.63,355.28h-.37c-.07-2.91.06-5.82.1-8.72.19,2.61.24,4.79.24,6.31S89.63,355.28,89.63,355.28Z"/><path class="cls-3" d="M89.95,374.48a79.61,79.61,0,0,1,.28-9.77l.2,9.76Z"/><path class="cls-3" d="M94.09,434.53a83.81,83.81,0,0,1-.53-12.62l1.34,12.56Z"/><path class="cls-3" d="M116.18,552.77l-.37-1.26c-.22-.82-.56-2-.84-3.49a92.79,92.79,0,0,1-1.6-11.91l2.08,8.16c.69,2.72,1.38,5.44,2.18,8.13C116.7,552.65,116.18,552.77,116.18,552.77Z"/><path class="cls-3" d="M135.83,609.61c-1.09.41-1.74.61-1.74.61a87.74,87.74,0,0,1-4.4-18.13Z"/><path class="cls-3" d="M89.63,355.28h-.37c-.07-2.91.06-5.82.1-8.72.19,2.61.24,4.79.24,6.31S89.63,355.28,89.63,355.28Z"/><path class="cls-3" d="M90.43,374.48h-.48a79.61,79.61,0,0,1,.28-9.77Z"/><path class="cls-3" d="M94.91,434.47l-.82.06a83.81,83.81,0,0,1-.53-12.62Z"/><path class="cls-3" d="M90.81,405.07l.79,11.83c-4,.32-23.55,1.66-36.69-12.45A38.29,38.29,0,0,1,50.05,398a55.06,55.06,0,0,1-3.56-7.24A80.11,80.11,0,0,1,42.21,376a97,97,0,0,1-1.43-16.49,51.08,51.08,0,0,1,13.16,1.35c7.44,1.7,16.6,5.42,23.47,13.34a50.43,50.43,0,0,1,9.05,15.4A79.45,79.45,0,0,1,89,397.65C89.79,400.27,90.37,402.78,90.81,405.07Z"/><path class="cls-3" d="M107.32,522.57c1.08,5.37,2.43,10.68,3.72,16a54.79,54.79,0,0,1-15.26,1.36,44.1,44.1,0,0,1-11.09-2A38.14,38.14,0,0,1,79,535.57a34.65,34.65,0,0,1-5.5-3.59c-8.36-6.67-14-17.18-17-26.08a104.23,104.23,0,0,1-3.29-11.34c-.35-1.44-.53-2.62-.66-3.43l-.18-1.26a50.87,50.87,0,0,1,13.19-.76c7.54.5,17.29,2.7,25.4,9.41a41.75,41.75,0,0,1,5.39,5.37,69.69,69.69,0,0,1,4.46,6.07A73.81,73.81,0,0,1,107.32,522.57Z"/><path class="cls-3" d="M89.36,346.57c0,2.91-.17,5.82-.1,8.72a53.9,53.9,0,0,1-14.5-1.81c-7.08-1.88-15.26-5.71-21.4-13.54A41.68,41.68,0,0,1,49,333.1c-.61-1.21-1.18-2.45-1.7-3.7s-.92-2.53-1.32-3.81a81,81,0,0,1-3-15,78,78,0,0,1-.41-11.81c.1-3,.29-4.76.29-4.76a51,51,0,0,1,13,2.41,49.44,49.44,0,0,1,11.53,5.29,41.15,41.15,0,0,1,10.8,9.91,50.82,50.82,0,0,1,8.25,18.05A88.86,88.86,0,0,1,89.36,346.57Z"/><path class="cls-3" d="M122.47,580.49c1.8,5.82,3.48,11.68,5.5,17.43a54.54,54.54,0,0,1-15.24,2.49,43.08,43.08,0,0,1-11-1.18,36.11,36.11,0,0,1-11.37-5,47.66,47.66,0,0,1-11.51-11.3,80.69,80.69,0,0,1-7.54-13.33,79.78,79.78,0,0,1-4.16-11c-.83-2.85-1.2-4.61-1.2-4.61A51,51,0,0,1,79,552.12c7.63-.12,17.27,1.36,26,7.36a46.34,46.34,0,0,1,10.11,9.79c.71.92,1.38,1.85,2,2.79s1.32,1.87,1.94,2.81C120.36,576.75,121.47,578.64,122.47,580.49Z"/><path class="cls-3" d="M128.88,416.66c-10.58,14.49-29.78,17.43-34,17.81l-1.34-12.56a83.81,83.81,0,0,0,.53,12.62l.82-.06c1.67,15,3.83,29.94,6.39,44.8a73.46,73.46,0,0,1,1.33-14.69,42.66,42.66,0,0,1,2.25-7.56,39.13,39.13,0,0,1,3.63-7.07c5.67-8.65,14.25-13.2,21.5-15.64a55.05,55.05,0,0,1,12.93-2.77s.21,1.57.38,4.18a81.53,81.53,0,0,1,.23,10.41c-.09,2.09-.27,4.3-.58,6.59-.15,1.14-.34,2.31-.56,3.48s-.42,2.35-.69,3.53a43.77,43.77,0,0,1-5.54,13.79,40.82,40.82,0,0,1-8.32,9.36,48.71,48.71,0,0,1-9.47,6.09A57.86,57.86,0,0,1,104,493.88l2.07,10.61c.69,3.54,1.55,7,2.32,10.56l2.37,10.55c.37,1.76.83,3.51,1.28,5.25l1.34,5.24c-.67-8.57.38-19.15,5-27.74a33.23,33.23,0,0,1,4.25-6.1,39.14,39.14,0,0,1,5.14-4.82,48.59,48.59,0,0,1,10.89-6.36,54.88,54.88,0,0,1,12.66-3.76s.36,1.54.73,4.13c.19,1.29.37,2.85.52,4.6s.36,3.69.44,5.77a66.83,66.83,0,0,1-.75,13.69,64,64,0,0,1-1.61,7.2,39.17,39.17,0,0,1-2.81,7c-4,7.61-10.32,13-16.2,16.56a58,58,0,0,1-14,6.16c-.8-2.69-1.49-5.41-2.18-8.13l-2.08-8.16A92.79,92.79,0,0,0,115,548c.28,1.5.62,2.68.84,3.49l.37,1.26s.53-.12,1.45-.37l2.85,10,1.43,5c.47,1.66.94,3.33,1.49,5l6.3,19.76a87.74,87.74,0,0,0,4.4,18.13s.64-.19,1.74-.61c.66,1.95,1.39,3.87,2.13,5.79l2.21,5.76,4.41,11.52-3.72,1.46-6.67-18c-1.15-3-2.11-6.05-3.15-9.08L128,597.91c1.07-.33,1.66-.57,1.66-.57s-.59-2-1.82-5a96.08,96.08,0,0,0-5.34-11.83c-1-3.47-2.15-6.92-3.14-10.4l-2.87-10.48c-.95-3.49-1.93-7-2.85-10.48L111,538.58c.87-.22,1.36-.36,1.36-.36s-.37-1.76-1.21-4.59c-.42-1.42-1-3.1-1.63-5s-1.36-3.93-2.25-6.09L105,511.51c-.38-1.85-.81-3.68-1.16-5.54l-1-5.57c-1.32-7.43-2.84-14.82-3.89-22.29-4.61.72-23.38,3.14-37.31-9.53a46.86,46.86,0,0,1-9.42-13,68.33,68.33,0,0,1-5.4-14.34,97.07,97.07,0,0,1-2.83-16.31,51.24,51.24,0,0,1,13.24.29c7.56,1.09,17,4.07,24.54,11.41a45,45,0,0,1,5.29,6.3,55.68,55.68,0,0,1,4.25,7,80,80,0,0,1,5.48,14q-1.53-11.74-2.93-23.49l-1.13-11.78-.56-5.89c-.19-2-.39-3.92-.5-5.89l.72-.08a82.1,82.1,0,0,0-1.5-11.74c-1.12-16.57-1.5-33.18-1.56-49.78h.37s0-.87,0-2.4-.05-3.7-.24-6.31l.3-15c.2-5,.48-10,.71-15l.37-7.5.57-7.49,1.17-15a772.89,772.89,0,0,0-2.25,78.11,79.61,79.61,0,0,0-.28,9.77h.48c.38,7.91.74,15.82,1.19,23.73l.93,11.84L93,416l.23,3,.32,3a58.2,58.2,0,0,1,.66-7.44,70.14,70.14,0,0,1,1.64-8.05,52.6,52.6,0,0,1,2.83-8,35.73,35.73,0,0,1,4.47-7.37c6.4-8.19,15.34-12.06,22.68-13.92a54.7,54.7,0,0,1,13.08-1.74,75.65,75.65,0,0,1-.54,14.59,81.4,81.4,0,0,1-2.82,13.4A45.07,45.07,0,0,1,128.88,416.66Z"/><path class="cls-3" d="M90.43,374.48l-.2-9.76c.2-2.34.51-5,1-7.75.24-1.39.52-2.82.86-4.27s.8-2.92,1.29-4.39a46.53,46.53,0,0,1,9-16.51c7-7.66,16.32-10.8,23.79-12.08a54.9,54.9,0,0,1,13.19-.71s0,1.58-.23,4.19a94.94,94.94,0,0,1-1.53,10.31,66.44,66.44,0,0,1-3.84,13.14,52.53,52.53,0,0,1-3.32,6.62,38.8,38.8,0,0,1-4.32,6.13c-6.08,7-14.16,10.81-21.15,12.83A56.76,56.76,0,0,1,90.43,374.48Z"/><path class="cls-3" d="M135.83,609.61l-6.14-17.52a65.22,65.22,0,0,1-.18-13.11,40.74,40.74,0,0,1,3.28-13.19c4.36-9.47,12.18-15.3,18.89-18.82A54.78,54.78,0,0,1,164,542.22a75.69,75.69,0,0,1,2.79,14.33,68.63,68.63,0,0,1,.41,13.67,48.22,48.22,0,0,1-3.36,14.49C157.31,600.2,141.18,607.64,135.83,609.61Z"/><path class="cls-3" d="M117.63,552.4c-.93.25-1.45.37-1.45.37l-.37-1.26c-.22-.82-.56-2-.84-3.49a92.79,92.79,0,0,1-1.6-11.91l2.08,8.16C116.14,547,116.83,549.71,117.63,552.4Z"/><path class="cls-3" d="M135.83,609.61c-1.09.41-1.74.61-1.74.61a87.74,87.74,0,0,1-4.4-18.13Z"/><path class="cls-3" d="M92.32,416.81l-.72.08-.79-11.83A82.1,82.1,0,0,1,92.32,416.81Z"/><path class="cls-3" d="M112.41,538.21s-.49.15-1.36.36c-1.29-5.32-2.64-10.63-3.72-16,.89,2.15,1.6,4.22,2.25,6.09s1.21,3.54,1.63,5C112,536.45,112.41,538.21,112.41,538.21Z"/><path class="cls-3" d="M129.63,597.34s-.6.24-1.66.57c-2-5.75-3.7-11.61-5.5-17.43a96.08,96.08,0,0,1,5.34,11.83C129,595.38,129.63,597.34,129.63,597.34Z"/><path class="cls-4" d="M75.41,585.74a83.88,83.88,0,0,1-11,6.18c-3,1.28-4.85,1.9-4.85,1.9s-.26-.59-.64-1.64C64.47,590.23,69.91,587.92,75.41,585.74Z"/><path class="cls-4" d="M114.63,570s-.24-.45-.64-1.26c4.8-2.29,9.63-4.52,14.32-7-1.8,1.38-3.53,2.63-5.16,3.66s-3.13,1.86-4.39,2.54C116.24,569.33,114.63,570,114.63,570Z"/><path class="cls-4" d="M226.49,501.27a77.89,77.89,0,0,1-8.87,7.37l-.44-.57Z"/><path class="cls-4" d="M264.73,471.45s-.09-.09-.25-.27c2.2-1.78,4.27-3.72,6.41-5.58-1.74,1.86-3.27,3.34-4.36,4.35S264.73,471.45,264.73,471.45Z"/><path class="cls-4" d="M250.44,483.53a75.63,75.63,0,0,1,7.55-5.81l-7.25,6.19Z"/><path class="cls-4" d="M203.42,518.62a79.93,79.93,0,0,1,10.54-6.4l-10.1,7.09Z"/><path class="cls-4" d="M101.41,576.35l1.16-.54,3.22-1.38a88.81,88.81,0,0,1,11.07-3.87l-7.4,3.63c-2.46,1.22-4.93,2.43-7.44,3.54C101.62,576.85,101.41,576.35,101.41,576.35Z"/><path class="cls-4" d="M47.7,600.22c-.42-1.09-.61-1.74-.61-1.74a84.07,84.07,0,0,1,17.62-4.7Z"/><path class="cls-4" d="M264.73,471.45s-.09-.09-.25-.27c2.2-1.78,4.27-3.72,6.41-5.58-1.74,1.86-3.27,3.34-4.36,4.35S264.73,471.45,264.73,471.45Z"/><path class="cls-4" d="M250.73,483.91l-.29-.38a75.63,75.63,0,0,1,7.55-5.81Z"/><path class="cls-4" d="M203.86,519.31l-.44-.69a79.93,79.93,0,0,1,10.54-6.4Z"/><path class="cls-4" d="M226.49,501.27l-9.31,6.8c-2.41-3.19-13.25-19.57-9.91-37.08a42.3,42.3,0,0,1,2.06-7.06,47.71,47.71,0,0,1,3.06-6.54,63.51,63.51,0,0,1,7.74-10.78,70.75,70.75,0,0,1,10-10,56.42,56.42,0,0,1,7.55,10.82c3.61,6.66,6.86,15.82,5.29,26a42.85,42.85,0,0,1-6.49,15.88,63.22,63.22,0,0,1-4.87,6.63C229.88,497.92,228.13,499.7,226.49,501.27Z"/><path class="cls-4" d="M128.32,561.75c-4.7,2.5-9.53,4.73-14.32,7a59.84,59.84,0,0,1-4.62-14.58,49.53,49.53,0,0,1-.77-11,40.19,40.19,0,0,1,.71-5.89,38.24,38.24,0,0,1,1.65-6c3.45-9.45,10.68-16.6,16.85-21.87a76.24,76.24,0,0,1,8.18-5.89l2.53-1.57.93-.55a56.66,56.66,0,0,1,5.57,12c2.44,7.25,4,16.73.65,26.39a37.82,37.82,0,0,1-3.11,6.68,38.94,38.94,0,0,1-4.22,5.94A67.42,67.42,0,0,1,128.32,561.75Z"/><path class="cls-4" d="M270.88,465.6c-2.13,1.86-4.2,3.8-6.41,5.58a57.8,57.8,0,0,1-8.13-12.08c-3.29-6.49-6.13-15.08-5.24-24.26a38,38,0,0,1,1.43-7.21c.35-1.16.74-2.29,1.17-3.41s.86-2.25,1.34-3.33a62.82,62.82,0,0,1,6.7-11.47c2.41-3.22,4.61-6,6.3-7.85s2.8-2.93,2.8-2.93a56.62,56.62,0,0,1,8.48,10.12A49.38,49.38,0,0,1,285,420a34.84,34.84,0,0,1,1.93,14.13,45.53,45.53,0,0,1-6,18.19A76.57,76.57,0,0,1,270.88,465.6Z"/><path class="cls-4" d="M75.41,585.74c-5.49,2.18-10.93,4.49-16.51,6.44a59.43,59.43,0,0,1-3.24-15,50.3,50.3,0,0,1,.27-10.87,39,39,0,0,1,3.33-11.48,42.29,42.29,0,0,1,8.49-11.73,63.2,63.2,0,0,1,10.2-8.55c3.33-2.27,6.44-3.93,8.64-5.18s3.63-1.81,3.63-1.81a56.64,56.64,0,0,1,4.5,12.42c1.76,7.36,2.61,17.19-1.61,26.39a41.59,41.59,0,0,1-7.7,11.19c-.77.82-1.57,1.62-2.38,2.38s-1.66,1.44-2.51,2.12C78.82,583.37,77.1,584.61,75.41,585.74Z"/><path class="cls-4" d="M236.42,540.05c-18.89-1.49-30.16-17.29-32.55-20.75l10.1-7.09a79.93,79.93,0,0,0-10.54,6.4l.44.69q-18.16,12.61-37.15,24a73,73,0,0,1,13.91-4.17,68.13,68.13,0,0,1,7.74-1,41.12,41.12,0,0,1,7.92.24c10.32,1.36,18.55,6.88,24.11,12A52,52,0,0,1,229,560.41s-1.41,1.07-3.88,2.61a100.32,100.32,0,0,1-10.29,5.33c-2.11.94-4.39,1.86-6.77,2.69-1.19.42-2.41.81-3.66,1.17s-2.54.63-3.84.89a46.3,46.3,0,0,1-15.84.64,34.89,34.89,0,0,1-6.4-1.6,36.17,36.17,0,0,1-5.68-2.62,44.77,44.77,0,0,1-9.08-6.87,55.81,55.81,0,0,1-9.33-12L145,555.88c-3.06,1.74-6.21,3.33-9.32,5l-9.34,4.95c-1.55.84-3.13,1.61-4.72,2.39l-4.75,2.33c8.2-2.11,18.29-4,28-1.82a40,40,0,0,1,7.18,2.36,41.07,41.07,0,0,1,6.2,3.33,50.18,50.18,0,0,1,9.6,8.24,52.06,52.06,0,0,1,7.68,10.76s-1.51.92-4.1,2.25c-1.3.66-2.86,1.43-4.64,2.22s-3.83,1.54-6,2.29a77.85,77.85,0,0,1-14.63,3.52,43.63,43.63,0,0,1-8,.35,40.66,40.66,0,0,1-7.9-1.08,38.73,38.73,0,0,1-19.79-12.42A56.11,56.11,0,0,1,102,577.72c2.52-1.1,5-2.32,7.44-3.54l7.4-3.63a88.81,88.81,0,0,0-11.07,3.87l-3.22,1.38-1.16.54s.2.5.6,1.37l-9.25,4.18L88.14,584c-1.54.7-3.08,1.4-4.65,2-6.26,2.58-12.5,5.21-18.77,7.76a84.07,84.07,0,0,0-17.62,4.7s.19.64.61,1.74c-1.88.74-3.78,1.39-5.69,2l-5.72,2-11.44,3.91-1.21-3.81,17.7-5.83c3-.93,5.86-2.06,8.79-3.11l8.76-3.2c.38,1.05.64,1.64.64,1.64s1.9-.62,4.85-1.9a83.88,83.88,0,0,0,11-6.18c3.25-1.32,6.53-2.58,9.77-4l9.65-4.23c3.21-1.42,6.45-2.8,9.65-4.25l9.52-4.53c.39.81.64,1.26.64,1.26s1.61-.7,4.14-2.07c1.26-.68,2.76-1.53,4.39-2.54s3.36-2.29,5.16-3.66l9.77-5c1.62-.85,3.27-1.66,4.87-2.54l4.8-2.67c6.38-3.6,12.88-7,19.12-10.86-2.43-4-11.2-20.79-6.43-37.42a43.14,43.14,0,0,1,6.26-13.15A78.62,78.62,0,0,1,175.33,480a70.78,70.78,0,0,1,10.9-9,56.37,56.37,0,0,1,6.57,11.44c3,6.94,5.43,16.33,3,26.26a35.83,35.83,0,0,1-2.78,7.48,49,49,0,0,1-4.17,6.64,68.24,68.24,0,0,1-10,10.71q9.73-6.14,19.39-12.39l9.5-6.5,4.75-3.25c1.58-1.08,3.18-2.15,4.71-3.3l.44.57a77.89,77.89,0,0,0,8.87-7.37c13-9.53,25.63-19.68,38-30.09.16.18.25.27.25.27s.67-.52,1.8-1.5,2.62-2.49,4.36-4.35l10.94-9.7c3.58-3.31,7.1-6.69,10.65-10l5.32-5,5.16-5.18,10.31-10.38A691.21,691.21,0,0,1,258,477.73a75.63,75.63,0,0,0-7.55,5.81l.29.38c-6,4.83-12,9.69-18.13,14.46l-9.28,7-4.64,3.48-2.32,1.74L214,512.21c2-1,4.23-2.12,6.59-3.17a69.53,69.53,0,0,1,7.56-2.84,55,55,0,0,1,8.27-1.89,46.89,46.89,0,0,1,8.57-.53c10.36.42,19,5.19,25,9.88a52.24,52.24,0,0,1,9.4,9.32A93.35,93.35,0,0,1,266,532.1,65.73,65.73,0,0,1,252.1,538,45.12,45.12,0,0,1,236.42,540.05Z"/><path class="cls-4" d="M250.73,483.91l7.25-6.19c1.89-1.29,4.08-2.67,6.5-4,1.21-.68,2.49-1.35,3.8-2s2.64-1.34,4-2a49,49,0,0,1,18.26-4.54c10.33-.48,19.32,3.48,25.72,7.63a52.16,52.16,0,0,1,10.16,8.47s-1.23,1.27-3.42,3.2a87.33,87.33,0,0,1-9.15,7.12,78.18,78.18,0,0,1-13.33,7,50.48,50.48,0,0,1-7.56,2.41,40.88,40.88,0,0,1-7.94.92c-9.74.13-17.78-3.75-23.66-8A54.56,54.56,0,0,1,250.73,483.91Z"/><path class="cls-4" d="M47.7,600.22l17-6.44a70.93,70.93,0,0,1,12.83-1.16,47.47,47.47,0,0,1,13.5,2c9.9,3,17.06,9.76,21.7,15.81a52.16,52.16,0,0,1,6.74,11.38,93.3,93.3,0,0,1-15.28,5.51,75.61,75.61,0,0,1-14.92,2.17,42.37,42.37,0,0,1-15.71-2C56.84,621.76,49.75,605.54,47.7,600.22Z"/><path class="cls-4" d="M102,577.72c-.4-.87-.6-1.37-.6-1.37l1.16-.54,3.22-1.38a88.81,88.81,0,0,1,11.07-3.87l-7.4,3.63C107,575.4,104.53,576.62,102,577.72Z"/><path class="cls-4" d="M47.7,600.22c-.42-1.09-.61-1.74-.61-1.74a84.07,84.07,0,0,1,17.62-4.7Z"/><path class="cls-4" d="M217.62,508.64l-.44-.57,9.31-6.8A77.89,77.89,0,0,1,217.62,508.64Z"/><path class="cls-4" d="M114.63,570s-.24-.45-.64-1.26c4.8-2.29,9.63-4.52,14.32-7-1.8,1.38-3.53,2.63-5.16,3.66s-3.13,1.86-4.39,2.54C116.24,569.33,114.63,570,114.63,570Z"/><path class="cls-4" d="M59.53,593.82s-.26-.59-.64-1.64c5.58-1.95,11-4.26,16.51-6.44a83.88,83.88,0,0,1-11,6.18C61.43,593.19,59.53,593.82,59.53,593.82Z"/><path class="cls-3" d="M241.09,609.13a79.56,79.56,0,0,1,.07,12.34c-.33,3.13-.71,5-.71,5s-.64-.06-1.74-.25C239.74,620.58,240.33,614.84,241.09,609.13Z"/><path class="cls-3" d="M246.12,568.2s-.51,0-1.41,0c.27-5.18.62-10.36.62-15.55.37,2.18.65,4.25.79,6.13s.15,3.55.15,5C246.27,566.49,246.12,568.2,246.12,568.2Z"/><path class="cls-3" d="M237.23,440.41a74.23,74.23,0,0,1,2.54,11l-.71.13Z"/><path class="cls-3" d="M227.76,394l-.36.11c-.6-2.7-1.43-5.34-2.16-8,.9,2.32,1.55,4.29,2,5.68S227.76,394,227.76,394Z"/><path class="cls-3" d="M232.2,411.76a72.1,72.1,0,0,1-1.83-9.12l2.3,9Z"/><path class="cls-3" d="M242.15,468.15a76.23,76.23,0,0,1-.86-12L243,468.07Z"/><path class="cls-3" d="M245.37,582.48l.09-1.25.32-3.4a84.78,84.78,0,0,1,1.86-11.3l-.33,8-.16,4c-.05,1.34-.19,2.68-.28,4C245.91,582.54,245.37,582.48,245.37,582.48Z"/><path class="cls-3" d="M240.27,639.64c-1.16-.18-1.81-.33-1.81-.33a80.25,80.25,0,0,1,4.49-17.24Z"/><path class="cls-3" d="M227.76,394l-.36.11c-.6-2.7-1.43-5.34-2.16-8,.9,2.32,1.55,4.29,2,5.68S227.76,394,227.76,394Z"/><path class="cls-3" d="M232.67,411.66l-.47.1a72.1,72.1,0,0,1-1.83-9.12Z"/><path class="cls-3" d="M243,468.07l-.82.08a76.23,76.23,0,0,1-.86-12Z"/><path class="cls-3" d="M237.23,440.41l1.84,11.1a61.17,61.17,0,0,1-15,.45c-7.13-.65-15.53-2.72-22.55-7.9a41.83,41.83,0,0,1-5.34-4.81,45.67,45.67,0,0,1-4.45-5.43,59.5,59.5,0,0,1-6.1-11.26,65.33,65.33,0,0,1-4.41-12.86,58.23,58.23,0,0,1,13-2.06c7.55-.36,17.18.65,25.55,6.35a41.11,41.11,0,0,1,11.24,12.5,59.81,59.81,0,0,1,3.72,7.13C235.78,436,236.58,438.29,237.23,440.41Z"/><path class="cls-3" d="M245.34,552.6c0,5.19-.35,10.37-.62,15.55a61.62,61.62,0,0,1-15-2.83,50.84,50.84,0,0,1-10.08-4.45,40.61,40.61,0,0,1-4.85-3.32,38.36,38.36,0,0,1-4.54-4.18c-6.7-7.27-9.57-16.64-11.35-24.26a70.49,70.49,0,0,1-1.36-9.6l-.2-2.86,0-1a58.5,58.5,0,0,1,13.2.6c7.56,1.16,16.65,4.09,23.62,11.36a38.73,38.73,0,0,1,7.7,12.07A64.33,64.33,0,0,1,245.34,552.6Z"/><path class="cls-3" d="M225.25,386.13c.72,2.67,1.56,5.31,2.16,8a59.46,59.46,0,0,1-14.41,2c-7.27.16-16.21-1-24-5.53a36.91,36.91,0,0,1-5.8-4.23c-.88-.78-1.72-1.59-2.52-2.43s-1.63-1.67-2.39-2.53a58.74,58.74,0,0,1-7.3-10.53c-1.81-3.42-3.33-6.46-4.27-8.69s-1.4-3.63-1.4-3.63a58.48,58.48,0,0,1,12.76-3.39,50.11,50.11,0,0,1,12.52-.4,34.32,34.32,0,0,1,13.51,4.08,43.78,43.78,0,0,1,13.7,12.81A72.6,72.6,0,0,1,225.25,386.13Z"/><path class="cls-3" d="M241.09,609.13c-.76,5.72-1.35,11.45-2.38,17.13a61.21,61.21,0,0,1-14.7-4.48,51.81,51.81,0,0,1-9.37-5.43,39.31,39.31,0,0,1-8.44-8.27A40.76,40.76,0,0,1,200,595.41a59.2,59.2,0,0,1-2.62-12.58c-.4-3.86-.36-7.25-.42-9.68s.13-3.9.13-3.9a58.47,58.47,0,0,1,13.07,1.94c7.31,1.92,16.37,5.77,22.41,13.68a40.14,40.14,0,0,1,6.12,11.84c.35,1,.67,2.1.94,3.15s.46,2.1.64,3.14C240.67,605.09,240.92,607.15,241.09,609.13Z"/><path class="cls-3" d="M276.28,448.77c-5,8-12.26,12.66-18.82,15.42A56.57,56.57,0,0,1,243,468.07l-1.68-11.93a76.23,76.23,0,0,0,.86,12l.82-.08c1.92,14.26,3.26,28.61,4.11,43a70.22,70.22,0,0,1,2.78-13.93,69.05,69.05,0,0,1,2.67-7.19,40.44,40.44,0,0,1,3.87-6.79c6-8.38,14.65-13.13,21.74-15.71a52.83,52.83,0,0,1,12.86-3s.31,1.72.55,4.59a97.72,97.72,0,0,1,0,11.46c-.14,2.28-.37,4.69-.73,7.17-.18,1.24-.4,2.48-.65,3.74s-.62,2.52-1,3.77a45.26,45.26,0,0,1-6.79,14.15,34.33,34.33,0,0,1-4.39,4.86,35.76,35.76,0,0,1-5,3.74,44.93,44.93,0,0,1-10.32,4.74,56.75,56.75,0,0,1-15,2.58l.32,10.32c.1,3.44,0,6.88,0,10.32L248,556.19c0,1.72-.06,3.44-.14,5.16l-.21,5.16c2.07-8,5.13-17.58,11.66-24.94a40.35,40.35,0,0,1,5.47-5.12,41.41,41.41,0,0,1,5.85-3.84,51,51,0,0,1,11.77-4.54,52.89,52.89,0,0,1,13.1-1.72s.11,1.74.06,4.62c0,1.44-.08,3.16-.21,5.09s-.45,4.06-.82,6.31a75.82,75.82,0,0,1-3.81,14.38,41.57,41.57,0,0,1-3.47,7.07,39.87,39.87,0,0,1-4.71,6.34,38.46,38.46,0,0,1-20.35,11.23,57,57,0,0,1-15.32,1.22c.09-1.34.23-2.67.28-4l.16-4,.33-8a84.78,84.78,0,0,0-1.86,11.3l-.32,3.4-.09,1.25s.54.06,1.49.13l-.77,9.89-.39,4.94c-.12,1.65-.25,3.3-.46,4.94-.77,6.57-1.48,13.14-2.3,19.7a80.25,80.25,0,0,0-4.49,17.24s.65.15,1.81.33c-.16,1-.28,1.95-.46,2.92l-.55,2.9-1.11,5.8-2.22,11.6L232,662l3.63-17.82c.66-3,1.07-6,1.58-9l1.48-9c1.1.19,1.74.25,1.74.25s.38-1.91.71-5a79.56,79.56,0,0,0-.07-12.34c.41-3.4.91-6.8,1.26-10.21l.92-10.24c.3-3.42.64-6.83.9-10.25l.55-10.27c.9,0,1.41,0,1.41,0s.15-1.71.15-4.52c0-1.4,0-3.08-.15-5s-.43-3.94-.79-6.13l.18-10.72c0-1.79.08-3.58.06-5.36l-.11-5.36-.21-10.73c-.05-1.79,0-3.58-.15-5.36l-.3-5.36c-4.66.31-23.61.25-36.1-11.22a41.75,41.75,0,0,1-8.77-11.17,76.19,76.19,0,0,1-5-11.82,65.39,65.39,0,0,1-3-13.27,58.16,58.16,0,0,1,13.16-.72c7.54.41,17,2.4,24.68,8.92a34.49,34.49,0,0,1,5.37,5.72,46.94,46.94,0,0,1,4,6.56,64.8,64.8,0,0,1,4.9,13.44c-.63-7.46-1.33-14.91-2-22.36l-1.43-11.14-.72-5.57c-.24-1.86-.46-3.72-.79-5.56l.71-.13a74.23,74.23,0,0,0-2.54-11c-2.57-15.56-6-31-9.82-46.27l.36-.11s-.17-.82-.54-2.22-1.07-3.36-2-5.68l-3.86-13.74c-1.4-4.55-2.9-9.07-4.34-13.6l-2.18-6.8-2.42-6.72-4.87-13.42a576.8,576.8,0,0,1,22.81,70.79,72.1,72.1,0,0,0,1.83,9.12l.47-.1c1.6,7.37,3.24,14.75,4.75,22.14l2,11.15,1,5.58.5,2.79.4,2.8c0-1.1,0-2.27.06-3.46s0-2.42.12-3.69a66.89,66.89,0,0,1,.9-7.85,53.51,53.51,0,0,1,2.06-8.07q.34-1,.74-2t.77-2a37.89,37.89,0,0,1,1.87-3.81c5-8.91,13.16-14.49,20-17.78a53.1,53.1,0,0,1,12.53-4.27,91,91,0,0,1,2.14,15.92,62.73,62.73,0,0,1-1,14.86A44,44,0,0,1,276.28,448.77Z"/><path class="cls-3" d="M232.67,411.66l-2.3-9c-.31-2.21-.57-4.73-.71-7.44-.07-1.36-.1-2.76-.1-4.2s0-2.89,0-4.38a47.93,47.93,0,0,1,4-18.07c4.09-9.36,11.55-15.71,18.07-19.67a53,53,0,0,1,12-5.5s.61,1.64,1.4,4.42A83.66,83.66,0,0,1,267.47,359a76.23,76.23,0,0,1,.48,14.9,48.86,48.86,0,0,1-1.16,7.76,40.14,40.14,0,0,1-2.69,7.45c-4.21,8.7-11.25,14.13-17.65,17.5A55.48,55.48,0,0,1,232.67,411.66Z"/><path class="cls-3" d="M240.27,639.64l2.68-17.56a68.8,68.8,0,0,1,5.2-11.49A46.93,46.93,0,0,1,256.43,600c7.37-7.06,16.75-10,24.29-11.15a53,53,0,0,1,13.22-.42,90.93,90.93,0,0,1-2.52,15.86,73.4,73.4,0,0,1-5.34,13.93,41,41,0,0,1-9.4,12.55C263.5,642.37,245.9,640.48,240.27,639.64Z"/><path class="cls-3" d="M246.87,582.61c-1-.07-1.49-.13-1.49-.13l.09-1.25.32-3.4a84.78,84.78,0,0,1,1.86-11.3l-.33,8-.16,4C247.1,579.94,247,581.27,246.87,582.61Z"/><path class="cls-3" d="M240.27,639.64c-1.16-.18-1.81-.33-1.81-.33a80.25,80.25,0,0,1,4.49-17.24Z"/><path class="cls-3" d="M239.78,451.38l-.71.13-1.84-11.1A74.23,74.23,0,0,1,239.78,451.38Z"/><path class="cls-3" d="M246.12,568.2s-.51,0-1.41,0c.27-5.18.62-10.36.62-15.55.37,2.18.65,4.25.79,6.13s.15,3.55.15,5C246.27,566.49,246.12,568.2,246.12,568.2Z"/><path class="cls-3" d="M240.45,626.51s-.64-.06-1.74-.25c1-5.68,1.62-11.41,2.38-17.13a79.56,79.56,0,0,1,.07,12.34C240.83,624.6,240.45,626.51,240.45,626.51Z"/><path class="cls-4" d="M349.54,151a125.92,125.92,0,0,1,15,1.38c3.8.54,6.13,1.06,6.13,1.06s-.08.64-.32,1.73C363.39,153.87,356.47,152.41,349.54,151Z"/><path class="cls-4" d="M300.52,139s-.08.5-.28,1.38c-6.2-1.41-12.41-2.79-18.59-4.28,5.37.45,10.09,1.17,13.46,1.77S300.52,139,300.52,139Z"/><path class="cls-4" d="M148.32,100.69a110.76,110.76,0,0,1,13.38,3.19l-.17.7Z"/><path class="cls-4" d="M93.12,83.26s0,.13-.1.36c-3.23-1-6.43-2.09-9.64-3.14,3,.72,5.38,1.42,7.08,1.95S93.12,83.26,93.12,83.26Z"/><path class="cls-4" d="M114.44,89.88a107.51,107.51,0,0,1-10.71-3.78l10.86,3.33C114.51,89.72,114.44,89.88,114.44,89.88Z"/><path class="cls-4" d="M181.65,109.41a113.24,113.24,0,0,1-13.93-4.65l14.18,3.87Z"/><path class="cls-4" d="M317.6,142.67s-2.14-.36-5.56-1.26a125.05,125.05,0,0,1-13.27-4.3c6.39,1.36,12.77,2.8,19.17,4.1C317.74,142.15,317.6,142.67,317.6,142.67Z"/><path class="cls-4" d="M386.57,154.53c-.18,1.16-.35,1.81-.35,1.81a118.49,118.49,0,0,1-20.92-5.7Z"/><path class="cls-4" d="M93.12,83.26s0,.13-.1.36c-3.23-1-6.43-2.09-9.64-3.14,3,.72,5.38,1.42,7.08,1.95S93.12,83.26,93.12,83.26Z"/><path class="cls-4" d="M114.6,89.42c-.09.3-.15.45-.15.45a107.51,107.51,0,0,1-10.71-3.78Z"/><path class="cls-4" d="M181.9,108.63l-.24.78a113.24,113.24,0,0,1-13.93-4.65Z"/><path class="cls-4" d="M148.32,100.69l13.21,3.89c-1.07,3.85-7,22.56-26.53,29.49a54.7,54.7,0,0,1-17.42,2.81,100,100,0,0,1-17-1.3,121.36,121.36,0,0,1-17.93-4.37,45.23,45.23,0,0,1,5.52-12,41.74,41.74,0,0,1,21.88-17.54,59.68,59.68,0,0,1,19.82-2.8c3.33,0,6.61.28,9.72.62S145.66,100.21,148.32,100.69Z"/><path class="cls-4" d="M281.65,136.07c6.18,1.5,12.39,2.88,18.59,4.28-1.19,5-6.39,22.71-24.59,30.36-10.68,4.44-23.84,4.63-34.26,3.51a130.31,130.31,0,0,1-13-2c-3.24-.67-5.16-1.25-5.16-1.25A45.15,45.15,0,0,1,228,158.63a42,42,0,0,1,20.82-18.85,57.53,57.53,0,0,1,16.49-3.71A95.66,95.66,0,0,1,281.65,136.07Z"/><path class="cls-4" d="M83.38,80.47c3.21,1,6.41,2.14,9.64,3.14-.86,2.9-7.07,22.53-27.48,29-11.05,3.57-24.13,2.44-34.44.49a113.88,113.88,0,0,1-12.76-3.19c-3.16-1-5-1.7-5-1.7a45.26,45.26,0,0,1,5.87-11.87,42,42,0,0,1,22.39-16.9c7.06-2.2,14.87-2.57,22.23-2.06A115,115,0,0,1,83.38,80.47Z"/><path class="cls-4" d="M349.54,151c6.93,1.4,13.85,2.87,20.8,4.17-1.16,5.47-6.06,22.76-23.61,30.71a56.83,56.83,0,0,1-17.11,4.38,100.4,100.4,0,0,1-17,.16,115.06,115.06,0,0,1-13.05-1.64c-3.25-.6-5.2-1.1-5.2-1.1a45.24,45.24,0,0,1,4.43-12.48A42.11,42.11,0,0,1,319,155.77C328.49,151.56,339.86,150.77,349.54,151Z"/><path class="cls-4" d="M175,69.77c12.36,15.88,8,34.81,6.86,38.85l-14.18-3.87a113.24,113.24,0,0,0,13.93,4.65l.24-.78q25.42,6.89,51,13.19a98.16,98.16,0,0,1-15.25-7.63,54.67,54.67,0,0,1-13.51-11.63,40.65,40.65,0,0,1-8.79-26.45A46.35,46.35,0,0,1,197.27,63s1.87.46,4.91,1.41a120.52,120.52,0,0,1,11.88,4.33c9.27,4,20.37,10,27.57,18.83a41.49,41.49,0,0,1,9.15,23.1,49.34,49.34,0,0,1-1.09,15.22l12.24,2.92c4.08,1,8.18,1.87,12.26,2.81,8.18,1.87,16.35,3.74,24.56,5.48-9.32-3.59-20-9.37-27.08-17.58a40.71,40.71,0,0,1-9.54-26.22,46.26,46.26,0,0,1,1.56-13.15s1.89.39,4.95,1.26,7.28,2.21,12,4a94.41,94.41,0,0,1,14.78,7.19,56.4,56.4,0,0,1,13.34,10.82C321.33,118,319,136,317.94,141.21c-6.41-1.3-12.78-2.74-19.17-4.1a125.05,125.05,0,0,0,13.27,4.3c3.42.9,5.56,1.26,5.56,1.26s.14-.52.34-1.46L341.6,146l23.71,4.6a118.49,118.49,0,0,0,20.92,5.7s.16-.65.35-1.81c9.43,1.69,18.87,3.27,28.31,4.91l-.68,3.94-22-4c-7.32-1.34-14.61-2.81-21.91-4.2.24-1.1.32-1.73.32-1.73s-2.32-.52-6.13-1.06a125.92,125.92,0,0,0-15-1.38l-12.35-2.54-12.33-2.66-12.32-2.67-12.3-2.79c.19-.88.28-1.38.28-1.38s-2-.52-5.41-1.13-8.1-1.32-13.46-1.77q-25.58-6-51-12.58c-1.16,4.52-6.71,22.62-25.57,30a56.42,56.42,0,0,1-17.32,3.3,93,93,0,0,1-17-.81,121.46,121.46,0,0,1-18.07-3.8,45.32,45.32,0,0,1,5.16-12.21,41.89,41.89,0,0,1,21.36-18.22,59.91,59.91,0,0,1,18-3.31,102.19,102.19,0,0,1,17.34.89L188,112.09l-26.45-7.51.17-.7a110.76,110.76,0,0,0-13.38-3.19C129.82,95.24,111.4,89.49,93,83.61c.07-.23.1-.36.1-.36s-1-.33-2.66-.84-4.13-1.23-7.08-1.95L66.81,75,50.29,69.38,42,66.57l-8.23-2.9L17.35,57.85q42.94,14.92,86.39,28.24a107.51,107.51,0,0,0,10.71,3.78s.06-.16.15-.45l26.5,7.82c8.87,2.5,17.71,5.07,26.59,7.51a98.37,98.37,0,0,1-16.13-8.27,55.1,55.1,0,0,1-14.44-12.82,40.84,40.84,0,0,1-8-26.71,46.19,46.19,0,0,1,2.31-13A112.17,112.17,0,0,1,148,50.15a102.26,102.26,0,0,1,14.34,8A55.69,55.69,0,0,1,175,69.77Z"/><path class="cls-4" d="M114.6,89.42l-10.86-3.33C93.64,82,78.91,74.28,70.68,62.84a41,41,0,0,1-7.23-27,46.29,46.29,0,0,1,2.68-13,116.28,116.28,0,0,1,16.41,6.74,94.27,94.27,0,0,1,14.11,8.42,66.27,66.27,0,0,1,6.65,5.55A47.1,47.1,0,0,1,109,50C121.26,66.8,115.68,86.23,114.6,89.42Z"/><path class="cls-4" d="M386.57,154.53l-21.27-3.89c-8.93-3.44-18.86-8.6-25.66-16.09a40.94,40.94,0,0,1-10.3-25.94,46.21,46.21,0,0,1,1.18-13.18,112.18,112.18,0,0,1,17.07,4.8,95.56,95.56,0,0,1,15,6.72,57.23,57.23,0,0,1,13.63,10.45C389,131.21,387.51,148.91,386.57,154.53Z"/><path class="cls-4" d="M317.94,141.21c-.2.94-.34,1.46-.34,1.46s-2.14-.36-5.56-1.26a125.05,125.05,0,0,1-13.27-4.3C305.16,138.47,311.53,139.91,317.94,141.21Z"/><path class="cls-4" d="M386.57,154.53c-.18,1.16-.35,1.81-.35,1.81a118.49,118.49,0,0,1-20.92-5.7Z"/><path class="cls-4" d="M161.7,103.88l-.17.7-13.21-3.89A110.76,110.76,0,0,1,161.7,103.88Z"/><path class="cls-4" d="M300.52,139s-.08.5-.28,1.38c-6.2-1.41-12.41-2.79-18.59-4.28,5.37.45,10.09,1.17,13.46,1.77S300.52,139,300.52,139Z"/><path class="cls-4" d="M370.65,153.45s-.08.64-.32,1.73c-6.95-1.31-13.87-2.77-20.8-4.17a125.92,125.92,0,0,1,15,1.38C368.33,152.93,370.65,153.45,370.65,153.45Z"/><path class="cls-3" d="M251.74,197.47a67.39,67.39,0,0,1,9.43,6.07c2.23,1.78,3.49,3,3.49,3s-.4.5-1.16,1.32C259.65,204.32,255.67,200.93,251.74,197.47Z"/><path class="cls-3" d="M224,172.35l-.86,1.12c-3.67-3-7.31-5.94-11.06-8.79,1.81.89,3.48,1.79,4.94,2.68s2.71,1.75,3.74,2.49C222.81,171.33,224,172.35,224,172.35Z"/><path class="cls-3" d="M128.3,106.14a61.13,61.13,0,0,1,9,4.8l-.37.62Z"/><path class="cls-3" d="M91.54,83.94l-.17.33C89.2,83,87,81.84,84.78,80.63c2.09.87,3.78,1.68,5,2.29S91.54,83.94,91.54,83.94Z"/><path class="cls-3" d="M106,92a59.32,59.32,0,0,1-7.13-4.5l7.38,4.09Z"/><path class="cls-3" d="M150.27,119.2a62.69,62.69,0,0,1-8.75-6.53l9.22,5.86Z"/><path class="cls-3" d="M234.12,180.44l-.88-.71c-.56-.46-1.36-1.16-2.35-2a69.91,69.91,0,0,1-7.24-7.46c3.81,3,7.69,6,11.44,9Z"/><path class="cls-3" d="M274.67,213c-.77.88-1.25,1.35-1.25,1.35a66,66,0,0,1-10.79-12Z"/><path class="cls-3" d="M91.54,83.94l-.17.33C89.2,83,87,81.84,84.78,80.63c2.09.87,3.78,1.68,5,2.29S91.54,83.94,91.54,83.94Z"/><path class="cls-3" d="M106.24,91.62,106,92a59.32,59.32,0,0,1-7.13-4.5Z"/><path class="cls-3" d="M150.73,118.52l-.46.68a62.69,62.69,0,0,1-8.75-6.53Z"/><path class="cls-3" d="M128.3,106.14l8.65,5.42c-2.07,3.42-13,19.7-29.43,23.79a39.75,39.75,0,0,1-13.48.83,52.88,52.88,0,0,1-11.78-2.7,58.24,58.24,0,0,1-11.67-5.22A62.83,62.83,0,0,1,78,117.35c4.84-5.78,12-12.21,21.27-14.72a37.79,37.79,0,0,1,15.72-.51,52.91,52.91,0,0,1,7.17,1.68A65.4,65.4,0,0,1,128.3,106.14Z"/><path class="cls-3" d="M212.06,164.68c3.75,2.85,7.39,5.84,11.06,8.79a66.48,66.48,0,0,1-10.95,10.63,52.52,52.52,0,0,1-9.29,5.75,39.19,39.19,0,0,1-11.19,3.45c-9.4,1.33-18.24-1.59-24.93-4.62a62.86,62.86,0,0,1-8-4.44c-.95-.64-1.71-1.14-2.23-1.51l-.79-.58a63,63,0,0,1,8.58-10c5.48-5.25,13.25-10.79,22.73-12.22a36.09,36.09,0,0,1,13.4.6A54.78,54.78,0,0,1,212.06,164.68Z"/><path class="cls-3" d="M84.78,80.63C87,81.84,89.2,83,91.37,84.27A64.58,64.58,0,0,1,83,96.18c-4.79,5.43-11.53,11.2-19.87,13.8a39.16,39.16,0,0,1-13.39,1.55,52.61,52.61,0,0,1-11.94-2,78.89,78.89,0,0,1-8.61-3c-2.1-.89-3.32-1.56-3.32-1.56a63,63,0,0,1,6.79-11.31,54,54,0,0,1,8.48-9.09,35.79,35.79,0,0,1,11.92-6.79,39.48,39.48,0,0,1,17.46-1.21A62.13,62.13,0,0,1,84.78,80.63Z"/><path class="cls-3" d="M251.74,197.47c3.93,3.46,7.92,6.85,11.76,10.41a66,66,0,0,1-11.65,10c-5.61,3.74-12.75,7.16-20.61,7.82a37.42,37.42,0,0,1-13.39-1.46,52.79,52.79,0,0,1-11.23-4.55,77.13,77.13,0,0,1-7.72-4.86c-1.86-1.33-2.9-2.24-2.9-2.24a63,63,0,0,1,9.12-9.54c5.74-4.9,13.9-10.12,23.39-11A36.75,36.75,0,0,1,241,193.17,48.46,48.46,0,0,1,251.74,197.47Z"/><path class="cls-3" d="M159,81.51c4.24,17-6,33.48-8.28,37l-9.22-5.86a62.69,62.69,0,0,0,8.75,6.53l.46-.68q16.48,10.55,32.51,21.8a58.38,58.38,0,0,1-8.08-10.11,40.9,40.9,0,0,1-5.58-13.2c-2-9.5.26-18.94,3-25.94a59.26,59.26,0,0,1,6.14-11.68s1.33.77,3.38,2.25a76.57,76.57,0,0,1,7.69,6.53,56,56,0,0,1,8.44,10.16,39.48,39.48,0,0,1,5.51,13.21c1.7,8.3-.19,16.46-2.75,22.92a63.14,63.14,0,0,1-7.31,13.3l7.58,5.48c2.53,1.83,5,3.74,7.49,5.61l7.47,5.63c2.5,1.87,4.92,3.84,7.38,5.75-4.74-5.84-9.8-13.54-11.2-22.69a39.77,39.77,0,0,1,.46-13.88,54.42,54.42,0,0,1,4-11.83,59.26,59.26,0,0,1,6.77-11.33s1.28.86,3.25,2.44a62.69,62.69,0,0,1,7.35,6.9,61,61,0,0,1,7.87,10.61A38.34,38.34,0,0,1,246.87,144c2.35,16.44-8.48,31.18-11.78,35.33-3.75-3.09-7.63-6-11.44-9a69.91,69.91,0,0,0,7.24,7.46c1,.86,1.78,1.56,2.35,2l.88.71,1-1.15c4.62,3.8,9.29,7.56,13.88,11.41l13.67,11.66a66,66,0,0,0,10.79,12s.47-.47,1.25-1.35c5.3,4.77,10.49,9.65,15.74,14.48l-2.76,2.89-12-11.36c-4-3.78-8.12-7.44-12.18-11.16.76-.82,1.16-1.32,1.16-1.32s-1.26-1.24-3.49-3a67.39,67.39,0,0,0-9.43-6.07c-2.35-2-4.67-4.11-7-6.13l-7.15-6-7.16-6-7.27-5.86.86-1.12s-1.17-1-3.25-2.5c-1-.74-2.3-1.6-3.74-2.49s-3.13-1.79-4.94-2.68q-15.34-12-31.17-23.34c-2.67,3.83-14.34,18.74-30.47,21.79a37.87,37.87,0,0,1-13.52.11,59.29,59.29,0,0,1-11.63-3.33A58.23,58.23,0,0,1,113.94,154a62.83,62.83,0,0,1,8-10.48C127.1,138,134.57,132,144,130a33.21,33.21,0,0,1,7.36-.7,41.8,41.8,0,0,1,7.09.78,56,56,0,0,1,12.43,4.06L154,122.68c-5.69-3.7-11.35-7.47-17.08-11.13l.37-.62a61.13,61.13,0,0,0-9-4.8c-12.12-7.6-24.48-14.82-36.93-21.87l.17-.33s-.64-.4-1.8-1-2.86-1.42-5-2.29l-11.37-6.2-11.48-6-5.75-3-5.8-2.88L38.78,56.84q30.56,14.29,60.08,30.7A59.32,59.32,0,0,0,106,92l.25-.41L124,101.95c5.84,3.57,11.72,7.07,17.52,10.71a65.7,65.7,0,0,1-9.39-10,42.58,42.58,0,0,1-7-13.86c-2.55-9.34-.8-18.88,1.62-26.06a59.38,59.38,0,0,1,5.51-12,71,71,0,0,1,11.53,8.17,55.28,55.28,0,0,1,9,9.72A38.88,38.88,0,0,1,159,81.51Z"/><path class="cls-3" d="M106.24,91.62l-7.38-4.09c-1.64-1.19-3.45-2.61-5.29-4.25-.92-.82-1.85-1.7-2.78-2.62S88.92,78.79,88,77.78a41.47,41.47,0,0,1-8.75-14.7c-3.06-9.17-1.85-18.76.17-26.06a59.36,59.36,0,0,1,4.84-12.29s1.4.64,3.6,1.9a70.57,70.57,0,0,1,8.39,5.59,61.2,61.2,0,0,1,9.47,9.24,42.74,42.74,0,0,1,4,5.84A35.88,35.88,0,0,1,112.65,54C118,71.19,107.94,88.71,106.24,91.62Z"/><path class="cls-3" d="M274.67,213l-12-10.67c-4.21-5.82-8.21-13.43-9.05-22-1-9.61,2.25-18.73,5.79-25.42a59.32,59.32,0,0,1,7.38-11,71,71,0,0,1,10.08,9.89,60.05,60.05,0,0,1,7.25,11.07,37.48,37.48,0,0,1,4.06,13.72C289.52,195,278.44,208.76,274.67,213Z"/><path class="cls-3" d="M235.09,179.3l-1,1.15-.88-.71c-.56-.46-1.36-1.16-2.35-2a69.91,69.91,0,0,1-7.24-7.46C227.46,173.27,231.34,176.2,235.09,179.3Z"/><path class="cls-3" d="M274.67,213c-.77.88-1.25,1.35-1.25,1.35a66,66,0,0,1-10.79-12Z"/><path class="cls-3" d="M137.31,110.94l-.37.62-8.65-5.42A61.13,61.13,0,0,1,137.31,110.94Z"/><path class="cls-3" d="M224,172.35l-.86,1.12c-3.67-3-7.31-5.94-11.06-8.79,1.81.89,3.48,1.79,4.94,2.68s2.71,1.75,3.74,2.49C222.81,171.33,224,172.35,224,172.35Z"/><path class="cls-3" d="M264.66,206.56s-.4.5-1.16,1.32c-3.84-3.56-7.82-7-11.76-10.41a67.39,67.39,0,0,1,9.43,6.07C263.39,205.32,264.66,206.56,264.66,206.56Z"/><path class="cls-4" d="M337.29,904.25A101.69,101.69,0,0,1,346,914.31c2.13,2.65,3.3,4.4,3.3,4.4s-.5.4-1.43,1C344.2,914.7,340.81,909.43,337.29,904.25Z"/><path class="cls-4" d="M314.78,865.67s-.43.28-1.2.74c-2.85-4.86-5.76-9.68-8.41-14.65,1.5,1.86,2.81,3.69,4,5.34s2.23,3.14,3.06,4.41C313.89,864,314.78,865.67,314.78,865.67Z"/><path class="cls-4" d="M254.42,740.84A86.74,86.74,0,0,1,259.3,752l-.66.28Z"/><path class="cls-4" d="M238.8,692.08l-.35.12c-.91-2.85-1.62-5.76-2.42-8.64.93,2.52,1.6,4.66,2,6.16S238.8,692.08,238.8,692.08Z"/><path class="cls-4" d="M244.67,710.93a84.13,84.13,0,0,1-2.56-9.71l3,9.57Z"/><path class="cls-4" d="M266.22,768.93A88.56,88.56,0,0,1,262,756.65l5,12Z"/><path class="cls-4" d="M322.81,878.87l-.74-1.13c-.46-.74-1.14-1.8-1.87-3.18a98,98,0,0,1-5.14-11.23l4.47,7.41c1.48,2.48,3,4.95,4.56,7.36C323.28,878.6,322.81,878.87,322.81,878.87Z"/><path class="cls-4" d="M359.07,929c-.93.72-1.49,1.09-1.49,1.09a92.68,92.68,0,0,1-9.8-16.48Z"/><path class="cls-4" d="M238.8,692.08l-.35.12c-.91-2.85-1.62-5.76-2.42-8.64.93,2.52,1.6,4.66,2,6.16S238.8,692.08,238.8,692.08Z"/><path class="cls-4" d="M245.13,710.79l-.46.14a84.13,84.13,0,0,1-2.56-9.71Z"/><path class="cls-4" d="M267,768.64l-.77.29A88.56,88.56,0,0,1,262,756.65Z"/><path class="cls-4" d="M254.42,740.84l4.22,11.43c-3.73,1.44-22.12,8.26-38.87-2a39.3,39.3,0,0,1-6.55-5,57.45,57.45,0,0,1-5.52-6.14,84.22,84.22,0,0,1-8.41-13.32A102.49,102.49,0,0,1,193.14,710a49.73,49.73,0,0,1,13-2.37c7.63-.42,17.5.69,26.39,6.57a52.42,52.42,0,0,1,13.17,12.64,84,84,0,0,1,4.82,7.22C252,736.39,253.32,738.7,254.42,740.84Z"/><path class="cls-4" d="M305.17,851.76c2.65,5,5.56,9.79,8.41,14.65a53.39,53.39,0,0,1-14.25,5.65,43.5,43.5,0,0,1-11.26,1.17,38.21,38.21,0,0,1-6.24-.71,35.13,35.13,0,0,1-6.37-2c-10-4.19-18.59-12.92-24.15-20.82a110.08,110.08,0,0,1-6.55-10.22c-.76-1.32-1.29-2.43-1.66-3.19l-.55-1.18A49.52,49.52,0,0,1,255,830.67c7.39-1.63,17.41-2.22,27.21,2.09a43,43,0,0,1,6.78,3.76,74,74,0,0,1,6.11,4.71A77.59,77.59,0,0,1,305.17,851.76Z"/><path class="cls-4" d="M236,683.56c.8,2.88,1.51,5.79,2.42,8.64A52.5,52.5,0,0,1,224,694.48a39.33,39.33,0,0,1-24.44-7.36,43,43,0,0,1-6.11-5.54c-.94-1-1.84-2.08-2.69-3.18s-1.61-2.24-2.36-3.39a85.17,85.17,0,0,1-7.19-14,81.05,81.05,0,0,1-3.76-11.55c-.75-3-1.07-4.79-1.07-4.79a49.68,49.68,0,0,1,13.17-1.26,48.61,48.61,0,0,1,12.57,2,41.52,41.52,0,0,1,13.19,6.76,52.82,52.82,0,0,1,13.09,15.51A93.87,93.87,0,0,1,236,683.56Z"/><path class="cls-4" d="M337.29,904.25c3.51,5.18,6.91,10.45,10.62,15.5A53.17,53.17,0,0,1,334,926.51a42.47,42.47,0,0,1-11,2,36.41,36.41,0,0,1-12.47-1.67A49.44,49.44,0,0,1,296.07,919a84.9,84.9,0,0,1-11.3-10.94,83.06,83.06,0,0,1-7.35-9.66c-1.66-2.56-2.55-4.18-2.55-4.18a49.65,49.65,0,0,1,12-5.48,44.23,44.23,0,0,1,27.24-.14,48,48,0,0,1,12.69,6.73c1,.7,1.89,1.42,2.81,2.15s1.84,1.46,2.72,2.21C334.13,901.19,335.77,902.73,337.29,904.25Z"/><path class="cls-4" d="M294.35,741.55c-5.89,17.24-23.45,25.54-27.37,27.1l-5-12a88.56,88.56,0,0,0,4.22,12.28l.77-.29q9,21.44,19.42,42.28a77.25,77.25,0,0,1-3.1-14.82,44,44,0,0,1-.08-8.07,40.28,40.28,0,0,1,1.39-8c2.89-10.11,9.77-17,16-21.44a53.61,53.61,0,0,1,11.6-6.36s.66,1.49,1.6,4a86,86,0,0,1,3.3,10.18c.53,2.08,1,4.31,1.4,6.65.19,1.17.36,2.36.49,3.58s.3,2.42.39,3.66a45.25,45.25,0,0,1-1.22,15.12,38,38,0,0,1-2.24,6.15,42.4,42.4,0,0,1-3,5.39,48,48,0,0,1-7.28,8.66,56.39,56.39,0,0,1-12.36,8.87l5.16,9.84c1.72,3.28,3.61,6.47,5.4,9.71l5.45,9.68c.89,1.62,1.85,3.21,2.81,4.79L315,863.3c-3.25-8.21-5.41-18.9-3.53-28.64a33.53,33.53,0,0,1,2.25-7.19,39,39,0,0,1,3.49-6.19,47.72,47.72,0,0,1,8.56-9.32,53.43,53.43,0,0,1,11-7.27s.81,1.42,1.94,3.85c.57,1.22,1.21,2.69,1.88,4.37s1.45,3.52,2.16,5.54a70.16,70.16,0,0,1,3.4,13.65,67.81,67.81,0,0,1,.62,7.52,40.24,40.24,0,0,1-.59,7.63c-1.52,8.59-6,15.64-10.56,20.82a56.52,56.52,0,0,1-11.61,10c-1.59-2.41-3.08-4.88-4.56-7.36l-4.47-7.41a98,98,0,0,0,5.14,11.23c.72,1.39,1.41,2.45,1.87,3.18l.74,1.13s.47-.26,1.29-.77l5.77,9,2.89,4.48c1,1.5,1.92,3,2.94,4.45l12.09,17.56a92.68,92.68,0,0,0,9.8,16.48s.56-.37,1.49-1.09c1.23,1.72,2.53,3.39,3.83,5.05l3.9,5,7.8,10-3.13,2.49-12-15.72c-2-2.59-3.89-5.32-5.82-8l-5.75-8c.93-.63,1.43-1,1.43-1s-1.17-1.75-3.3-4.4a101.69,101.69,0,0,0-8.75-10.06c-2.06-3.1-4.18-6.16-6.19-9.29l-5.94-9.46c-2-3.16-4-6.29-5.92-9.47l-5.66-9.63c.77-.46,1.2-.74,1.2-.74s-.89-1.63-2.55-4.16c-.83-1.27-1.86-2.77-3.06-4.41s-2.49-3.48-4-5.34l-5.6-10.2c-.92-1.7-1.88-3.39-2.78-5.11l-2.65-5.18c-3.49-6.93-7.17-13.76-10.39-20.81-4.22,2-21.51,9.68-38.67,1.14a48.58,48.58,0,0,1-12.9-10.14,71.2,71.2,0,0,1-9.43-12.6,102.56,102.56,0,0,1-7.53-15.27A49.89,49.89,0,0,1,228,770.15c7.58-1,17.53-.78,26.92,4.33a46.56,46.56,0,0,1,6.93,4.71,58.07,58.07,0,0,1,6.15,5.68,84.39,84.39,0,0,1,9.42,12.27q-4.95-11.12-9.77-22.29l-4.55-11.28-2.28-5.64c-.76-1.88-1.53-3.75-2.21-5.66l.66-.28a86.74,86.74,0,0,0-4.88-11.15c-5.93-16-11.11-32.28-16-48.64l.35-.12s-.23-.87-.72-2.36-1.12-3.64-2-6.16l-4-14.9c-1.25-5-2.41-10-3.61-15l-1.79-7.51L225,638.59l-3.13-15.11a768.53,768.53,0,0,0,20.23,77.74,84.13,84.13,0,0,0,2.56,9.71l.46-.14c2.67,7.69,5.31,15.39,8.06,23.06l4.36,11.41,2.18,5.7,1.09,2.85,1.17,2.82a60.16,60.16,0,0,1-1.55-7.52,73.7,73.7,0,0,1-.79-8.39A54.87,54.87,0,0,1,260,732a36.59,36.59,0,0,1,2.14-8.52c3.76-9.87,11.21-16.19,17.72-20.09a53.25,53.25,0,0,1,12-5.39,79.82,79.82,0,0,1,3.73,14.53,86.65,86.65,0,0,1,1.21,14A46.66,46.66,0,0,1,294.35,741.55Z"/><path class="cls-4" d="M245.13,710.79l-3-9.57c-.49-2.36-1-5-1.29-7.93-.17-1.44-.32-2.93-.41-4.46s-.07-3.11,0-4.69a48.29,48.29,0,0,1,3.93-18.83c4.57-9.53,12.58-15.24,19.38-18.6a53.45,53.45,0,0,1,12.45-4.4s.45,1.57,1,4.2a101.14,101.14,0,0,1,1.48,10.6,69.74,69.74,0,0,1,.09,14,54.83,54.83,0,0,1-1.28,7.46,39.85,39.85,0,0,1-2.37,7.26c-3.8,8.62-10.47,14.64-16.59,18.6A55.3,55.3,0,0,1,245.13,710.79Z"/><path class="cls-4" d="M359.07,929l-11.28-15.4a68.29,68.29,0,0,1-4.18-12.78,42,42,0,0,1-.88-13.85c1.31-10.51,7.06-18.44,12.44-23.79a53.33,53.33,0,0,1,10.4-8.13,79.86,79.86,0,0,1,7,13.25,72.2,72.2,0,0,1,4.57,13.26,50.17,50.17,0,0,1,1.2,15.13C376.85,913.65,363.61,925.51,359.07,929Z"/><path class="cls-4" d="M324.09,878.1c-.82.51-1.29.77-1.29.77l-.74-1.13c-.46-.74-1.14-1.8-1.87-3.18a98,98,0,0,1-5.14-11.23l4.47,7.41C321,873.22,322.5,875.69,324.09,878.1Z"/><path class="cls-4" d="M359.07,929c-.93.72-1.49,1.09-1.49,1.09a92.68,92.68,0,0,1-9.8-16.48Z"/><path class="cls-4" d="M259.3,752l-.66.28-4.22-11.43A86.74,86.74,0,0,1,259.3,752Z"/><path class="cls-4" d="M314.78,865.67s-.43.28-1.2.74c-2.85-4.86-5.76-9.68-8.41-14.65,1.5,1.86,2.81,3.69,4,5.34s2.23,3.14,3.06,4.41C313.89,864,314.78,865.67,314.78,865.67Z"/><path class="cls-4" d="M349.34,918.71s-.5.4-1.43,1c-3.72-5-7.11-10.31-10.62-15.5A101.69,101.69,0,0,1,346,914.31C348.17,917,349.34,918.71,349.34,918.71Z"/><path class="cls-4" d="M58.35,217.11a93.9,93.9,0,0,1-12.74-6.9c-3.09-2-4.89-3.47-4.89-3.47s.35-.54,1-1.42c2.72,2,5.45,4,8.23,6S55.54,215.19,58.35,217.11Z"/><path class="cls-4" d="M99.15,243.41s.22-.46.64-1.26c5.37,2.92,10.81,5.72,16.27,8.47a97.53,97.53,0,0,1-12.17-4.79C100.9,244.44,99.15,243.41,99.15,243.41Z"/><path class="cls-4" d="M240.88,294.62a102.77,102.77,0,0,1-13.07-2.2l.14-.71Z"/><path class="cls-4" d="M296,302.62s0-.13,0-.37l9.75.64C299.94,303,296,302.62,296,302.62Z"/><path class="cls-4" d="M274.59,300.72a100.08,100.08,0,0,1,10.85,1.52l-10.92-1C274.56,300.89,274.59,300.72,274.59,300.72Z"/><path class="cls-4" d="M208.45,287.58l1,.25c.67.17,1.63.42,2.84.77,2.42.69,5.79,1.76,9.65,3.24l-13.77-3.48Z"/><path class="cls-4" d="M84.4,235.27s1.83,1,4.74,2.78c1.46.89,3.16,2,5.05,3.27s4,2.71,6.08,4.33c-5.59-3-11.16-6-16.64-9.1C84.11,235.72,84.4,235.27,84.4,235.27Z"/><path class="cls-4" d="M27.42,198.9c.71-.93,1.16-1.43,1.16-1.43l1.3,1c.84.65,2,1.66,3.46,2.86s3.15,2.7,5,4.42,3.85,3.59,5.86,5.71C38.52,207.39,32.88,203.27,27.42,198.9Z"/><path class="cls-4" d="M296,302.62s0-.13,0-.37l9.75.64C299.94,303,296,302.62,296,302.62Z"/><path class="cls-4" d="M274.52,301.2c0-.31.07-.48.07-.48a100.08,100.08,0,0,1,10.85,1.52Z"/><path class="cls-4" d="M208.21,288.36l.24-.78,1,.25c.67.17,1.63.42,2.84.77,2.42.69,5.79,1.76,9.65,3.24Z"/><path class="cls-4" d="M240.88,294.62,228,291.7a52.89,52.89,0,0,1,5.48-14,48.77,48.77,0,0,1,6.94-9.5,41.57,41.57,0,0,1,4.78-4.35c.88-.68,1.79-1.32,2.75-2s2-1.27,3-1.85A51,51,0,0,1,265.73,255a77.27,77.27,0,0,1,14.41-1.67,88.83,88.83,0,0,1,11,0c1.37.08,2.47.19,3.23.26l1.17.08a51.14,51.14,0,0,1-2.43,13c-2.33,7.21-6.91,15.89-16.34,21.72-5.39,3.27-11.76,5-18.1,6A91.82,91.82,0,0,1,240.88,294.62Z"/><path class="cls-4" d="M116.06,250.62c-5.46-2.75-10.9-5.55-16.27-8.47,2.46-4.6,12.38-19.9,30.28-23.77a51.55,51.55,0,0,1,16-.84c2.6.28,5.18.6,7.65,1s4.83,1,7,1.54c4.37,1.21,8.19,2.31,10.85,3.29s4.25,1.66,4.25,1.66a49.81,49.81,0,0,1-6.16,11.68,44.58,44.58,0,0,1-8.68,9.31,37.91,37.91,0,0,1-6.08,4,35.1,35.1,0,0,1-3.52,1.6,35.9,35.9,0,0,1-3.83,1.19,48.65,48.65,0,0,1-16.15,1A86.61,86.61,0,0,1,116.06,250.62Z"/><path class="cls-4" d="M305.79,302.89l-9.75-.64A52,52,0,0,1,299,287.93a49.6,49.6,0,0,1,5.28-10.8,43.21,43.21,0,0,1,4-5.24,40.49,40.49,0,0,1,5.14-4.93c8.27-6.48,18.71-9.8,27.14-11.73a84.57,84.57,0,0,1,10.61-1.89l3.14-.42,1.15-.12s.23,1.41.35,3.78a55.41,55.41,0,0,1-.33,9.46c-.92,7.66-3.82,16.94-12,24.3a38.79,38.79,0,0,1-4.21,3.28,48,48,0,0,1-4.65,2.59,66.42,66.42,0,0,1-10,3.85,75.67,75.67,0,0,1-10,2A86.8,86.8,0,0,1,305.79,302.89Z"/><path class="cls-4" d="M58.35,217.11c-2.8-1.92-5.62-3.81-8.37-5.8s-5.51-4-8.23-6a53.77,53.77,0,0,1,11.16-10.69,44.59,44.59,0,0,1,21.8-8.42c10.57-.93,21.36,2.21,29.76,5.48,2.11.81,4,1.64,5.77,2.44s3.27,1.51,4.54,2.16c2.52,1.29,4,2.16,4,2.16a50,50,0,0,1-7.57,10.85,44.48,44.48,0,0,1-9.76,8.16,35.76,35.76,0,0,1-14.14,5C77.47,223.75,66.85,220.87,58.35,217.11Z"/><path class="cls-4" d="M216,327.13a38.61,38.61,0,0,1-9.43-23.82,47.94,47.94,0,0,1,1.64-15L222,291.84c-3.86-1.48-7.23-2.55-9.65-3.24-1.21-.35-2.18-.6-2.84-.77l-1-.25-.24.78c-16.35-4.52-32.48-9.83-48.36-15.81a99.67,99.67,0,0,1,13.91,9A59.2,59.2,0,0,1,186.23,294a48.52,48.52,0,0,1,4.13,7,42,42,0,0,1,2.57,7,47,47,0,0,1,1.61,12.86,45,45,0,0,1-2,13.12s-2-.53-5.29-1.61c-1.63-.54-3.58-1.22-5.73-2-1.08-.41-2.21-.86-3.38-1.34s-2.35-1.07-3.57-1.66c-2.44-1.18-5-2.52-7.55-4a66.46,66.46,0,0,1-7.54-5A55.24,55.24,0,0,1,147,305.46a38.66,38.66,0,0,1-6.15-24.28,48.35,48.35,0,0,1,3.52-14.84c-7.43-3.24-14.92-6.37-22.21-9.92-7.37-3.39-14.62-7-21.82-10.77,1.94,1.44,3.93,3,5.91,4.75s4,3.51,5.87,5.46a56.5,56.5,0,0,1,9.89,12.9,47.21,47.21,0,0,1,3.19,7.46,41.67,41.67,0,0,1,1.64,7.22,46.77,46.77,0,0,1-.09,12.94A45.2,45.2,0,0,1,123,309.13s-1.92-.77-5-2.25a98.79,98.79,0,0,1-11.8-6.58c-2.25-1.47-4.6-3.1-6.93-4.87a70.05,70.05,0,0,1-6.81-5.81,60.41,60.41,0,0,1-6.07-6.72,44.93,44.93,0,0,1-4.77-7.5c-8.79-17.76-.58-34.23,2-38.86,5.49,3.14,11.06,6.14,16.64,9.1-2.13-1.62-4.19-3.07-6.08-4.33s-3.6-2.38-5.05-3.27c-2.91-1.77-4.74-2.78-4.74-2.78s-.29.45-.77,1.29Q63.31,225,44.18,211.48c-2-2.11-4-4-5.86-5.71s-3.52-3.21-5-4.42-2.62-2.21-3.46-2.86l-1.3-1s-.45.5-1.16,1.43Q16.5,190.26,6.2,180.85l2.72-2.93a388,388,0,0,0,32.83,27.41c-.69.89-1,1.42-1,1.42s1.8,1.42,4.89,3.47a93.9,93.9,0,0,0,12.74,6.9c13.38,9,27.24,17.35,41.45,25-.42.79-.64,1.26-.64,1.26s1.74,1,4.74,2.43a97.53,97.53,0,0,0,12.17,4.79q22.65,11.21,46.18,20.51a53.06,53.06,0,0,1,7.6-13.2,43.45,43.45,0,0,1,19.55-14.5A49.32,49.32,0,0,1,205,240.55a80.66,80.66,0,0,1,14.73.56c2.22.32,4.31.51,6.17.83s3.52.61,4.89.91c2.74.59,4.37,1.08,4.37,1.08a50.15,50.15,0,0,1-4.48,12.41c-3.46,6.75-9.41,14.67-19.64,18.93a50.5,50.5,0,0,1-17.19,3.17,91,91,0,0,1-16.58-1.71,520.46,520.46,0,0,0,50.71,15l-.14.71a102.77,102.77,0,0,0,13.07,2.2A436.93,436.93,0,0,0,296,302.25c0,.24,0,.37,0,.37s3.91.37,9.76.27a365.2,365.2,0,0,0,67.12-2.9L362,301.34l-5.44.68-5.46.43-10.93.84-11,.36-5.48.17c-1.83,0-3.65,0-5.48-.05l-11-.14c-3.65-.16-7.3-.39-11-.58l-5.48-.3c-1.82-.12-3.64-.34-5.46-.5a100.08,100.08,0,0,0-10.85-1.52s0,.17-.07.48A472,472,0,0,1,222,291.84c2.41,1,5.07,1.93,7.78,3.12a91.11,91.11,0,0,1,8.28,4.09l2.07,1.2q1,.58,2.06,1.19c1.36.82,2.71,1.69,4,2.62a50.6,50.6,0,0,1,7.29,6.24,48.5,48.5,0,0,1,5.13,6.3,42.52,42.52,0,0,1,3.59,6.51,47.32,47.32,0,0,1,3.54,12.5,44.66,44.66,0,0,1,0,13.27s-2.1-.23-5.54-.83c-1.72-.3-3.77-.7-6-1.2a72.52,72.52,0,0,1-7.41-2c-2.62-.83-5.37-1.8-8.14-2.92-1.39-.56-2.78-1.15-4.17-1.78a44.35,44.35,0,0,1-4.11-2.07A56.76,56.76,0,0,1,216,327.13Z"/><path class="cls-4" d="M274.52,301.2l10.92,1c1.29.25,2.67.53,4.1.86s2.94.59,4.49,1a97.07,97.07,0,0,1,9.66,2.74c3.3,1.2,6.64,2.31,9.87,3.84a52.47,52.47,0,0,1,9.2,5.43,44.78,44.78,0,0,1,16.48,22.87,49.15,49.15,0,0,1,2.08,9.3,30.35,30.35,0,0,1,.26,3.78s-2.15.13-5.69.11c-1.77,0-3.89-.06-6.26-.17-1.19-.06-2.43-.13-3.73-.23s-2.65-.21-4-.43a102.69,102.69,0,0,1-17.55-4,57.91,57.91,0,0,1-16.13-8.63A38.25,38.25,0,0,1,275,315.92,46.86,46.86,0,0,1,274.52,301.2Z"/><path class="cls-4" d="M27.42,198.9c5.46,4.37,11.1,8.49,16.76,12.58,6.45,6.66,13.38,15,17.08,24.43a42.46,42.46,0,0,1,2.25,7.82,42.19,42.19,0,0,1,.75,7.39A47.26,47.26,0,0,1,62.61,264a44.87,44.87,0,0,1-5.18,12.19l-1.28-.72c-.82-.47-2-1.18-3.44-2.12s-3.15-2.08-5-3.42-3.9-2.93-6-4.67c-8.39-7-17.7-17.11-21.52-28.33a36.56,36.56,0,0,1-2-13.18,38.83,38.83,0,0,1,2-11.13A47.6,47.6,0,0,1,27.42,198.9Z"/><path class="cls-4" d="M83.63,236.55c.48-.83.77-1.29.77-1.29s1.83,1,4.74,2.78c1.46.89,3.16,2,5.05,3.27s4,2.71,6.08,4.33C94.69,242.7,89.12,239.7,83.63,236.55Z"/><path class="cls-4" d="M27.42,198.9c.71-.93,1.16-1.43,1.16-1.43l1.3,1c.84.65,2,1.66,3.46,2.86s3.15,2.7,5,4.42,3.85,3.59,5.86,5.71C38.52,207.39,32.88,203.27,27.42,198.9Z"/><path class="cls-4" d="M227.82,292.41l.14-.71,12.93,2.91A102.77,102.77,0,0,1,227.82,292.41Z"/><path class="cls-4" d="M99.15,243.41s.22-.46.64-1.26c5.37,2.92,10.81,5.72,16.27,8.47a97.53,97.53,0,0,1-12.17-4.79C100.9,244.44,99.15,243.41,99.15,243.41Z"/><path class="cls-4" d="M40.71,206.75s.35-.54,1-1.42c2.72,2,5.45,4,8.23,6s5.56,3.88,8.37,5.8a93.9,93.9,0,0,1-12.74-6.9C42.52,208.17,40.71,206.75,40.71,206.75Z"/><path class="cls-3" d="M278.87,688A96.63,96.63,0,0,1,280,675.12c.41-3.27.84-5.26.84-5.26s.64.08,1.73.31C281.63,676.16,280.16,682.05,278.87,688Z"/><path class="cls-3" d="M266.35,729.37s.49.13,1.36.39c-1.61,5.21-3.13,10.45-5,15.57.36-2.29.82-4.41,1.23-6.34s.77-3.65,1.13-5.07C265.77,731.07,266.35,729.37,266.35,729.37Z"/><path class="cls-3" d="M213.34,852.53A81.3,81.3,0,0,1,218.66,842l.64.33Z"/><path class="cls-3" d="M186,893.86l.31.2c-1.61,2.41-3.43,4.66-5.15,7,1.37-2.21,2.6-4,3.48-5.23S186,893.86,186,893.86Z"/><path class="cls-3" d="M196.77,878.08a78.82,78.82,0,0,1-5.84,7.77l5.45-8Z"/><path class="cls-3" d="M227,826.37a82.93,82.93,0,0,1-6.52,10.75l5.8-11.15Z"/><path class="cls-3" d="M270.5,715l-.31,1.27a35.29,35.29,0,0,1-1,3.42,91.77,91.77,0,0,1-4.7,11l2.37-8,1.18-4c.4-1.34.7-2.7,1.05-4.05C270,714.84,270.5,715,270.5,715Z"/><path class="cls-3" d="M281.39,656.2c1.16.16,1.81.3,1.81.3s-.28,2.07-1,5.35a90,90,0,0,1-3.88,12.54Z"/><path class="cls-3" d="M186,893.86l.31.2c-1.61,2.41-3.43,4.66-5.15,7,1.37-2.21,2.6-4,3.48-5.23S186,893.86,186,893.86Z"/><path class="cls-3" d="M196.37,877.81l.39.27a78.82,78.82,0,0,1-5.84,7.77Z"/><path class="cls-3" d="M226.25,826l.72.4a82.93,82.93,0,0,1-6.52,10.75Z"/><path class="cls-3" d="M213.34,852.53l6-10.18a53.91,53.91,0,0,1,11.91,9,39.16,39.16,0,0,1,11.45,21.93,37.5,37.5,0,0,1,.32,8.16,55.59,55.59,0,0,1-1.25,8.06,81.43,81.43,0,0,1-5,14.74,99.53,99.53,0,0,1-8.52,14.5,50.71,50.71,0,0,1-9.94-8.74c-5.07-5.71-10.37-14.08-11.41-24.49a51.25,51.25,0,0,1,1.34-17.81,81.51,81.51,0,0,1,2.45-8.06C211.5,857.07,212.43,854.67,213.34,852.53Z"/><path class="cls-3" d="M262.69,745.33c1.89-5.12,3.41-10.36,5-15.57a54.47,54.47,0,0,1,13.81,6.64,43.54,43.54,0,0,1,8.49,7.43,37.88,37.88,0,0,1,3.71,5,34.07,34.07,0,0,1,2.83,6c3.65,10.1,2.94,22.2.71,31.46A106.77,106.77,0,0,1,294,797.81c-.47,1.43-1,2.54-1.29,3.31l-.53,1.18a50.46,50.46,0,0,1-11.55-6.4,52,52,0,0,1-4.68-3.84,48.35,48.35,0,0,1-4.62-4.86,40.45,40.45,0,0,1-7.23-12.84,42.07,42.07,0,0,1-1.74-7.4c-.36-2.49-.49-5-.61-7.5A73.72,73.72,0,0,1,262.69,745.33Z"/><path class="cls-3" d="M181.14,901c1.72-2.33,3.54-4.58,5.15-7A53.75,53.75,0,0,1,197.05,904a38.84,38.84,0,0,1,9.38,23.55,41.94,41.94,0,0,1-.58,8.15c-.22,1.35-.5,2.71-.83,4s-.78,2.61-1.23,3.88a82.65,82.65,0,0,1-6.67,14.07,73.53,73.53,0,0,1-6.88,9.85c-1.9,2.35-3.16,3.69-3.16,3.69a50.6,50.6,0,0,1-8.9-9.78,49.78,49.78,0,0,1-6-11.19,42.44,42.44,0,0,1-2.68-14.43,51.16,51.16,0,0,1,4.09-19.4A89.64,89.64,0,0,1,181.14,901Z"/><path class="cls-3" d="M278.87,688c1.29-5.93,2.76-11.82,3.74-17.81a54.22,54.22,0,0,1,14.53,5.25,42.26,42.26,0,0,1,9,6.44,35.65,35.65,0,0,1,7.41,10A48,48,0,0,1,318,707.58a82.25,82.25,0,0,1-.24,15.53,75.84,75.84,0,0,1-2,11.82c-.76,2.92-1.34,4.65-1.34,4.65a50.61,50.61,0,0,1-12.18-5.13,45.23,45.23,0,0,1-18.68-19.61,46.68,46.68,0,0,1-3.82-13.52c-.16-1.14-.27-2.28-.37-3.42s-.23-2.28-.3-3.4C278.86,692.25,278.83,690.06,278.87,688Z"/><path class="cls-3" d="M188.21,821.8c8.32-2.94,16.92-2.42,23.89-.89A58.75,58.75,0,0,1,226.25,826l-5.8,11.15A82.93,82.93,0,0,0,227,826.37l-.72-.4q10.27-20,18.86-40.86a72.33,72.33,0,0,1-9,11.59,39.71,39.71,0,0,1-6,5.08,38.45,38.45,0,0,1-6.87,3.89c-9.44,4.09-19,3.12-26.45,1.13A56.11,56.11,0,0,1,184.55,802s.68-1.38,1.94-3.59a76.6,76.6,0,0,1,5.35-8.59c1.19-1.65,2.52-3.36,4-5.05.74-.85,1.52-1.7,2.33-2.53s1.59-1.7,2.43-2.52a42.84,42.84,0,0,1,12-8.38,37.92,37.92,0,0,1,6-2.16,43.7,43.7,0,0,1,5.94-1.18,49.75,49.75,0,0,1,11.23-.08,58.75,58.75,0,0,1,14.79,3.48l3.83-10c.67-1.66,1.2-3.38,1.78-5.07l1.72-5.09L261.33,741c.6-1.69,1.1-3.41,1.6-5.13l1.52-5.15c-3.75,7.67-10.18,16.11-18.58,20.93a32.15,32.15,0,0,1-6.78,2.92,38.89,38.89,0,0,1-6.9,1.35,48.64,48.64,0,0,1-12.59-.41A55.89,55.89,0,0,1,206.87,752s.5-1.46,1.52-3.78c.51-1.16,1.16-2.54,1.94-4.06s1.58-3.24,2.58-5a63.69,63.69,0,0,1,7.64-11,69.29,69.29,0,0,1,5-5.18,38.56,38.56,0,0,1,5.93-4.41c7.26-4.37,15.47-5.7,22.34-5.8a58.86,58.86,0,0,1,15.2,1.8c-.35,1.35-.66,2.71-1.05,4.05l-1.18,4-2.37,8a91.77,91.77,0,0,0,4.7-11,35.29,35.29,0,0,0,1-3.42l.31-1.27s-.51-.17-1.44-.42l2.53-10,1.27-5c.43-1.66.85-3.33,1.18-5,1.41-6.73,2.88-13.44,4.24-20.18a90,90,0,0,0,3.88-12.54c.76-3.28,1-5.35,1-5.35s-.66-.14-1.81-.3c.16-1,.36-2,.5-3l.4-3,.79-6.08,1.58-12.16,4,.46-2.69,19c-.39,3.17-1.06,6.29-1.61,9.44l-1.72,9.42c-1.1-.23-1.73-.31-1.73-.31s-.43,2-.84,5.26A96.63,96.63,0,0,0,278.87,688c-.81,3.51-1.53,7-2.41,10.55L273.69,709c-.94,3.48-1.82,7-2.8,10.44l-3.18,10.34c-.86-.26-1.36-.39-1.36-.39s-.58,1.7-1.3,4.55c-.36,1.42-.76,3.14-1.13,5.07s-.87,4-1.23,6.34L259,756c-.63,1.77-1.21,3.55-1.89,5.31L255,766.51,250.88,777c-.71,1.74-1.33,3.51-2.11,5.22l-2.26,5.16a54.15,54.15,0,0,1,12.94,7.9,39.35,39.35,0,0,1,13.39,20.26,47,47,0,0,1,.75,16.18,66.28,66.28,0,0,1-3.44,15.16,99.51,99.51,0,0,1-6.78,15.38,50.93,50.93,0,0,1-10.83-7.63c-5.67-5.14-11.87-12.89-14.09-23.16a46.44,46.44,0,0,1-.94-8.16,56.13,56.13,0,0,1,.24-8.17,80.85,80.85,0,0,1,3-14.71q-5.07,10.63-10.29,21.19L224.93,832l-2.78,5.19c-.93,1.73-1.83,3.47-2.85,5.15l-.64-.33a81.3,81.3,0,0,0-5.32,10.51c-8.34,14.27-17.52,28-27,41.53l-.31-.2s-.52.7-1.36,2-2.12,3-3.48,5.23l-9,11.93c-3.1,3.9-6.3,7.72-9.44,11.58L158,930.34c-1.63,1.88-3.3,3.73-4.95,5.6l-9.91,11.17a564.71,564.71,0,0,0,47.81-61.26,78.82,78.82,0,0,0,5.84-7.77l-.39-.27,6.26-10c2.06-3.36,4.21-6.66,6.2-10.06l5.85-10.27,2.93-5.13,1.46-2.57,1.36-2.62c-.67.93-1.35,1.91-2.15,2.87s-1.64,1.93-2.53,2.9a69.09,69.09,0,0,1-5.85,5.7,51.5,51.5,0,0,1-6.81,5q-.91.55-1.84,1.05t-1.95.92a36.58,36.58,0,0,1-4,1.5c-9.89,3-19.39,1-26.45-1.67a55.67,55.67,0,0,1-11.7-6.09A71,71,0,0,1,165.65,838a83.87,83.87,0,0,1,9.7-9.17A44.58,44.58,0,0,1,188.21,821.8Z"/><path class="cls-3" d="M196.37,877.81l-5.45,8c-1.5,1.78-3.27,3.74-5.27,5.72-1,1-2,2-3.16,3s-2.35,1.88-3.6,2.78A45.56,45.56,0,0,1,162,905.25c-10.18,1.93-19.47-1.12-26.2-4.57a56,56,0,0,1-11-7.31s.92-1.23,2.6-3.13a94.33,94.33,0,0,1,7.16-7.14A63.09,63.09,0,0,1,145.14,875a52.25,52.25,0,0,1,6.47-3.29,38.07,38.07,0,0,1,7-2.37c8.91-2.07,17.7-.47,24.57,1.91A57.67,57.67,0,0,1,196.37,877.81Z"/><path class="cls-3" d="M281.39,656.2l-3.1,18.2A63.33,63.33,0,0,1,272,685.81a39.32,39.32,0,0,1-9.35,9.72c-8.51,5.94-18.19,7-25.75,6.6a55.78,55.78,0,0,1-13-2.16,71,71,0,0,1,4.69-13.38,65.94,65.94,0,0,1,6.31-11.72,48.36,48.36,0,0,1,4.55-5.65,46.37,46.37,0,0,1,5.43-5C258,654.15,275.76,655.34,281.39,656.2Z"/><path class="cls-3" d="M269.06,714.59c.93.25,1.44.42,1.44.42l-.31,1.27a35.29,35.29,0,0,1-1,3.42,91.77,91.77,0,0,1-4.7,11l2.37-8,1.18-4C268.4,717.3,268.71,715.94,269.06,714.59Z"/><path class="cls-3" d="M281.39,656.2c1.16.16,1.81.3,1.81.3s-.28,2.07-1,5.35a90,90,0,0,1-3.88,12.54Z"/><path class="cls-3" d="M218.66,842l.64.33-6,10.18A81.3,81.3,0,0,1,218.66,842Z"/><path class="cls-3" d="M266.35,729.37s.49.13,1.36.39c-1.61,5.21-3.13,10.45-5,15.57.36-2.29.82-4.41,1.23-6.34s.77-3.65,1.13-5.07C265.77,731.07,266.35,729.37,266.35,729.37Z"/><path class="cls-3" d="M280.88,669.86s.64.08,1.73.31c-1,6-2.46,11.88-3.74,17.81A96.63,96.63,0,0,1,280,675.12C280.45,671.85,280.88,669.86,280.88,669.86Z"/><path class="cls-4" d="M70.55,735.76a62.57,62.57,0,0,1-7.65-13.39s.57-.28,1.61-.71Z"/><path class="cls-4" d="M83.62,769.88l1.28-.58L90.33,782A62.07,62.07,0,0,1,83.62,769.88Z"/><path class="cls-4" d="M129.61,873.75a58.06,58.06,0,0,1-4.57-8.85l.65-.31Z"/><path class="cls-4" d="M147.6,911.51l.31-.2c1.26,2.09,2.56,4.16,3.93,6.18a45,45,0,0,1-3.18-4.25C148,912.15,147.6,911.51,147.6,911.51Z"/><path class="cls-4" d="M139.75,897.39a78.06,78.06,0,0,1,3.46,7.47c-1.35-2.39-2.63-4.82-3.9-7.26Z"/><path class="cls-4" d="M119,851.17a59.55,59.55,0,0,1,3.56,10l-4.32-9.72Z"/><path class="cls-4" d="M78.53,758.3a62.32,62.32,0,0,1,4.38,13.56l-5.77-13Z"/><path class="cls-4" d="M56.59,712.6c1.06-.49,1.69-.73,1.69-.73a62.65,62.65,0,0,1,4.67,15Z"/><path class="cls-4" d="M147.6,911.51l.31-.2c1.26,2.09,2.56,4.16,3.93,6.18a45,45,0,0,1-3.18-4.25C148,912.15,147.6,911.51,147.6,911.51Z"/><path class="cls-4" d="M139.31,897.6l.43-.21a78.06,78.06,0,0,1,3.46,7.47C141.86,902.47,140.58,900,139.31,897.6Z"/><path class="cls-4" d="M118.26,851.48l.76-.31a59.55,59.55,0,0,1,3.56,10Z"/><path class="cls-4" d="M129.61,873.75l-3.92-9.16A65.94,65.94,0,0,1,140,860.23c7-1.31,15.51-1.54,23.41,1.42a40.85,40.85,0,0,1,11.32,6.59,59.71,59.71,0,0,1,12.05,13.44c.48.72.83,1.31,1.06,1.73l.35.63s-1.21.76-3.29,1.88a76.35,76.35,0,0,1-8.52,4c-7,2.71-16.24,5-25.17,2.32C140.91,889.19,133.72,880.42,129.61,873.75Z"/><path class="cls-4" d="M90.33,782,84.9,769.3c4.77-2,21.94-8.48,37.06-2.6,17.74,6.92,25.91,28.21,25.91,28.21s-20.6,10.09-38.34,3.17C100.94,794.73,94.59,788,90.33,782Z"/><path class="cls-4" d="M151.84,917.48c-1.37-2-2.67-4.09-3.93-6.18A74.14,74.14,0,0,1,161,904.93a79.08,79.08,0,0,1,11.06-3.3,49.2,49.2,0,0,1,11.88-1.26,34,34,0,0,1,11.55,2.4,43.22,43.22,0,0,1,9.25,5.14,56.49,56.49,0,0,1,9,8,64.9,64.9,0,0,1-10.38,8.14c-6.35,4-15.08,8.09-24.45,7.77a33.75,33.75,0,0,1-16.17-5A44.76,44.76,0,0,1,151.84,917.48Z"/><path class="cls-4" d="M70.55,735.76l-6-14.1c5.18-2.18,22-8.21,36.74-2.46,17.74,6.92,25.91,28.21,25.91,28.21s-20.6,10.08-38.34,3.17C80.83,747.46,74.78,741.44,70.55,735.76Z"/><path class="cls-4" d="M90.59,877.11c6.23-15.71,23.79-24,27.66-25.63l4.32,9.72a59.55,59.55,0,0,0-3.56-10l-.76.31-15.47-34.85c1.72,7.41,2.61,17.22-1,26.3-7,17.7-28.41,25.94-28.41,25.94s-10-20.48-3-38.18c6.08-15.34,22.94-23.56,27.35-25.49L82.92,771.88c1.45,7.17,2,16.21-1.37,24.61-7,17.71-28.41,25.94-28.41,25.94s-10-20.47-3-38.18c5.94-15,22.19-23.19,27-25.36l5.77,13a62.32,62.32,0,0,0-4.38-13.56l-1.38.58L63,726.91a62.65,62.65,0,0,0-4.67-15s-.63.24-1.69.73l-8.45-19,3.67-1.6,12.7,29.67c-1,.43-1.61.71-1.61.71a62.57,62.57,0,0,0,7.65,13.39L84.9,769.3l-1.28.58A62.07,62.07,0,0,0,90.33,782l15,35c4.28-1.87,21.91-8.75,37.38-2.73,17.74,6.91,25.91,28.21,25.91,28.21s-20.6,10.08-38.34,3.17c-9.3-3.62-16-11.19-20.21-17.58l15.65,36.58-.65.31a58.06,58.06,0,0,0,4.57,8.85c5.5,12.82,11.1,25.62,18.3,37.56l-.31.2s.36.64,1.05,1.72a45,45,0,0,0,3.18,4.25c9.38,14,21,26.26,32.45,38.6-7.55-7.95-15.17-15.84-22.25-24.24-3.53-4.2-6.93-8.52-10.09-13a162.87,162.87,0,0,1-8.74-14,78.06,78.06,0,0,0-3.46-7.47l-.43.21c-6.08-11.91-11.28-24.21-16.73-36.37,2,7.58,3.3,18.21-.41,28.26-3.33,9-10,16.05-16,20.75a62.14,62.14,0,0,1-7.82,5.28c-2.05,1.17-3.37,1.73-3.37,1.73s-.81-1.49-1.88-4a67.28,67.28,0,0,1-3.36-9.92,51.6,51.6,0,0,1-1.66-12.8A37.21,37.21,0,0,1,90.59,877.11Z"/><path class="cls-4" d="M139.31,897.6c1.26,2.44,2.54,4.87,3.9,7.26a99.48,99.48,0,0,1,4.47,13.67,53.14,53.14,0,0,1,1.65,17.15c-.84,9.77-5.41,18.27-10,24.36a57.28,57.28,0,0,1-9,9.65l-.78-.86c-.5-.57-1.21-1.41-2.06-2.49a74,74,0,0,1-6.27-9.39,63.34,63.34,0,0,1-5.93-14.22,37.55,37.55,0,0,1-1.13-16.12c1.66-9.51,7.41-16.26,12.88-21A60,60,0,0,1,139.31,897.6Z"/><path class="cls-4" d="M56.59,712.6,63,726.91c1.22,6.91,1.47,15.3-1.65,23.14C54.3,767.76,32.89,776,32.89,776s-10-20.47-3-38.17C35.68,723.12,51.4,715,56.59,712.6Z"/><path class="cls-4" d="M77.14,758.89l1.38-.58a62.32,62.32,0,0,1,4.38,13.56Z"/><path class="cls-4" d="M56.59,712.6c1.06-.49,1.69-.73,1.69-.73a62.65,62.65,0,0,1,4.67,15Z"/><path class="cls-4" d="M125,864.89l.65-.31,3.92,9.16A58.06,58.06,0,0,1,125,864.89Z"/><path class="cls-4" d="M83.62,769.88l1.28-.58L90.33,782A62.07,62.07,0,0,1,83.62,769.88Z"/><path class="cls-4" d="M62.9,722.37s.57-.28,1.61-.71l6,14.1A62.57,62.57,0,0,1,62.9,722.37Z"/></svg>