<?xml version="1.0" standalone="no"?>
<!DOCTYPE svg PUBLIC "-//W3C//DTD SVG 20010904//EN"
 "http://www.w3.org/TR/2001/REC-SVG-20010904/DTD/svg10.dtd">
<svg version="1.0" xmlns="http://www.w3.org/2000/svg"
 width="400.000000pt" height="400.000000pt" viewBox="0 0 400.000000 400.000000"
 preserveAspectRatio="xMidYMid meet">

<g transform="translate(0.000000,400.000000) scale(0.100000,-0.100000)"
fill="#000000" stroke="none">
<path d="M2177 2353 c-4 -3 -7 -48 -7 -100 l0 -94 -31 23 c-23 17 -44 23 -83
23 -99 0 -165 -81 -166 -201 0 -74 31 -139 79 -168 59 -34 172 -17 200 31 9
15 10 12 11 -15 0 -33 0 -33 43 -30 39 3 42 5 41 31 0 15 -1 135 -2 267 l-2
240 -38 0 c-21 0 -42 -3 -45 -7z m-37 -238 c51 -54 34 -196 -26 -224 -41 -18
-64 -13 -100 23 -31 31 -34 40 -34 90 0 60 18 108 47 125 34 20 88 13 113 -14z"/>
<path d="M622 2193 c-19 -9 -36 -22 -39 -30 -9 -22 -23 -15 -23 12 0 23 -4 25
-41 25 l-42 0 7 -52 c3 -29 6 -115 6 -190 l0 -138 40 0 40 0 0 129 c0 123 1
131 25 159 22 27 43 32 88 24 23 -5 37 -77 37 -192 l0 -120 45 0 45 0 0 125
c0 70 5 135 11 148 15 33 51 51 84 43 42 -11 55 -57 55 -196 l0 -120 40 0 c46
0 43 -14 41 175 -1 66 -6 132 -12 146 -11 29 -75 69 -109 69 -31 0 -92 -29
-111 -53 -16 -20 -17 -20 -28 1 -26 49 -100 65 -159 35z"/>
<path d="M1205 2204 c-48 -12 -75 -28 -75 -43 0 -27 14 -41 30 -31 22 14 134
12 148 -2 7 -7 12 -23 12 -38 0 -23 -4 -25 -44 -26 -103 -4 -166 -51 -173
-131 -5 -43 -2 -52 25 -81 40 -43 123 -48 175 -11 l28 21 6 -21 c4 -17 13 -21
44 -21 l39 0 0 138 c0 150 -10 187 -61 224 -25 19 -115 32 -154 22z m125 -229
c0 -49 -18 -82 -53 -96 -45 -19 -81 4 -85 54 -3 32 1 39 30 57 18 11 50 20 71
20 36 0 37 -1 37 -35z"/>
<path d="M1645 2197 c-17 -8 -36 -21 -44 -30 -19 -24 -31 -21 -31 8 0 23 -4
25 -40 25 l-40 0 2 -187 3 -188 43 -3 42 -3 0 121 c0 158 22 204 95 198 54 -5
65 -36 65 -184 l0 -134 50 0 50 0 0 126 c0 70 -5 144 -12 166 -22 73 -114 116
-183 85z"/>
<path d="M2340 2010 l0 -190 45 0 45 0 0 190 0 190 -45 0 -45 0 0 -190z"/>
<path d="M2504 2154 c3 -26 6 -111 6 -190 l0 -144 39 0 39 0 4 119 c4 138 17
169 81 185 33 9 37 13 37 43 0 27 -4 33 -20 33 -29 0 -76 -26 -84 -45 -8 -23
-26 -9 -26 21 0 22 -4 24 -41 24 l-42 0 7 -46z"/>
<path d="M2760 2010 l0 -190 50 0 50 0 0 190 0 190 -50 0 -50 0 0 -190z"/>
<path d="M1070 1495 c0 -143 4 -225 10 -225 6 0 10 29 10 68 0 58 3 72 23 90
l23 22 39 -52 c61 -79 113 -134 120 -126 6 6 -107 162 -126 174 -19 12 -6 35
53 95 44 43 59 64 49 67 -9 3 -44 -27 -90 -77 -42 -45 -79 -81 -83 -81 -5 0
-8 61 -8 135 0 83 -4 135 -10 135 -6 0 -10 -82 -10 -225z"/>
<path d="M2060 1645 c0 -32 -2 -35 -30 -35 -16 0 -30 -4 -30 -10 0 -5 14 -10
30 -10 l30 0 0 -140 c0 -137 1 -142 25 -166 19 -18 34 -24 57 -22 17 2 33 8
35 14 2 7 -6 10 -22 6 -16 -3 -33 2 -45 13 -18 16 -20 32 -20 157 l0 138 50 0
c28 0 50 5 50 10 0 6 -22 10 -50 10 l-50 0 0 35 c0 24 -5 35 -15 35 -10 0 -15
-11 -15 -35z"/>
<path d="M515 1609 c-33 -19 -45 -41 -45 -78 1 -48 15 -64 82 -96 40 -19 60
-35 66 -53 22 -67 -35 -115 -112 -94 -45 12 -56 8 -37 -11 7 -7 38 -12 72 -12
54 0 63 3 85 28 29 34 32 92 6 123 -10 12 -39 30 -64 42 -26 11 -54 32 -64 47
-16 25 -16 30 -3 54 19 34 61 49 99 34 28 -10 51 -1 36 14 -11 12 -102 13
-121 2z"/>
<path d="M784 1598 c-49 -35 -75 -80 -80 -140 -6 -73 14 -125 60 -163 34 -27
45 -30 104 -30 71 0 107 9 98 24 -4 5 -22 5 -46 -1 -82 -21 -160 19 -180 93
-6 22 -8 44 -5 49 4 6 60 10 131 10 l124 0 0 33 c-1 49 -34 113 -69 131 -43
23 -100 20 -137 -6z m124 -14 c26 -18 52 -65 52 -94 0 -19 -6 -20 -110 -20
l-110 0 0 25 c0 76 106 133 168 89z"/>
<path d="M1784 1586 l-34 -34 0 29 c0 19 -5 29 -15 29 -13 0 -15 -26 -15 -170
0 -144 2 -170 15 -170 12 0 15 19 16 113 0 144 11 176 67 202 46 21 54 35 21
35 -12 0 -36 -15 -55 -34z"/>
<path d="M2278 1608 c-16 -5 -28 -16 -28 -24 0 -12 4 -12 30 1 37 19 89 19
117 0 23 -16 48 -78 39 -94 -3 -5 -36 -14 -73 -21 -89 -15 -119 -32 -133 -75
-23 -71 8 -123 79 -132 33 -5 49 -1 81 21 47 31 46 31 53 6 3 -11 10 -20 16
-20 14 0 15 197 1 255 -13 57 -58 95 -113 94 -23 0 -54 -5 -69 -11z m162 -200
c0 -60 -29 -104 -80 -119 -50 -15 -86 -2 -101 38 -26 70 29 123 129 123 l52 0
0 -42z"/>
<path d="M2588 1604 c-27 -14 -43 -49 -40 -88 2 -28 31 -55 94 -87 40 -20 60
-37 64 -53 18 -73 -49 -111 -143 -81 -34 11 -29 -13 5 -26 42 -17 110 -5 139
24 55 54 20 140 -68 166 -49 15 -73 57 -57 102 12 34 36 43 96 35 43 -6 46 -5
28 9 -25 19 -83 19 -118 -1z"/>
<path d="M1352 1473 c4 -149 9 -168 61 -198 37 -22 98 -15 139 15 29 22 48 20
48 -6 0 -8 5 -14 10 -14 6 0 10 63 10 170 0 144 -2 170 -15 170 -13 0 -15 -21
-15 -126 l0 -126 -33 -33 c-40 -40 -77 -51 -116 -35 -48 20 -61 62 -61 199 0
104 -2 121 -16 121 -14 0 -15 -17 -12 -137z"/>
<path d="M1920 1440 c0 -133 3 -171 13 -167 9 3 12 45 12 167 0 122 -3 164
-12 168 -10 3 -13 -35 -13 -168z"/>
</g>
</svg>
