<svg id="Layer_1" data-name="Layer 1" xmlns="http://www.w3.org/2000/svg" viewBox="0 0 1000 1000"><defs><style>.cls-1{fill:#001f40;}.cls-2{fill:#fbb72a;}.cls-3{fill:#e6e6e6;}</style></defs><title>pohonKiri</title><path class="cls-1" d="M.1,120.6c24,18.55,79.39,61.08,108.86,68.28,37,9,106.43,19.37,128.94,50.15,24.89,34,0,89.06.7,131.23.94,54.92-13.09,115.27,17.26,161.06,30.55,46.09,92.35,56.54,141,82.82,6.78,3.66,13.6,7.91,17.77,14.38,4.37,6.8,5.28,15.19,5.86,23.25,1.88,26.55,1.14,54.07-9.36,78.52-15.21,35.42-50.51,60.42-88.54,66.75s-77.9-4.89-109.49-27c-16.2-11.33-30.46-25.4-47.49-35.44a121.44,121.44,0,0,0-93.17-12.22c-23.95,6.68-47.84,20.95-72,14.91Z"/><path class="cls-2" d="M-8.34,646.43a422.59,422.59,0,0,1,85.91,16.63c13.52,4.11,26.91,8.93,39.12,16,14.84,8.65,27.55,20.46,39.71,32.59,19.32,19.27,38.19,40.69,45.28,67s-1.2,58.72-25.38,71.37c-7.92,4.15-16.83,5.91-25.39,8.52-26.38,8-49.53,24.21-75.19,34.32s-57.12,13.19-79-3.64Z"/><path class="cls-2" d="M-5.11,261.63c57.13-4.19,109.43-47,124.85-102.16,4.46-16,6.14-32.86,13.21-47.86,11.28-24,35.18-40.05,60.44-48S245.51,54.87,272,54.1l64-1.85c7.58-.22,15.42-.39,22.41,2.53C371.21,60.13,378,75.1,377.22,88.93s-7.83,26.56-16.16,37.63c-48.61,64.58-139.86,83.95-191.75,145.92-2.74,3.27-5.46,6.9-5.81,11.15-1,11.73,14.62,16.59,26.39,17,18.32.68,36.65.57,55,1.36,31.28,1.33,65.62,6.87,85.79,30.82,16.69,19.82,19.38,49.75,8.07,73.07s-35.38,39.45-61.06,42.91c-20.58,2.78-42.42-1.8-61.7,5.91-24.77,9.9-37.56,36.52-54.82,56.87-33.63,39.66-91.24,57.15-141.25,42.9l-28-28.62Z"/><path class="cls-3" d="M127.69,979.72c3.22-41.21-.21-82.58,1.23-123.85a321.33,321.33,0,0,1,24.52-113.1c30.08-72.3,81.68-133.41,132.51-191.94,29.57-34,59.85-69,99.84-91.06,5.07-2.8.54-10.58-4.54-7.77-36.1,20-64.67,50.2-91.58,80.9-26.1,29.77-52,59.84-75.84,91.44C166.45,687,127.11,758,120.91,837.72c-3.67,47.26,1.48,94.74-2.22,142-.45,5.78,8.55,5.75,9,0Z"/><path class="cls-3" d="M73,981a980.35,980.35,0,0,1,27.52-355.6q11.59-43.46,27.15-85.74c10.36-28.11,23.14-55.28,33.2-83.49,10.52-29.5,16.36-60.37,21.42-91.2q7.7-47,12-94.38a1325.86,1325.86,0,0,0,2.2-213.11c-.4-5.75-9.41-5.79-9,0a1325.66,1325.66,0,0,1-.42,191.66q-3.54,47.22-10.48,94.1c-4.61,31-9.71,62.29-18.56,92.44-8.68,29.59-22.1,57.45-33.23,86.14q-15.94,41.08-28.1,83.5a991,991,0,0,0-33.51,175.9A980.07,980.07,0,0,0,64,981c.61,5.7,9.61,5.76,9,0Z"/><path class="cls-3" d="M131.23,523.85c2.28-61.69,4.29-123.48,1.72-185.19-2.53-60.71-9.49-121.62-25.53-180.35a534.82,534.82,0,0,0-36-95.51c-2.56-5.2-10.32-.64-7.77,4.54,26.58,54,42.5,112.4,51.31,171.75,8.93,60.22,10.7,121.31,10.05,182.11-.36,34.23-1.54,68.45-2.8,102.65-.21,5.79,8.79,5.78,9,0Z"/><path class="cls-3" d="M180.91,362.2c38.12-17.51,76.87-35.49,108.41-63.75,30.59-27.4,52.47-62.86,72.4-98.35,12.65-22.53,25-45.23,37.47-67.85,2.8-5.08-5-9.62-7.77-4.54-20.66,37.47-40.14,76.07-64,111.69-11.24,16.82-23.76,32.82-38.31,46.91-15,14.48-32,26.44-50,36.85-20.26,11.73-41.55,21.52-62.8,31.28-5.26,2.41-.69,10.17,4.54,7.77Z"/><path class="cls-3" d="M109.27,582.85A1299.72,1299.72,0,0,1,76.59,344.92c-.25-5.77-9.26-5.8-9,0a1313.2,1313.2,0,0,0,33,240.32c1.31,5.64,10,3.25,8.68-2.39Z"/><path class="cls-3" d="M138.23,510.43c64.45-15.14,119.92-53.09,170.6-94.24,14.71-11.95,29.13-24.25,43.52-36.59,4.4-3.78-2-10.12-6.36-6.36-48.87,41.9-99,84.55-158.29,111a290.16,290.16,0,0,1-51.86,17.51c-5.64,1.32-3.25,10,2.39,8.68Z"/><path class="cls-3" d="M92.89,639.09c14.57.76,28.71-3.08,42.17-8.36a242.17,242.17,0,0,0,36.56-18,242.44,242.44,0,0,0,33-23.91c9.47-8.15,19.39-17.55,21.38-30.49.87-5.67-7.8-8.11-8.68-2.39-1.89,12.26-12.05,20.63-21,28.2a229.39,229.39,0,0,1-30.66,21.72c-21.37,12.69-47.24,25.56-72.7,24.23-5.79-.3-5.77,8.7,0,9Z"/><path class="cls-3" d="M32.15,672a94.65,94.65,0,0,0,34.76,48.42c4.68,3.42,9.17-4.38,4.54-7.77a84.51,84.51,0,0,1-30.63-43c-1.72-5.51-10.41-3.16-8.68,2.39Z"/><path class="cls-3" d="M155.38,738.12a161.93,161.93,0,0,1,97.71-60.18c22.68-4.39,46-4.54,69.06-4.11,21.63.4,43.56,2,64,9.57,23.06,8.48,42,24.85,60.37,40.66,4.37,3.76,10.76-2.58,6.36-6.36-17-14.68-34.45-29.72-55.07-39.15C376.9,669,354,665.95,331.14,665.07c-45.46-1.75-92.26.36-132.61,23.57a172.1,172.1,0,0,0-50.92,44.94c-3.51,4.6,4.3,9.09,7.77,4.54Z"/><path class="cls-3" d="M337.38,492.57c15.22,27.77,48.7,32.11,77.15,34.46,5.77.48,5.74-8.52,0-9-25.15-2.08-55.84-5.31-69.38-30-2.78-5.08-10.56-.54-7.77,4.54Z"/><path class="cls-3" d="M195.51,109c56.31,7.42,109.62-19.47,156.81-47,5-2.91.48-10.7-4.54-7.77-46,26.78-97.41,53-152.27,45.74-5.72-.75-5.67,8.25,0,9Z"/><path class="cls-3" d="M110.34,196.79a113.2,113.2,0,0,1-89-19c-4.71-3.38-9.21,4.42-4.54,7.77a122.05,122.05,0,0,0,96,19.88c5.66-1.2,3.27-9.88-2.39-8.68Z"/><path class="cls-3" d="M122.39,250.13c15-11,23.58-29.26,21.31-47.92-.69-5.68-9.7-5.75-9,0,1.86,15.34-4.25,30.92-16.85,40.15-4.63,3.39-.14,11.2,4.54,7.77Z"/><path class="cls-3" d="M90.93,101.07A142.21,142.21,0,0,0,119.2,83.66c4.56-3.57-1.85-9.9-6.36-6.36a133,133,0,0,1-26.45,16c-5.25,2.42-.69,10.18,4.54,7.77Z"/><path class="cls-3" d="M371.79,182.43c35.68-2.25,74.09-5.6,102.26-30.07,4.38-3.81-2-10.15-6.36-6.36-26.15,22.71-62.88,25.35-95.89,27.43-5.75.36-5.79,9.36,0,9Z"/><path class="cls-3" d="M324,249.34l-4.7-23c-1.16-5.67-9.84-3.27-8.68,2.39l4.7,23c1.16,5.67,9.84,3.27,8.68-2.39Z"/><path class="cls-3" d="M359.08,187,324,169c-5.14-2.64-9.7,5.12-4.54,7.77l35.06,18c5.14,2.64,9.7-5.12,4.54-7.77Z"/><path class="cls-3" d="M291.74,291.74a241.91,241.91,0,0,0,98.66-3.46c5.62-1.38,3.24-10.06-2.39-8.68a230.7,230.7,0,0,1-93.87,3.46c-5.67-1-8.1,7.7-2.39,8.68Z"/><path class="cls-3" d="M227.17,271.31a242.54,242.54,0,0,0-.3,53.38c.6,5.7,9.6,5.76,9,0a242.54,242.54,0,0,1,.3-53.38c.67-5.74-8.34-5.69-9,0Z"/><path class="cls-3" d="M120.93,306.92c-17.58,2.38-35.22-5.06-46.52-18.51-3.73-4.44-10.07,2-6.36,6.36,13.55,16.12,34.57,23.62,55.28,20.82,5.71-.77,3.28-9.45-2.39-8.68Z"/><path class="cls-3" d="M74.67,414.63C56.73,413,43.67,399,32,386.68c-4-4.23-10.33,2.15-6.36,6.36,13.56,14.4,28.31,28.67,49,30.59,5.76.53,5.73-8.47,0-9Z"/><path class="cls-3" d="M205.94,793.36a136.17,136.17,0,0,1-36.72,6.78c-10.2.41-21.78.13-29.84-7-4.32-3.83-10.71,2.51-6.36,6.36,9,8,20.82,9.88,32.52,9.75a143.64,143.64,0,0,0,42.79-7.2c5.48-1.79,3.14-10.48-2.39-8.68Z"/><path class="cls-3" d="M75.23,757c16.55-2.66,25.61-17.44,31.31-31.76,2.14-5.38-6.56-7.72-8.68-2.39-4.61,11.59-11.71,23.34-25,25.48-5.7.92-3.28,9.59,2.39,8.68Z"/><path class="cls-3" d="M393.92,685.85a134.68,134.68,0,0,0-10.13,61.53c.4,5.75,9.4,5.79,9,0a128.77,128.77,0,0,1,9.81-59.13c2.24-5.33-6.47-7.66-8.68-2.39Z"/><path class="cls-3" d="M350.5,670.15a93.88,93.88,0,0,1,43.25-46.86c22.58-11.75,48.66-11.2,73-16.41,5.66-1.21,3.27-9.89-2.39-8.68-26.31,5.62-53.77,5.25-77.84,18.74a103.5,103.5,0,0,0-44.74,50.8c-2.21,5.35,6.49,7.68,8.68,2.39Z"/><path class="cls-3" d="M402.38,611.63c-1.88-3.23-4.6-5.15-7.63-7.21-4.29-2.92-5.94-6.58-7-11.59-2.07-10.19-2.24-20.82-1.49-31.15.42-5.78-8.58-5.75-9,0a123.88,123.88,0,0,0,1.81,33.55,27.19,27.19,0,0,0,5.21,12c2.87,3.51,8,5,10.29,8.92,2.91,5,10.69.48,7.77-4.54Z"/><path class="cls-3" d="M319.6,424.12c-4.05,9.28-11.23,17.18-16,26.18a158.43,158.43,0,0,0-11.37,27.53,156.16,156.16,0,0,0-6.19,59.51c.51,5.72,9.52,5.78,9,0a149.21,149.21,0,0,1,5.87-57.12,145.44,145.44,0,0,1,10.86-26.12c4.67-8.72,11.65-16.42,15.59-25.44,2.29-5.26-5.46-9.84-7.77-4.54Z"/><path class="cls-3" d="M220.21,389q.5,22.61,0,45.22c-.16,6.87.42,14.63-1.39,21.31-1.87,6.91-6.83,12.36-11.48,17.57-3.85,4.31,2.49,10.69,6.36,6.36,4.73-5.29,9.48-10.71,12.29-17.3,3-7,2.85-14.6,3.06-22q.75-25.55.16-51.11c-.13-5.78-9.13-5.8-9,0Z"/><path class="cls-3" d="M227,466.34c-3.35,7.68-.21,14.8,6.18,19.73,7.24,5.59,15.93,9.74,24.1,13.79,5.17,2.56,9.74-5.2,4.54-7.77-5.49-2.72-10.89-5.6-16.18-8.69-3.7-2.17-13.41-6.7-10.87-12.51,2.29-5.26-5.46-9.84-7.77-4.54Z"/><path class="cls-3" d="M331.81,395.16c10.64-6.17.67-16.58-3.52-23a60.1,60.1,0,0,1-9.54-33.55c.07-5.79-8.93-5.8-9,0a69.08,69.08,0,0,0,5,26.85,67.31,67.31,0,0,0,5.78,11.25c.63,1,8,10,6.75,10.72-5,2.9-.48,10.68,4.54,7.77Z"/><path class="cls-3" d="M264.29,565.32c3.12,25.69,23.7,41.47,43.52,55.29,4.76,3.32,9.26-4.48,4.54-7.77-16.68-11.63-36.39-25.61-39.06-47.52-.69-5.68-9.7-5.75-9,0Z"/><path class="cls-3" d="M351.13,510.54a55.53,55.53,0,0,0-6.92,41c1.21,5.66,9.88,3.27,8.68-2.39a46.15,46.15,0,0,1,6-34.05c3-4.95-4.74-9.47-7.77-4.54Z"/><path class="cls-3" d="M352.1,291a77.22,77.22,0,0,0,4.78,36.59c2.07,5.34,10.78,3,8.68-2.39A71.4,71.4,0,0,1,361.1,291c.64-5.75-8.37-5.7-9,0Z"/><path class="cls-3" d="M442.26,165.91a301.51,301.51,0,0,1-1-34.52c.16-5.79-8.84-5.79-9,0a301.51,301.51,0,0,0,1,34.52c.5,5.73,9.51,5.78,9,0Z"/><path class="cls-3" d="M299.42,89.45c-1.12,15.63,8.59,29.87,23,35.49,5.4,2.11,7.74-6.59,2.39-8.68C314,112,307.61,100.82,308.42,89.45c.41-5.78-8.59-5.75-9,0Z"/><path class="cls-3" d="M259.23,99.65l-.06-16.76c0-5.17-1-11.51,1-16.39,1.9-4.61,4.88-9,7.29-13.34l8.69-15.76c2.8-5.07-5-9.62-7.77-4.54L259.2,49.45c-2.66,4.82-6,9.69-7.86,14.9-1.76,5-1.2,10.56-1.18,15.75l.07,19.55c0,5.79,9,5.8,9,0Z"/><path class="cls-3" d="M197.13,212.82c27.27-14.16,47.66-37.55,67.31-60.57,3.74-4.38-2.6-10.78-6.36-6.36-19.16,22.45-38.89,45.35-65.49,59.16-5.14,2.67-.6,10.44,4.54,7.77Z"/><path class="cls-3" d="M231.15,176.17c-4.83,11.55,8.33,24.74,15.1,32.78,3.74,4.44,10.07-2,6.36-6.36-3.1-3.68-6-7.47-8.77-11.44-2.56-3.72-6-7.93-4-12.59,2.23-5.34-6.47-7.67-8.68-2.39Z"/><path class="cls-3" d="M64.21,138.57c-3.45,21-6.7,43.19,1.8,63.41,2.21,5.26,10.92,2.95,8.68-2.39-7.89-18.76-5-39.14-1.8-58.62.93-5.67-7.74-8.1-8.68-2.39Z"/><path class="cls-3" d="M113.51,635.57c1.49,5.6,3.35,11.35,8,15.18,4.34,3.62,9.92,4.67,15.36,5.41,5.66.77,8.11-7.9,2.39-8.68-3.76-.51-8.15-.89-11.35-3.13-3.59-2.51-4.62-7.2-5.68-11.18-1.48-5.59-10.17-3.22-8.68,2.39Z"/><path class="cls-3" d="M285.38,668c-10-14.25-17.93-33.17-14.69-50.84,1-5.66-7.63-8.09-8.68-2.39-3.7,20.15,4.08,41.36,15.6,57.78,3.3,4.71,11.11.21,7.77-4.54Z"/><path class="cls-3" d="M188.41,590.3a61.27,61.27,0,0,1-10.77-49.68c1.25-5.64-7.42-8.05-8.68-2.39a70,70,0,0,0,11.67,56.62c3.4,4.62,11.21.13,7.77-4.54Z"/><path class="cls-3" d="M234.23,681.08c5.42,11.18,10.48,22.64,16.5,33.52,5.51,10,13.14,17.77,21.15,25.73,15.1,15,31.37,29.17,51.71,36.43,5.46,2,7.82-6.74,2.39-8.68-19.32-6.9-34.64-21-48.91-35.28-7.75-7.74-14.66-15.27-19.8-25-5.4-10.24-10.22-20.82-15.27-31.23-2.53-5.21-10.29-.65-7.77,4.54Z"/><path class="cls-3" d="M227.75,435.11l33.56-25.25c4.57-3.44.09-11.26-4.54-7.77l-33.56,25.25c-4.57,3.44-.09,11.26,4.54,7.77Z"/><path class="cls-3" d="M397.48,177.62a87.85,87.85,0,0,0,2.21,33.48c1.46,5.6,10.14,3.23,8.68-2.39a81.19,81.19,0,0,1-1.88-31.09c.74-5.73-8.27-5.67-9,0Z"/><path class="cls-3" d="M323.6,687.2A99.45,99.45,0,0,0,287,740.64c-1.53,5.59,7.15,8,8.68,2.39A89.59,89.59,0,0,1,328.14,695c4.58-3.43.1-11.25-4.54-7.77Z"/></svg>