<svg id="Layer_1" data-name="Layer 1" xmlns="http://www.w3.org/2000/svg" viewBox="0 0 1000 1000"><defs><style>.cls-1{fill:#fbb72a;}.cls-2{fill:#001f40;}.cls-3{fill:#e6e6e6;}</style></defs><title>pohonKanan</title><path class="cls-1" d="M953.42,570c-22.73-15-74.69-34.61-101.81-37.06-14.15-1.28-28.55,1.09-42.56-1.28-13.49-2.28-25.82-8.81-37.89-15.25L625.72,438.82c-22-11.72-47-28.18-47.09-53.09-.15-35.73,48.58-49.69,65-81.43,7.8-15.08,7.51-32.89,7-49.87l-1.75-62.93c-.53-19-.9-38.87,7.25-56.07,10.58-22.33,34.75-36.5,59.37-38.58s49.3,6.75,69.61,20.82c16.38,11.35,30.4,26.07,47.75,35.87,42.73,24.14,95.81,14,143.69,3.24l-25.64,425.4"/><path class="cls-2" d="M1002.22,942.82c-34.6-10.06-85.43-30.87-103.56-62s-19.19-73.22,2.58-101.94c5.3-7,11.87-13.25,15.18-21.37,3.08-7.57,3-16,2.65-24.18-1-23.21-4.67-47.67-19.31-65.72-19.1-23.56-52.76-30.45-82.88-27S758.38,656.14,729.1,664c-37.84,10.2-77.2,13.46-116.37,14.56-34.24,1-71-.48-98.7-20.63-39.29-28.57-45.89-89.47-20.78-131.06,15.07-25,40.75-44.32,69.71-47.7,15-1.75,30.05.69,45,2.46a504,504,0,0,0,131.94-1.85c5.84-.86,12-2,16.34-6,4-3.77,5.64-9.39,6.9-14.76a227,227,0,0,0,5.77-60.5c-.33-8.25-1.21-16.82-5.54-23.85-11.07-18-36.72-16.93-57.69-19.28-58.62-6.57-107.54-62.13-106.62-121.11.28-18.26,5.53-37.64,19.5-49.4,16.64-14,41.94-13.52,61.58-4.19s34.74,26,48.55,42.76c6.89,8.39,14.77,17.59,25.57,18.74,6.64.7,13.15-1.86,19.33-4.38,10.59-4.31,21.36-8.71,30.25-15.89,42.9-34.62,22.68-112.43,64.4-148.46,29.19-25.21,94.39-17,131.75-7.44Z"/><path class="cls-1" d="M1036.42,608.69c-29.13,1.87-59,3.67-86.94-4.87-19.69-6-37.48-16.93-56.43-25-60.74-25.79-130.6-20.92-194.18-3.26-28.77,8-59,20.15-74.56,45.6-9.41,15.36-12.32,34-11.84,52A153.68,153.68,0,0,0,783.64,821.76c16.57-1.9,33.22-6.72,46.5-16.82,23.4-17.79,37.48-15.09,56.23-37.72,23.31-28.14,77.16-.77,113.08,5.94Z"/><path class="cls-3" d="M851.28,974.17c-3.32-42.38.41-84.92-1.36-127.35a327,327,0,0,0-25.33-113.5c-30.81-73.47-83-135.47-134.74-195-29.9-34.42-60.7-69.5-101.12-91.85-5.07-2.8-9.62,5-4.54,7.77,35.44,19.59,63.34,49.36,89.76,79.5,26,29.61,51.76,59.48,75.44,91,46.43,61.7,85.33,131.56,90.86,210,3.27,46.43-1.6,93,2,139.45.45,5.74,9.45,5.78,9,0Z"/><path class="cls-3" d="M906,975.4A987.44,987.44,0,0,0,879.06,621q-11.42-43.51-26.82-85.84C842,507,829.4,479.82,819.07,451.75c-10.81-29.39-16.92-60.09-22.07-90.9q-8-47.67-12.35-95.85a1325.86,1325.86,0,0,1-2.2-213.11c.4-5.78-8.6-5.75-9,0a1325.66,1325.66,0,0,0,.42,191.66q3.48,46.47,10.23,92.62c4.53,31.08,9.54,62.37,18.07,92.64,8.39,29.76,21.69,57.68,33,86.38q16.1,41,28.41,83.39a977.75,977.75,0,0,1,34.21,177A980.07,980.07,0,0,1,897,975.4c-.61,5.75,8.39,5.71,9,0Z"/><path class="cls-3" d="M847.74,522.5c-2.24-60.81-4.23-121.7-1.83-182.54C848.29,279.7,855,219.35,870.77,161a523.51,523.51,0,0,1,35.52-95c2.55-5.18-5.21-9.74-7.77-4.54-26.81,54.41-43.13,113.17-52.08,173-9.08,60.73-11.12,122.26-10.52,183.59.34,34.82,1.54,69.63,2.82,104.43.21,5.77,9.21,5.8,9,0Z"/><path class="cls-3" d="M822.36,728a171.08,171.08,0,0,0-102.17-64.14c-23.77-4.74-48.23-5.06-72.38-4.61-22.93.42-46.5,2.19-68.08,10.52-23.89,9.22-43.5,25.83-62.67,42.35-4.4,3.79,2,10.13,6.36,6.36,16.28-14,32.83-28.22,52.46-37.37,19.9-9.27,42.13-11.86,63.84-12.64,43-1.55,87.39,0,125.8,21.6a161.1,161.1,0,0,1,49.06,42.49c3.47,4.54,11.29.06,7.77-4.54Z"/><path class="cls-3" d="M651.38,211.43a891.4,891.4,0,0,1,38.69,255.74q.15,36.51-2.7,72.95c-.45,5.78,8.56,5.75,9,0A900.35,900.35,0,0,0,678.7,280.59q-7.82-36.15-18.64-71.56c-1.68-5.53-10.37-3.17-8.68,2.39Z"/><path class="cls-3" d="M924.07,302.38c2.16,41.78,4.3,83.72,1.26,125.52a392.43,392.43,0,0,1-9.18,62c-4.84,20.45-11.64,40.35-18.65,60.13Q885.28,584.53,873,619c-1.94,5.47,6.75,7.82,8.68,2.39l22-61.85c7-19.77,14.08-39.58,19.36-59.92,10.61-40.86,13.24-83.28,12.79-125.35-.25-24-1.48-48-2.71-71.94-.3-5.76-9.3-5.8-9,0Z"/><path class="cls-3" d="M770.42,121.36a158.19,158.19,0,0,1-101.56-29.9c-4.7-3.4-9.19,4.4-4.54,7.77a166.1,166.1,0,0,0,106.1,31.12c5.76-.32,5.8-9.32,0-9Z"/><path class="cls-3" d="M779.87,225.22a132.44,132.44,0,0,0,48.43-50.5c2.76-5.09-5-9.64-7.77-4.54a123.42,123.42,0,0,1-45.2,47.27c-5,3-.44,10.76,4.54,7.77Z"/><path class="cls-3" d="M675.46,262.75c2.36-6.55,9.07-10.86,14-15.34q8.17-7.36,15.73-15.34A290.09,290.09,0,0,0,733,197.71c3.31-4.77-4.49-9.28-7.77-4.54a275,275,0,0,1-30,36.33c-5.32,5.41-10.88,10.55-16.6,15.53-5.07,4.42-9.51,8.88-11.83,15.33-2,5.46,6.73,7.81,8.68,2.39Z"/><path class="cls-3" d="M680.61,330.12A206.66,206.66,0,0,1,606,295.69c-4.68-3.42-9.17,4.38-4.54,7.77a213.18,213.18,0,0,0,76.77,35.35c5.63,1.33,8-7.34,2.39-8.68Z"/><path class="cls-3" d="M618.64,483.19c-42.41,34.3-87.39,70-142.43,80.22-5.69,1.05-3.28,9.73,2.39,8.68,56.57-10.46,102.83-47.29,146.4-82.54,4.5-3.64-1.9-10-6.36-6.36Z"/><path class="cls-3" d="M523.38,553.86a141.13,141.13,0,0,1,1.48,39.55c-.58,5.76,8.43,5.72,9,0a149.52,149.52,0,0,0-1.8-41.94c-1-5.69-9.71-3.28-8.68,2.39Z"/><path class="cls-3" d="M574.41,519.06a52.52,52.52,0,0,1-39.51-25.89c-2.91-5-10.69-.48-7.77,4.54a62,62,0,0,0,47.29,30.35c5.75.61,5.71-8.39,0-9Z"/><path class="cls-3" d="M577.34,579.32a112.77,112.77,0,0,1,31.8,81.31c-.15,5.79,8.85,5.79,9,0A121.91,121.91,0,0,0,583.7,573c-4-4.16-10.41,2.21-6.36,6.36Z"/><path class="cls-3" d="M555.65,685.83c-2.56,34.93-4.48,70.85,9.58,103.77,2.27,5.31,10,.73,7.77-4.54-13.33-31.21-10.77-66.21-8.35-99.23.42-5.78-8.58-5.75-9,0Z"/><path class="cls-3" d="M678.47,664a146.45,146.45,0,0,0-18.54,91.74c.73,5.66,9.74,5.74,9,0a138.52,138.52,0,0,1,17.31-87.2c2.9-5-4.87-9.56-7.77-4.54Z"/><path class="cls-3" d="M736.51,603.56a58.73,58.73,0,0,0-49,11.93c-4.52,3.62,1.89,10,6.36,6.36a49,49,0,0,1,40.29-9.61c5.65,1.16,8.07-7.51,2.39-8.68Z"/><path class="cls-3" d="M746.79,369.81c-5,7.15-6.9,15.61-9.18,23.9a148.9,148.9,0,0,1-10.9,27.83c-8.81,17.4-20.14,33.36-31.42,49.22-3.36,4.73,4.44,9.23,7.77,4.54,11.28-15.86,22.61-31.82,31.42-49.22a164.39,164.39,0,0,0,10.62-25.88c2.71-8.82,4-18.16,9.46-25.86,3.34-4.74-4.46-9.25-7.77-4.54Z"/><path class="cls-3" d="M712.5,283c18.21,20.26,41.84,43.19,71.7,35.39,5.6-1.46,3.23-10.15-2.39-8.68-26.3,6.87-47.16-15.52-62.94-33.07-3.88-4.32-10.23,2.06-6.36,6.36Z"/><path class="cls-3" d="M872.81,142.76c8.23,1.36,15.06-1.85,21.71-6.47,8.06-5.61,15.91-11.57,23.78-17.44,7.24-5.4,14.52-10.77,21.61-16.37,6.18-4.89,11.9-10.4,15.1-17.73,2.3-5.26-5.45-9.84-7.77-4.54-5.75,13.15-20.89,21.47-31.94,29.72q-9.61,7.18-19.31,14.24c-5.69,4.15-13.14,11.18-20.79,9.92-5.67-.93-8.1,7.74-2.39,8.68Z"/><path class="cls-3" d="M848.67,259.12a173,173,0,0,0,75.13-52.78c3.65-4.44-2.68-10.84-6.36-6.36a164.35,164.35,0,0,1-71.16,50.46c-5.41,1.95-3.08,10.65,2.39,8.68Z"/><path class="cls-3" d="M867.87,249c7.5,21.33,29.58,35.9,52.27,33.32,5.69-.65,5.75-9.66,0-9-18.56,2.12-37.32-8.88-43.59-26.71-1.91-5.43-10.61-3.09-8.68,2.39Z"/><path class="cls-3" d="M903.44,553.16c10.58-1.33,19.32-6.42,28.17-12.06,7.85-5,17.49-9.61,22-18.18,2.71-5.12-5.06-9.67-7.77-4.54-3.71,7-12.38,10.86-18.79,14.95-7.28,4.64-14.86,9.73-23.63,10.83-5.67.71-5.74,9.72,0,9Z"/><path class="cls-3" d="M822,474.49a59.44,59.44,0,0,0-32.9,4.32c-5.3,2.28-.73,10,4.54,7.77a48.14,48.14,0,0,1,26-3.42c5.67.83,8.11-7.84,2.39-8.68Z"/><path class="cls-3" d="M796.2,545.4c4.45,19.49,4.12,39.85,3.71,59.73-.37,18-2.92,38.9-18.5,50.49-4.6,3.42-.11,11.23,4.54,7.77,16.7-12.42,21.84-32.61,22.77-52.49,1.06-22.42,1.18-45.91-3.85-67.89-1.29-5.64-10-3.26-8.68,2.39Z"/><path class="cls-3" d="M610.5,366.3c9.9,3.26,14.83,13.83,18.62,22.75a212.85,212.85,0,0,1,11.17,34.32,217.58,217.58,0,0,1,4.54,72c-.58,5.76,8.42,5.72,9,0a224.9,224.9,0,0,0-6.18-79.68,202,202,0,0,0-13-36.19c-4.64-9.65-11.23-18.41-21.74-21.87-5.51-1.81-7.88,6.87-2.39,8.68Z"/><path class="cls-3" d="M869.54,337.22c.46,9.63-1.12,19.35.83,28.89,1.88,9.2,7.56,17.56,12.62,25.3a231.84,231.84,0,0,0,37.19,43.8c4.26,3.91,10.64-2.43,6.36-6.36a222.27,222.27,0,0,1-34.83-40.52c-4.66-7-10.12-14.63-12.27-22.87-2.37-9.14-.47-18.91-.91-28.23-.27-5.77-9.27-5.8-9,0Z"/><path class="cls-3" d="M838.69,26.43c1.51,18.86-3.49,37.65,6.83,54.89,8.3,13.84,22.07,23.33,35.23,32.1,4.83,3.22,9.34-4.57,4.54-7.77-11.85-7.9-24.52-16.4-32-28.87-9.31-15.53-4.24-33.33-5.61-50.34-.46-5.73-9.46-5.78-9,0Z"/><path class="cls-3" d="M840.43,665.86a58.17,58.17,0,0,0,49,30.46c5.79.21,5.78-8.79,0-9a49,49,0,0,1-41.24-26c-2.73-5.11-10.5-.57-7.77,4.54Z"/></svg>